<ttFont>
    <TTGlyph name=".notdef" xMin="105" yMin="-220" xMax="634" yMax="1030">
      <contour>
        <pt x="105" y="1030" on="1"/>
        <pt x="634" y="1030" on="1"/>
        <pt x="634" y="-220" on="1"/>
        <pt x="105" y="-220" on="1"/>
      </contour>
      <contour>
        <pt x="592" y="-178" on="1"/>
        <pt x="592" y="989" on="1"/>
        <pt x="147" y="989" on="1"/>
        <pt x="147" y="-178" on="1"/>
      </contour>
    </TTGlyph>
    <TTGlyph name="A" xMin="11" yMin="0" xMax="633" yMax="740">
      <contour>
        <pt x="11" y="5" on="1"/>
        <pt x="291" y="740" on="1"/>
        <pt x="354" y="740" on="1"/>
        <pt x="633" y="5" on="1"/>
        <pt x="633" y="0" on="1"/>
        <pt x="592" y="0" on="1"/>
        <pt x="499" y="246" on="1"/>
        <pt x="146" y="246" on="1"/>
        <pt x="52" y="0" on="1"/>
        <pt x="11" y="0" on="1"/>
      </contour>
      <contour>
        <pt x="484" y="284" on="1"/>
        <pt x="369" y="587" on="1"/>
        <pt x="324" y="706" on="1"/>
        <pt x="320" y="706" on="1"/>
        <pt x="275" y="587" on="1"/>
        <pt x="160" y="284" on="1"/>
      </contour>
    </TTGlyph>
    <TTGlyph name="A.sc" xMin="18" yMin="0" xMax="560" yMax="577">
      <contour>
        <pt x="18" y="4" on="1"/>
        <pt x="258" y="577" on="1"/>
        <pt x="320" y="577" on="1"/>
        <pt x="560" y="4" on="1"/>
        <pt x="560" y="0" on="1"/>
        <pt x="519" y="0" on="1"/>
        <pt x="440" y="187" on="1"/>
        <pt x="138" y="187" on="1"/>
        <pt x="59" y="0" on="1"/>
        <pt x="18" y="0" on="1"/>
      </contour>
      <contour>
        <pt x="426" y="222" on="1"/>
        <pt x="330" y="452" on="1"/>
        <pt x="291" y="546" on="1"/>
        <pt x="286" y="546" on="1"/>
        <pt x="248" y="452" on="1"/>
        <pt x="150" y="222" on="1"/>
      </contour>
    </TTGlyph>
    <TTGlyph name="AE" xMin="12" yMin="0" xMax="777" yMax="740">
      <contour>
        <pt x="12" y="6" on="1"/>
        <pt x="313" y="740" on="1"/>
        <pt x="768" y="740" on="1"/>
        <pt x="768" y="702" on="1"/>
        <pt x="427" y="702" on="1"/>
        <pt x="441" y="395" on="1"/>
        <pt x="735" y="395" on="1"/>
        <pt x="735" y="357" on="1"/>
        <pt x="442" y="357" on="1"/>
        <pt x="457" y="38" on="1"/>
        <pt x="777" y="38" on="1"/>
        <pt x="777" y="0" on="1"/>
        <pt x="417" y="0" on="1"/>
        <pt x="407" y="246" on="1"/>
        <pt x="153" y="246" on="1"/>
        <pt x="51" y="0" on="1"/>
        <pt x="12" y="0" on="1"/>
      </contour>
      <contour>
        <pt x="168" y="284" on="1"/>
        <pt x="405" y="284" on="1"/>
        <pt x="388" y="701" on="1"/>
        <pt x="341" y="701" on="1"/>
      </contour>
    </TTGlyph>
    <TTGlyph name="AE.sc" xMin="22" yMin="0" xMax="687" yMax="577">
      <contour>
        <pt x="22" y="5" on="1"/>
        <pt x="281" y="577" on="1"/>
        <pt x="678" y="577" on="1"/>
        <pt x="678" y="541" on="1"/>
        <pt x="388" y="541" on="1"/>
        <pt x="399" y="311" on="1"/>
        <pt x="651" y="311" on="1"/>
        <pt x="651" y="275" on="1"/>
        <pt x="401" y="275" on="1"/>
        <pt x="413" y="36" on="1"/>
        <pt x="687" y="36" on="1"/>
        <pt x="687" y="0" on="1"/>
        <pt x="373" y="0" on="1"/>
        <pt x="365" y="187" on="1"/>
        <pt x="147" y="187" on="1"/>
        <pt x="61" y="0" on="1"/>
        <pt x="22" y="0" on="1"/>
      </contour>
      <contour>
        <pt x="163" y="222" on="1"/>
        <pt x="363" y="222" on="1"/>
        <pt x="349" y="541" on="1"/>
        <pt x="310" y="541" on="1"/>
      </contour>
    </TTGlyph>
    <TTGlyph name="AEacute" xMin="12" yMin="0" xMax="777" yMax="927">
      <contour>
        <pt x="481" y="805" on="1"/>
        <pt x="560" y="927" on="1"/>
        <pt x="604" y="927" on="1"/>
        <pt x="517" y="799" on="1"/>
      </contour>
      <contour>
        <pt x="12" y="6" on="1"/>
        <pt x="313" y="740" on="1"/>
        <pt x="768" y="740" on="1"/>
        <pt x="768" y="702" on="1"/>
        <pt x="427" y="702" on="1"/>
        <pt x="441" y="395" on="1"/>
        <pt x="735" y="395" on="1"/>
        <pt x="735" y="357" on="1"/>
        <pt x="442" y="357" on="1"/>
        <pt x="457" y="38" on="1"/>
        <pt x="777" y="38" on="1"/>
        <pt x="777" y="0" on="1"/>
        <pt x="417" y="0" on="1"/>
        <pt x="407" y="246" on="1"/>
        <pt x="153" y="246" on="1"/>
        <pt x="51" y="0" on="1"/>
        <pt x="12" y="0" on="1"/>
      </contour>
      <contour>
        <pt x="168" y="284" on="1"/>
        <pt x="405" y="284" on="1"/>
        <pt x="388" y="701" on="1"/>
        <pt x="341" y="701" on="1"/>
      </contour>
    </TTGlyph>
    <TTGlyph name="AEacute.sc" xMin="22" yMin="0" xMax="687" yMax="728">
      <contour>
        <pt x="22" y="5" on="1"/>
        <pt x="281" y="577" on="1"/>
        <pt x="678" y="577" on="1"/>
        <pt x="678" y="541" on="1"/>
        <pt x="388" y="541" on="1"/>
        <pt x="399" y="311" on="1"/>
        <pt x="651" y="311" on="1"/>
        <pt x="651" y="275" on="1"/>
        <pt x="401" y="275" on="1"/>
        <pt x="413" y="36" on="1"/>
        <pt x="687" y="36" on="1"/>
        <pt x="687" y="0" on="1"/>
        <pt x="373" y="0" on="1"/>
        <pt x="365" y="187" on="1"/>
        <pt x="147" y="187" on="1"/>
        <pt x="61" y="0" on="1"/>
        <pt x="22" y="0" on="1"/>
      </contour>
      <contour>
        <pt x="363" y="222" on="1"/>
        <pt x="349" y="541" on="1"/>
        <pt x="310" y="541" on="1"/>
        <pt x="163" y="222" on="1"/>
      </contour>
      <contour>
        <pt x="425" y="629" on="1"/>
        <pt x="492" y="728" on="1"/>
        <pt x="536" y="728" on="1"/>
        <pt x="460" y="624" on="1"/>
      </contour>
    </TTGlyph>
    <TTGlyph name="Aacute" xMin="11" yMin="0" xMax="633" yMax="927">
      <contour>
        <pt x="11" y="5" on="1"/>
        <pt x="291" y="740" on="1"/>
        <pt x="354" y="740" on="1"/>
        <pt x="633" y="5" on="1"/>
        <pt x="633" y="0" on="1"/>
        <pt x="592" y="0" on="1"/>
        <pt x="499" y="246" on="1"/>
        <pt x="146" y="246" on="1"/>
        <pt x="52" y="0" on="1"/>
        <pt x="11" y="0" on="1"/>
      </contour>
      <contour>
        <pt x="484" y="284" on="1"/>
        <pt x="369" y="587" on="1"/>
        <pt x="324" y="706" on="1"/>
        <pt x="320" y="706" on="1"/>
        <pt x="275" y="587" on="1"/>
        <pt x="160" y="284" on="1"/>
      </contour>
      <contour>
        <pt x="299" y="805" on="1"/>
        <pt x="378" y="927" on="1"/>
        <pt x="422" y="927" on="1"/>
        <pt x="335" y="799" on="1"/>
      </contour>
    </TTGlyph>
    <TTGlyph name="Aacute.sc" xMin="18" yMin="0" xMax="560" yMax="728">
      <contour>
        <pt x="18" y="4" on="1"/>
        <pt x="258" y="577" on="1"/>
        <pt x="320" y="577" on="1"/>
        <pt x="560" y="4" on="1"/>
        <pt x="560" y="0" on="1"/>
        <pt x="519" y="0" on="1"/>
        <pt x="440" y="187" on="1"/>
        <pt x="138" y="187" on="1"/>
        <pt x="59" y="0" on="1"/>
        <pt x="18" y="0" on="1"/>
      </contour>
      <contour>
        <pt x="426" y="223" on="1"/>
        <pt x="330" y="452" on="1"/>
        <pt x="291" y="546" on="1"/>
        <pt x="286" y="546" on="1"/>
        <pt x="248" y="452" on="1"/>
        <pt x="151" y="223" on="1"/>
      </contour>
      <contour>
        <pt x="268" y="629" on="1"/>
        <pt x="334" y="728" on="1"/>
        <pt x="377" y="728" on="1"/>
        <pt x="302" y="624" on="1"/>
      </contour>
    </TTGlyph>
    <TTGlyph name="Abreve" xMin="11" yMin="0" xMax="633" yMax="950">
      <contour>
        <pt x="11" y="5" on="1"/>
        <pt x="291" y="740" on="1"/>
        <pt x="354" y="740" on="1"/>
        <pt x="633" y="5" on="1"/>
        <pt x="633" y="0" on="1"/>
        <pt x="592" y="0" on="1"/>
        <pt x="499" y="246" on="1"/>
        <pt x="146" y="246" on="1"/>
        <pt x="52" y="0" on="1"/>
        <pt x="11" y="0" on="1"/>
      </contour>
      <contour>
        <pt x="484" y="284" on="1"/>
        <pt x="369" y="587" on="1"/>
        <pt x="324" y="706" on="1"/>
        <pt x="320" y="706" on="1"/>
        <pt x="275" y="587" on="1"/>
        <pt x="160" y="284" on="1"/>
      </contour>
      <contour>
        <pt x="324" y="816" on="1"/>
        <pt x="248" y="816" on="0"/>
        <pt x="163" y="887" on="0"/>
        <pt x="163" y="950" on="1"/>
        <pt x="201" y="950" on="1"/>
        <pt x="201" y="904" on="0"/>
        <pt x="266" y="852" on="0"/>
        <pt x="324" y="852" on="1"/>
        <pt x="381" y="852" on="0"/>
        <pt x="446" y="904" on="0"/>
        <pt x="446" y="950" on="1"/>
        <pt x="484" y="950" on="1"/>
        <pt x="484" y="887" on="0"/>
        <pt x="399" y="816" on="0"/>
      </contour>
    </TTGlyph>
    <TTGlyph name="Abreve.sc" xMin="18" yMin="0" xMax="560" yMax="743">
      <contour>
        <pt x="290" y="635" on="1"/>
        <pt x="223" y="635" on="0"/>
        <pt x="149" y="693" on="0"/>
        <pt x="149" y="743" on="1"/>
        <pt x="185" y="743" on="1"/>
        <pt x="185" y="707" on="0"/>
        <pt x="239" y="667" on="0"/>
        <pt x="290" y="667" on="1"/>
        <pt x="340" y="667" on="0"/>
        <pt x="395" y="707" on="0"/>
        <pt x="395" y="743" on="1"/>
        <pt x="430" y="743" on="1"/>
        <pt x="430" y="693" on="0"/>
        <pt x="356" y="635" on="0"/>
      </contour>
      <contour>
        <pt x="18" y="4" on="1"/>
        <pt x="258" y="577" on="1"/>
        <pt x="320" y="577" on="1"/>
        <pt x="560" y="4" on="1"/>
        <pt x="560" y="0" on="1"/>
        <pt x="519" y="0" on="1"/>
        <pt x="440" y="187" on="1"/>
        <pt x="138" y="187" on="1"/>
        <pt x="59" y="0" on="1"/>
        <pt x="18" y="0" on="1"/>
      </contour>
      <contour>
        <pt x="426" y="223" on="1"/>
        <pt x="330" y="452" on="1"/>
        <pt x="291" y="546" on="1"/>
        <pt x="286" y="546" on="1"/>
        <pt x="248" y="452" on="1"/>
        <pt x="151" y="223" on="1"/>
      </contour>
    </TTGlyph>
    <TTGlyph name="Acircumflex" xMin="11" yMin="0" xMax="633" yMax="935">
      <contour>
        <pt x="11" y="5" on="1"/>
        <pt x="291" y="740" on="1"/>
        <pt x="354" y="740" on="1"/>
        <pt x="633" y="5" on="1"/>
        <pt x="633" y="0" on="1"/>
        <pt x="592" y="0" on="1"/>
        <pt x="499" y="246" on="1"/>
        <pt x="146" y="246" on="1"/>
        <pt x="52" y="0" on="1"/>
        <pt x="11" y="0" on="1"/>
      </contour>
      <contour>
        <pt x="484" y="284" on="1"/>
        <pt x="369" y="587" on="1"/>
        <pt x="324" y="706" on="1"/>
        <pt x="320" y="706" on="1"/>
        <pt x="275" y="587" on="1"/>
        <pt x="160" y="284" on="1"/>
      </contour>
      <contour>
        <pt x="177" y="862" on="1"/>
        <pt x="323" y="935" on="1"/>
        <pt x="469" y="862" on="1"/>
        <pt x="469" y="818" on="1"/>
        <pt x="323" y="890" on="1"/>
        <pt x="177" y="818" on="1"/>
      </contour>
    </TTGlyph>
    <TTGlyph name="Acircumflex.sc" xMin="18" yMin="0" xMax="560" yMax="733">
      <contour>
        <pt x="18" y="4" on="1"/>
        <pt x="258" y="577" on="1"/>
        <pt x="320" y="577" on="1"/>
        <pt x="560" y="4" on="1"/>
        <pt x="560" y="0" on="1"/>
        <pt x="519" y="0" on="1"/>
        <pt x="440" y="187" on="1"/>
        <pt x="138" y="187" on="1"/>
        <pt x="59" y="0" on="1"/>
        <pt x="18" y="0" on="1"/>
      </contour>
      <contour>
        <pt x="426" y="223" on="1"/>
        <pt x="330" y="452" on="1"/>
        <pt x="291" y="546" on="1"/>
        <pt x="286" y="546" on="1"/>
        <pt x="248" y="452" on="1"/>
        <pt x="151" y="223" on="1"/>
      </contour>
      <contour>
        <pt x="162" y="676" on="1"/>
        <pt x="290" y="733" on="1"/>
        <pt x="418" y="676" on="1"/>
        <pt x="418" y="637" on="1"/>
        <pt x="290" y="693" on="1"/>
        <pt x="162" y="637" on="1"/>
      </contour>
    </TTGlyph>
    <TTGlyph name="Adblgrave" xMin="11" yMin="0" xMax="633" yMax="920">
      <contour>
        <pt x="11" y="5" on="1"/>
        <pt x="291" y="740" on="1"/>
        <pt x="354" y="740" on="1"/>
        <pt x="633" y="5" on="1"/>
        <pt x="633" y="0" on="1"/>
        <pt x="592" y="0" on="1"/>
        <pt x="499" y="246" on="1"/>
        <pt x="146" y="246" on="1"/>
        <pt x="52" y="0" on="1"/>
        <pt x="11" y="0" on="1"/>
      </contour>
      <contour>
        <pt x="484" y="284" on="1"/>
        <pt x="369" y="587" on="1"/>
        <pt x="324" y="706" on="1"/>
        <pt x="320" y="706" on="1"/>
        <pt x="275" y="587" on="1"/>
        <pt x="160" y="284" on="1"/>
      </contour>
      <contour>
        <pt x="242" y="792" on="1"/>
        <pt x="155" y="920" on="1"/>
        <pt x="199" y="920" on="1"/>
        <pt x="277" y="806" on="1"/>
      </contour>
      <contour>
        <pt x="372" y="792" on="1"/>
        <pt x="286" y="920" on="1"/>
        <pt x="330" y="920" on="1"/>
        <pt x="408" y="806" on="1"/>
      </contour>
    </TTGlyph>
    <TTGlyph name="Adblgrave.sc" xMin="18" yMin="0" xMax="560" yMax="722">
      <contour>
        <pt x="18" y="4" on="1"/>
        <pt x="258" y="577" on="1"/>
        <pt x="320" y="577" on="1"/>
        <pt x="560" y="4" on="1"/>
        <pt x="560" y="0" on="1"/>
        <pt x="519" y="0" on="1"/>
        <pt x="440" y="187" on="1"/>
        <pt x="138" y="187" on="1"/>
        <pt x="59" y="0" on="1"/>
        <pt x="18" y="0" on="1"/>
      </contour>
      <contour>
        <pt x="426" y="223" on="1"/>
        <pt x="330" y="452" on="1"/>
        <pt x="291" y="546" on="1"/>
        <pt x="286" y="546" on="1"/>
        <pt x="248" y="452" on="1"/>
        <pt x="151" y="223" on="1"/>
      </contour>
      <contour>
        <pt x="141" y="722" on="1"/>
        <pt x="184" y="722" on="1"/>
        <pt x="250" y="629" on="1"/>
        <pt x="216" y="618" on="1"/>
      </contour>
      <contour>
        <pt x="256" y="722" on="1"/>
        <pt x="298" y="722" on="1"/>
        <pt x="365" y="629" on="1"/>
        <pt x="331" y="618" on="1"/>
      </contour>
    </TTGlyph>
    <TTGlyph name="Adieresis" xMin="11" yMin="0" xMax="633" yMax="897">
      <contour>
        <pt x="11" y="5" on="1"/>
        <pt x="291" y="740" on="1"/>
        <pt x="354" y="740" on="1"/>
        <pt x="633" y="5" on="1"/>
        <pt x="633" y="0" on="1"/>
        <pt x="592" y="0" on="1"/>
        <pt x="499" y="246" on="1"/>
        <pt x="146" y="246" on="1"/>
        <pt x="52" y="0" on="1"/>
        <pt x="11" y="0" on="1"/>
      </contour>
      <contour>
        <pt x="484" y="284" on="1"/>
        <pt x="369" y="587" on="1"/>
        <pt x="324" y="706" on="1"/>
        <pt x="320" y="706" on="1"/>
        <pt x="275" y="587" on="1"/>
        <pt x="160" y="284" on="1"/>
      </contour>
      <contour>
        <pt x="201" y="828" on="1"/>
        <pt x="186" y="828" on="0"/>
        <pt x="166" y="844" on="0"/>
        <pt x="166" y="863" on="1"/>
        <pt x="166" y="881" on="0"/>
        <pt x="186" y="897" on="0"/>
        <pt x="201" y="897" on="1"/>
        <pt x="215" y="897" on="0"/>
        <pt x="237" y="881" on="0"/>
        <pt x="237" y="863" on="1"/>
        <pt x="237" y="844" on="0"/>
        <pt x="215" y="828" on="0"/>
      </contour>
      <contour>
        <pt x="444" y="828" on="1"/>
        <pt x="429" y="828" on="0"/>
        <pt x="409" y="844" on="0"/>
        <pt x="409" y="863" on="1"/>
        <pt x="409" y="881" on="0"/>
        <pt x="429" y="897" on="0"/>
        <pt x="444" y="897" on="1"/>
        <pt x="458" y="897" on="0"/>
        <pt x="480" y="881" on="0"/>
        <pt x="480" y="863" on="1"/>
        <pt x="480" y="844" on="0"/>
        <pt x="458" y="828" on="0"/>
      </contour>
    </TTGlyph>
    <TTGlyph name="Adieresis.sc" xMin="18" yMin="0" xMax="560" yMax="707">
      <contour>
        <pt x="182" y="645" on="1"/>
        <pt x="151" y="645" on="0"/>
        <pt x="151" y="676" on="1"/>
        <pt x="151" y="707" on="0"/>
        <pt x="182" y="707" on="1"/>
        <pt x="196" y="707" on="0"/>
        <pt x="216" y="693" on="0"/>
        <pt x="216" y="676" on="1"/>
        <pt x="216" y="659" on="0"/>
        <pt x="196" y="645" on="0"/>
      </contour>
      <contour>
        <pt x="396" y="645" on="1"/>
        <pt x="382" y="645" on="0"/>
        <pt x="363" y="660" on="0"/>
        <pt x="363" y="676" on="1"/>
        <pt x="363" y="692" on="0"/>
        <pt x="382" y="707" on="0"/>
        <pt x="396" y="707" on="1"/>
        <pt x="410" y="707" on="0"/>
        <pt x="429" y="693" on="0"/>
        <pt x="429" y="676" on="1"/>
        <pt x="429" y="659" on="0"/>
        <pt x="410" y="645" on="0"/>
      </contour>
      <contour>
        <pt x="18" y="4" on="1"/>
        <pt x="258" y="577" on="1"/>
        <pt x="320" y="577" on="1"/>
        <pt x="560" y="4" on="1"/>
        <pt x="560" y="0" on="1"/>
        <pt x="519" y="0" on="1"/>
        <pt x="440" y="187" on="1"/>
        <pt x="138" y="187" on="1"/>
        <pt x="59" y="0" on="1"/>
        <pt x="18" y="0" on="1"/>
      </contour>
      <contour>
        <pt x="426" y="223" on="1"/>
        <pt x="330" y="452" on="1"/>
        <pt x="291" y="546" on="1"/>
        <pt x="286" y="546" on="1"/>
        <pt x="248" y="452" on="1"/>
        <pt x="151" y="223" on="1"/>
      </contour>
    </TTGlyph>
    <TTGlyph name="Agrave" xMin="11" yMin="0" xMax="633" yMax="927">
      <contour>
        <pt x="11" y="5" on="1"/>
        <pt x="291" y="740" on="1"/>
        <pt x="354" y="740" on="1"/>
        <pt x="633" y="5" on="1"/>
        <pt x="633" y="0" on="1"/>
        <pt x="592" y="0" on="1"/>
        <pt x="499" y="246" on="1"/>
        <pt x="146" y="246" on="1"/>
        <pt x="52" y="0" on="1"/>
        <pt x="11" y="0" on="1"/>
      </contour>
      <contour>
        <pt x="484" y="284" on="1"/>
        <pt x="369" y="587" on="1"/>
        <pt x="324" y="706" on="1"/>
        <pt x="320" y="706" on="1"/>
        <pt x="275" y="587" on="1"/>
        <pt x="160" y="284" on="1"/>
      </contour>
      <contour>
        <pt x="307" y="799" on="1"/>
        <pt x="221" y="927" on="1"/>
        <pt x="265" y="927" on="1"/>
        <pt x="343" y="813" on="1"/>
      </contour>
    </TTGlyph>
    <TTGlyph name="Agrave.sc" xMin="18" yMin="0" xMax="560" yMax="728">
      <contour>
        <pt x="18" y="4" on="1"/>
        <pt x="258" y="577" on="1"/>
        <pt x="320" y="577" on="1"/>
        <pt x="560" y="4" on="1"/>
        <pt x="560" y="0" on="1"/>
        <pt x="519" y="0" on="1"/>
        <pt x="440" y="187" on="1"/>
        <pt x="138" y="187" on="1"/>
        <pt x="59" y="0" on="1"/>
        <pt x="18" y="0" on="1"/>
      </contour>
      <contour>
        <pt x="426" y="223" on="1"/>
        <pt x="330" y="452" on="1"/>
        <pt x="291" y="546" on="1"/>
        <pt x="286" y="546" on="1"/>
        <pt x="248" y="452" on="1"/>
        <pt x="151" y="223" on="1"/>
      </contour>
      <contour>
        <pt x="274" y="624" on="1"/>
        <pt x="199" y="728" on="1"/>
        <pt x="242" y="728" on="1"/>
        <pt x="308" y="635" on="1"/>
      </contour>
    </TTGlyph>
    <TTGlyph name="Ainvertedbreve" xMin="11" yMin="0" xMax="633" yMax="952">
      <contour>
        <pt x="11" y="5" on="1"/>
        <pt x="291" y="740" on="1"/>
        <pt x="354" y="740" on="1"/>
        <pt x="633" y="5" on="1"/>
        <pt x="633" y="0" on="1"/>
        <pt x="592" y="0" on="1"/>
        <pt x="499" y="246" on="1"/>
        <pt x="146" y="246" on="1"/>
        <pt x="52" y="0" on="1"/>
        <pt x="11" y="0" on="1"/>
      </contour>
      <contour>
        <pt x="484" y="284" on="1"/>
        <pt x="369" y="587" on="1"/>
        <pt x="324" y="706" on="1"/>
        <pt x="320" y="706" on="1"/>
        <pt x="275" y="587" on="1"/>
        <pt x="160" y="284" on="1"/>
      </contour>
      <contour>
        <pt x="445" y="818" on="1"/>
        <pt x="445" y="864" on="0"/>
        <pt x="380" y="916" on="0"/>
        <pt x="323" y="916" on="1"/>
        <pt x="265" y="916" on="0"/>
        <pt x="200" y="864" on="0"/>
        <pt x="200" y="818" on="1"/>
        <pt x="162" y="818" on="1"/>
        <pt x="162" y="881" on="0"/>
        <pt x="247" y="952" on="0"/>
        <pt x="323" y="952" on="1"/>
        <pt x="398" y="952" on="0"/>
        <pt x="483" y="881" on="0"/>
        <pt x="483" y="818" on="1"/>
      </contour>
    </TTGlyph>
    <TTGlyph name="Ainvertedbreve.sc" xMin="18" yMin="0" xMax="560" yMax="745">
      <contour>
        <pt x="149" y="638" on="1"/>
        <pt x="149" y="687" on="0"/>
        <pt x="223" y="745" on="0"/>
        <pt x="289" y="745" on="1"/>
        <pt x="356" y="745" on="0"/>
        <pt x="429" y="688" on="0"/>
        <pt x="429" y="638" on="1"/>
        <pt x="394" y="638" on="1"/>
        <pt x="394" y="674" on="0"/>
        <pt x="339" y="714" on="0"/>
        <pt x="289" y="714" on="1"/>
        <pt x="239" y="714" on="0"/>
        <pt x="184" y="674" on="0"/>
        <pt x="184" y="638" on="1"/>
      </contour>
      <contour>
        <pt x="18" y="4" on="1"/>
        <pt x="258" y="577" on="1"/>
        <pt x="320" y="577" on="1"/>
        <pt x="560" y="4" on="1"/>
        <pt x="560" y="0" on="1"/>
        <pt x="519" y="0" on="1"/>
        <pt x="440" y="187" on="1"/>
        <pt x="138" y="187" on="1"/>
        <pt x="59" y="0" on="1"/>
        <pt x="18" y="0" on="1"/>
      </contour>
      <contour>
        <pt x="426" y="223" on="1"/>
        <pt x="330" y="452" on="1"/>
        <pt x="291" y="546" on="1"/>
        <pt x="286" y="546" on="1"/>
        <pt x="248" y="452" on="1"/>
        <pt x="151" y="223" on="1"/>
      </contour>
    </TTGlyph>
    <TTGlyph name="Amacron" xMin="11" yMin="0" xMax="633" yMax="879">
      <contour>
        <pt x="11" y="5" on="1"/>
        <pt x="291" y="740" on="1"/>
        <pt x="354" y="740" on="1"/>
        <pt x="633" y="5" on="1"/>
        <pt x="633" y="0" on="1"/>
        <pt x="592" y="0" on="1"/>
        <pt x="499" y="246" on="1"/>
        <pt x="146" y="246" on="1"/>
        <pt x="52" y="0" on="1"/>
        <pt x="11" y="0" on="1"/>
      </contour>
      <contour>
        <pt x="484" y="284" on="1"/>
        <pt x="369" y="587" on="1"/>
        <pt x="324" y="706" on="1"/>
        <pt x="320" y="706" on="1"/>
        <pt x="275" y="587" on="1"/>
        <pt x="160" y="284" on="1"/>
      </contour>
      <contour>
        <pt x="181" y="879" on="1"/>
        <pt x="462" y="879" on="1"/>
        <pt x="462" y="842" on="1"/>
        <pt x="181" y="842" on="1"/>
      </contour>
    </TTGlyph>
    <TTGlyph name="Amacron.sc" xMin="18" yMin="0" xMax="560" yMax="691">
      <contour>
        <pt x="18" y="4" on="1"/>
        <pt x="258" y="577" on="1"/>
        <pt x="320" y="577" on="1"/>
        <pt x="560" y="4" on="1"/>
        <pt x="560" y="0" on="1"/>
        <pt x="519" y="0" on="1"/>
        <pt x="440" y="187" on="1"/>
        <pt x="138" y="187" on="1"/>
        <pt x="59" y="0" on="1"/>
        <pt x="18" y="0" on="1"/>
      </contour>
      <contour>
        <pt x="426" y="223" on="1"/>
        <pt x="330" y="452" on="1"/>
        <pt x="291" y="546" on="1"/>
        <pt x="286" y="546" on="1"/>
        <pt x="248" y="452" on="1"/>
        <pt x="151" y="223" on="1"/>
      </contour>
      <contour>
        <pt x="165" y="691" on="1"/>
        <pt x="412" y="691" on="1"/>
        <pt x="412" y="657" on="1"/>
        <pt x="165" y="657" on="1"/>
      </contour>
    </TTGlyph>
    <TTGlyph name="Aogonek" xMin="11" yMin="-220" xMax="633" yMax="740">
      <contour>
        <pt x="564" y="-220" on="1"/>
        <pt x="481" y="-220" on="0"/>
        <pt x="481" y="-144" on="1"/>
        <pt x="481" y="-124" on="0"/>
        <pt x="493" y="-89" on="0"/>
        <pt x="520" y="-55" on="0"/>
        <pt x="566" y="-20" on="0"/>
        <pt x="599" y="0" on="1"/>
        <pt x="592" y="0" on="1"/>
        <pt x="499" y="246" on="1"/>
        <pt x="146" y="246" on="1"/>
        <pt x="52" y="0" on="1"/>
        <pt x="11" y="0" on="1"/>
        <pt x="11" y="5" on="1"/>
        <pt x="291" y="740" on="1"/>
        <pt x="354" y="740" on="1"/>
        <pt x="633" y="5" on="1"/>
        <pt x="633" y="-22" on="1"/>
        <pt x="571" y="-52" on="0"/>
        <pt x="518" y="-108" on="0"/>
        <pt x="518" y="-143" on="1"/>
        <pt x="518" y="-166" on="0"/>
        <pt x="543" y="-187" on="0"/>
        <pt x="572" y="-187" on="1"/>
        <pt x="601" y="-187" on="0"/>
        <pt x="631" y="-177" on="1"/>
        <pt x="631" y="-208" on="1"/>
        <pt x="617" y="-213" on="0"/>
        <pt x="582" y="-220" on="0"/>
      </contour>
      <contour>
        <pt x="484" y="284" on="1"/>
        <pt x="369" y="587" on="1"/>
        <pt x="324" y="706" on="1"/>
        <pt x="320" y="706" on="1"/>
        <pt x="275" y="587" on="1"/>
        <pt x="160" y="284" on="1"/>
      </contour>
    </TTGlyph>
    <TTGlyph name="Aogonek.sc" xMin="17" yMin="-169" xMax="559" yMax="577">
      <contour>
        <pt x="499" y="-169" on="1"/>
        <pt x="425" y="-169" on="0"/>
        <pt x="425" y="-108" on="1"/>
        <pt x="425" y="-93" on="0"/>
        <pt x="434" y="-67" on="0"/>
        <pt x="456" y="-42" on="0"/>
        <pt x="492" y="-16" on="0"/>
        <pt x="519" y="0" on="1"/>
        <pt x="517" y="0" on="1"/>
        <pt x="439" y="187" on="1"/>
        <pt x="137" y="187" on="1"/>
        <pt x="58" y="0" on="1"/>
        <pt x="17" y="0" on="1"/>
        <pt x="17" y="4" on="1"/>
        <pt x="257" y="577" on="1"/>
        <pt x="319" y="577" on="1"/>
        <pt x="559" y="4" on="1"/>
        <pt x="559" y="-14" on="1"/>
        <pt x="513" y="-33" on="0"/>
        <pt x="460" y="-77" on="0"/>
        <pt x="460" y="-106" on="1"/>
        <pt x="460" y="-125" on="0"/>
        <pt x="483" y="-139" on="0"/>
        <pt x="504" y="-139" on="1"/>
        <pt x="531" y="-139" on="0"/>
        <pt x="557" y="-131" on="1"/>
        <pt x="557" y="-159" on="1"/>
        <pt x="532" y="-169" on="0"/>
      </contour>
      <contour>
        <pt x="425" y="223" on="1"/>
        <pt x="329" y="456" on="1"/>
        <pt x="290" y="546" on="1"/>
        <pt x="285" y="546" on="1"/>
        <pt x="247" y="455" on="1"/>
        <pt x="149" y="223" on="1"/>
      </contour>
    </TTGlyph>
    <TTGlyph name="Aring" xMin="11" yMin="0" xMax="633" yMax="991">
      <contour>
        <pt x="11" y="5" on="1"/>
        <pt x="291" y="740" on="1"/>
        <pt x="354" y="740" on="1"/>
        <pt x="633" y="5" on="1"/>
        <pt x="633" y="0" on="1"/>
        <pt x="592" y="0" on="1"/>
        <pt x="499" y="246" on="1"/>
        <pt x="146" y="246" on="1"/>
        <pt x="52" y="0" on="1"/>
        <pt x="11" y="0" on="1"/>
      </contour>
      <contour>
        <pt x="484" y="284" on="1"/>
        <pt x="369" y="587" on="1"/>
        <pt x="324" y="706" on="1"/>
        <pt x="320" y="706" on="1"/>
        <pt x="275" y="587" on="1"/>
        <pt x="160" y="284" on="1"/>
      </contour>
      <contour>
        <pt x="325" y="781" on="1"/>
        <pt x="275" y="781" on="0"/>
        <pt x="212" y="840" on="0"/>
        <pt x="212" y="885" on="1"/>
        <pt x="212" y="907" on="0"/>
        <pt x="229" y="946" on="0"/>
        <pt x="259" y="975" on="0"/>
        <pt x="300" y="991" on="0"/>
        <pt x="325" y="991" on="1"/>
        <pt x="374" y="991" on="0"/>
        <pt x="436" y="930" on="0"/>
        <pt x="436" y="885" on="1"/>
        <pt x="436" y="840" on="0"/>
        <pt x="374" y="781" on="0"/>
      </contour>
      <contour>
        <pt x="325" y="816" on="1"/>
        <pt x="360" y="816" on="0"/>
        <pt x="400" y="853" on="0"/>
        <pt x="400" y="885" on="1"/>
        <pt x="400" y="917" on="0"/>
        <pt x="360" y="956" on="0"/>
        <pt x="325" y="956" on="1"/>
        <pt x="289" y="956" on="0"/>
        <pt x="248" y="917" on="0"/>
        <pt x="248" y="885" on="1"/>
        <pt x="248" y="853" on="0"/>
        <pt x="289" y="816" on="0"/>
      </contour>
    </TTGlyph>
    <TTGlyph name="Aring.sc" xMin="18" yMin="0" xMax="560" yMax="792">
      <contour>
        <pt x="18" y="4" on="1"/>
        <pt x="258" y="577" on="1"/>
        <pt x="320" y="577" on="1"/>
        <pt x="560" y="4" on="1"/>
        <pt x="560" y="0" on="1"/>
        <pt x="519" y="0" on="1"/>
        <pt x="440" y="187" on="1"/>
        <pt x="138" y="187" on="1"/>
        <pt x="59" y="0" on="1"/>
        <pt x="18" y="0" on="1"/>
      </contour>
      <contour>
        <pt x="426" y="223" on="1"/>
        <pt x="330" y="452" on="1"/>
        <pt x="291" y="546" on="1"/>
        <pt x="286" y="546" on="1"/>
        <pt x="248" y="452" on="1"/>
        <pt x="151" y="223" on="1"/>
      </contour>
      <contour>
        <pt x="290" y="626" on="1"/>
        <pt x="247" y="626" on="0"/>
        <pt x="192" y="673" on="0"/>
        <pt x="192" y="708" on="1"/>
        <pt x="192" y="743" on="0"/>
        <pt x="247" y="792" on="0"/>
        <pt x="290" y="792" on="1"/>
        <pt x="333" y="792" on="0"/>
        <pt x="387" y="743" on="0"/>
        <pt x="387" y="708" on="1"/>
        <pt x="387" y="673" on="0"/>
        <pt x="333" y="626" on="0"/>
      </contour>
      <contour>
        <pt x="290" y="655" on="1"/>
        <pt x="321" y="655" on="0"/>
        <pt x="355" y="684" on="0"/>
        <pt x="355" y="708" on="1"/>
        <pt x="355" y="733" on="0"/>
        <pt x="321" y="763" on="0"/>
        <pt x="290" y="763" on="1"/>
        <pt x="259" y="763" on="0"/>
        <pt x="224" y="733" on="0"/>
        <pt x="224" y="708" on="1"/>
        <pt x="224" y="684" on="0"/>
        <pt x="259" y="655" on="0"/>
      </contour>
    </TTGlyph>
    <TTGlyph name="Aringacute" xMin="12" yMin="0" xMax="634" yMax="950">
      <contour>
        <pt x="12" y="5" on="1"/>
        <pt x="260" y="655" on="1"/>
        <pt x="235" y="669" on="0"/>
        <pt x="206" y="716" on="0"/>
        <pt x="206" y="746" on="1"/>
        <pt x="206" y="788" on="0"/>
        <pt x="259" y="846" on="0"/>
        <pt x="304" y="851" on="1"/>
        <pt x="372" y="950" on="1"/>
        <pt x="416" y="950" on="1"/>
        <pt x="348" y="849" on="1"/>
        <pt x="387" y="841" on="0"/>
        <pt x="435" y="784" on="0"/>
        <pt x="435" y="746" on="1"/>
        <pt x="435" y="717" on="0"/>
        <pt x="408" y="672" on="0"/>
        <pt x="385" y="658" on="1"/>
        <pt x="634" y="5" on="1"/>
        <pt x="634" y="0" on="1"/>
        <pt x="593" y="0" on="1"/>
        <pt x="500" y="246" on="1"/>
        <pt x="147" y="246" on="1"/>
        <pt x="53" y="0" on="1"/>
        <pt x="12" y="0" on="1"/>
      </contour>
      <contour>
        <pt x="321" y="676" on="1"/>
        <pt x="356" y="676" on="0"/>
        <pt x="398" y="714" on="0"/>
        <pt x="398" y="746" on="1"/>
        <pt x="398" y="778" on="0"/>
        <pt x="357" y="816" on="0"/>
        <pt x="321" y="816" on="1"/>
        <pt x="285" y="816" on="0"/>
        <pt x="244" y="778" on="0"/>
        <pt x="244" y="746" on="1"/>
        <pt x="244" y="714" on="0"/>
        <pt x="286" y="676" on="0"/>
      </contour>
      <contour>
        <pt x="485" y="284" on="1"/>
        <pt x="370" y="587" on="1"/>
        <pt x="349" y="642" on="1"/>
        <pt x="297" y="642" on="1"/>
        <pt x="276" y="587" on="1"/>
        <pt x="161" y="284" on="1"/>
      </contour>
    </TTGlyph>
    <TTGlyph name="Aringacute.sc" xMin="19" yMin="0" xMax="560" yMax="747">
      <contour>
        <pt x="19" y="4" on="1"/>
        <pt x="232" y="513" on="1"/>
        <pt x="210" y="524" on="0"/>
        <pt x="186" y="561" on="0"/>
        <pt x="186" y="584" on="1"/>
        <pt x="186" y="617" on="0"/>
        <pt x="233" y="663" on="0"/>
        <pt x="272" y="668" on="1"/>
        <pt x="330" y="747" on="1"/>
        <pt x="372" y="747" on="1"/>
        <pt x="313" y="666" on="1"/>
        <pt x="348" y="659" on="0"/>
        <pt x="389" y="615" on="0"/>
        <pt x="389" y="584" on="1"/>
        <pt x="389" y="561" on="0"/>
        <pt x="366" y="526" on="0"/>
        <pt x="346" y="515" on="1"/>
        <pt x="560" y="4" on="1"/>
        <pt x="560" y="0" on="1"/>
        <pt x="520" y="0" on="1"/>
        <pt x="441" y="187" on="1"/>
        <pt x="138" y="187" on="1"/>
        <pt x="59" y="0" on="1"/>
        <pt x="19" y="0" on="1"/>
      </contour>
      <contour>
        <pt x="288" y="530" on="1"/>
        <pt x="319" y="530" on="0"/>
        <pt x="354" y="559" on="0"/>
        <pt x="354" y="584" on="1"/>
        <pt x="354" y="609" on="0"/>
        <pt x="319" y="638" on="0"/>
        <pt x="288" y="638" on="1"/>
        <pt x="257" y="638" on="0"/>
        <pt x="221" y="609" on="0"/>
        <pt x="221" y="584" on="1"/>
        <pt x="221" y="559" on="0"/>
        <pt x="257" y="530" on="0"/>
      </contour>
      <contour>
        <pt x="427" y="223" on="1"/>
        <pt x="331" y="452" on="1"/>
        <pt x="311" y="500" on="1"/>
        <pt x="268" y="499" on="1"/>
        <pt x="249" y="452" on="1"/>
        <pt x="151" y="223" on="1"/>
      </contour>
    </TTGlyph>
    <TTGlyph name="Atilde" xMin="11" yMin="0" xMax="633" yMax="913">
      <contour>
        <pt x="11" y="5" on="1"/>
        <pt x="291" y="740" on="1"/>
        <pt x="354" y="740" on="1"/>
        <pt x="633" y="5" on="1"/>
        <pt x="633" y="0" on="1"/>
        <pt x="592" y="0" on="1"/>
        <pt x="499" y="246" on="1"/>
        <pt x="146" y="246" on="1"/>
        <pt x="52" y="0" on="1"/>
        <pt x="11" y="0" on="1"/>
      </contour>
      <contour>
        <pt x="484" y="284" on="1"/>
        <pt x="369" y="587" on="1"/>
        <pt x="324" y="706" on="1"/>
        <pt x="320" y="706" on="1"/>
        <pt x="275" y="587" on="1"/>
        <pt x="160" y="284" on="1"/>
      </contour>
      <contour>
        <pt x="148" y="863" on="1"/>
        <pt x="173" y="887" on="0"/>
        <pt x="227" y="913" on="0"/>
        <pt x="256" y="913" on="1"/>
        <pt x="279" y="913" on="0"/>
        <pt x="317" y="900" on="0"/>
        <pt x="353" y="883" on="0"/>
        <pt x="388" y="870" on="0"/>
        <pt x="409" y="870" on="1"/>
        <pt x="455" y="870" on="0"/>
        <pt x="494" y="909" on="1"/>
        <pt x="519" y="885" on="1"/>
        <pt x="497" y="862" on="0"/>
        <pt x="438" y="834" on="0"/>
        <pt x="406" y="834" on="1"/>
        <pt x="386" y="834" on="0"/>
        <pt x="348" y="847" on="0"/>
        <pt x="311" y="863" on="0"/>
        <pt x="275" y="876" on="0"/>
        <pt x="256" y="876" on="1"/>
        <pt x="235" y="876" on="0"/>
        <pt x="192" y="858" on="0"/>
        <pt x="172" y="839" on="1"/>
      </contour>
    </TTGlyph>
    <TTGlyph name="Atilde.sc" xMin="18" yMin="0" xMax="560" yMax="717">
      <contour>
        <pt x="18" y="4" on="1"/>
        <pt x="258" y="577" on="1"/>
        <pt x="320" y="577" on="1"/>
        <pt x="560" y="4" on="1"/>
        <pt x="560" y="0" on="1"/>
        <pt x="519" y="0" on="1"/>
        <pt x="440" y="187" on="1"/>
        <pt x="138" y="187" on="1"/>
        <pt x="59" y="0" on="1"/>
        <pt x="18" y="0" on="1"/>
      </contour>
      <contour>
        <pt x="426" y="223" on="1"/>
        <pt x="330" y="452" on="1"/>
        <pt x="291" y="546" on="1"/>
        <pt x="286" y="546" on="1"/>
        <pt x="248" y="452" on="1"/>
        <pt x="151" y="223" on="1"/>
      </contour>
      <contour>
        <pt x="136" y="673" on="1"/>
        <pt x="158" y="694" on="0"/>
        <pt x="207" y="717" on="0"/>
        <pt x="232" y="717" on="1"/>
        <pt x="251" y="717" on="0"/>
        <pt x="285" y="707" on="0"/>
        <pt x="316" y="694" on="0"/>
        <pt x="347" y="684" on="0"/>
        <pt x="365" y="684" on="1"/>
        <pt x="404" y="684" on="0"/>
        <pt x="441" y="713" on="1"/>
        <pt x="462" y="695" on="1"/>
        <pt x="442" y="674" on="0"/>
        <pt x="389" y="650" on="0"/>
        <pt x="361" y="650" on="1"/>
        <pt x="344" y="650" on="0"/>
        <pt x="311" y="660" on="0"/>
        <pt x="279" y="673" on="0"/>
        <pt x="247" y="683" on="0"/>
        <pt x="231" y="683" on="1"/>
        <pt x="190" y="683" on="0"/>
        <pt x="157" y="654" on="1"/>
      </contour>
    </TTGlyph>
    <TTGlyph name="B" xMin="99" yMin="-10" xMax="580" yMax="749">
      <contour>
        <pt x="307" y="-10" on="1"/>
        <pt x="261" y="-10" on="0"/>
        <pt x="153" y="-3" on="0"/>
        <pt x="99" y="5" on="1"/>
        <pt x="99" y="735" on="1"/>
        <pt x="168" y="743" on="0"/>
        <pt x="260" y="749" on="0"/>
        <pt x="302" y="749" on="1"/>
        <pt x="370" y="749" on="0"/>
        <pt x="466" y="727" on="0"/>
        <pt x="528" y="679" on="0"/>
        <pt x="556" y="605" on="0"/>
        <pt x="556" y="553" on="1"/>
        <pt x="556" y="518" on="0"/>
        <pt x="538" y="459" on="0"/>
        <pt x="504" y="413" on="0"/>
        <pt x="456" y="383" on="0"/>
        <pt x="427" y="378" on="1"/>
        <pt x="427" y="374" on="1"/>
        <pt x="502" y="360" on="0"/>
        <pt x="580" y="267" on="0"/>
        <pt x="580" y="191" on="1"/>
        <pt x="580" y="91" on="0"/>
        <pt x="443" y="-10" on="0"/>
      </contour>
      <contour>
        <pt x="307" y="27" on="1"/>
        <pt x="426" y="27" on="0"/>
        <pt x="539" y="107" on="0"/>
        <pt x="539" y="191" on="1"/>
        <pt x="539" y="275" on="0"/>
        <pt x="434" y="356" on="0"/>
        <pt x="324" y="356" on="1"/>
        <pt x="138" y="356" on="1"/>
        <pt x="138" y="38" on="1"/>
        <pt x="165" y="33" on="0"/>
        <pt x="256" y="27" on="0"/>
      </contour>
      <contour>
        <pt x="323" y="394" on="1"/>
        <pt x="375" y="394" on="0"/>
        <pt x="448" y="412" on="0"/>
        <pt x="494" y="450" on="0"/>
        <pt x="515" y="510" on="0"/>
        <pt x="515" y="553" on="1"/>
        <pt x="515" y="595" on="0"/>
        <pt x="492" y="655" on="0"/>
        <pt x="441" y="693" on="0"/>
        <pt x="360" y="711" on="0"/>
        <pt x="302" y="711" on="1"/>
        <pt x="251" y="711" on="0"/>
        <pt x="173" y="707" on="0"/>
        <pt x="138" y="702" on="1"/>
        <pt x="138" y="394" on="1"/>
      </contour>
    </TTGlyph>
    <TTGlyph name="B.sc" xMin="92" yMin="-8" xMax="511" yMax="584">
      <contour>
        <pt x="274" y="-8" on="1"/>
        <pt x="234" y="-8" on="0"/>
        <pt x="141" y="-2" on="0"/>
        <pt x="92" y="4" on="1"/>
        <pt x="92" y="573" on="1"/>
        <pt x="152" y="579" on="0"/>
        <pt x="233" y="584" on="0"/>
        <pt x="269" y="584" on="1"/>
        <pt x="388" y="584" on="0"/>
        <pt x="490" y="512" on="0"/>
        <pt x="490" y="431" on="1"/>
        <pt x="490" y="377" on="0"/>
        <pt x="431" y="303" on="0"/>
        <pt x="380" y="295" on="1"/>
        <pt x="380" y="292" on="1"/>
        <pt x="444" y="281" on="0"/>
        <pt x="511" y="209" on="0"/>
        <pt x="511" y="150" on="1"/>
        <pt x="511" y="-8" on="0"/>
      </contour>
      <contour>
        <pt x="274" y="27" on="1"/>
        <pt x="375" y="27" on="0"/>
        <pt x="470" y="88" on="0"/>
        <pt x="470" y="151" on="1"/>
        <pt x="470" y="275" on="0"/>
        <pt x="291" y="275" on="1"/>
        <pt x="132" y="275" on="1"/>
        <pt x="132" y="36" on="1"/>
        <pt x="155" y="31" on="0"/>
        <pt x="229" y="27" on="0"/>
      </contour>
      <contour>
        <pt x="289" y="309" on="1"/>
        <pt x="376" y="309" on="0"/>
        <pt x="450" y="365" on="0"/>
        <pt x="450" y="430" on="1"/>
        <pt x="450" y="494" on="0"/>
        <pt x="368" y="549" on="0"/>
        <pt x="270" y="549" on="1"/>
        <pt x="226" y="549" on="0"/>
        <pt x="161" y="546" on="0"/>
        <pt x="132" y="541" on="1"/>
        <pt x="132" y="309" on="1"/>
      </contour>
    </TTGlyph>
    <TTGlyph name="C" xMin="59" yMin="-8" xMax="537" yMax="749">
      <contour>
        <pt x="372" y="-8" on="1"/>
        <pt x="59" y="-6" on="0"/>
        <pt x="59" y="368" on="1"/>
        <pt x="59" y="749" on="0"/>
        <pt x="378" y="749" on="1"/>
        <pt x="394" y="749" on="0"/>
        <pt x="434" y="746" on="0"/>
        <pt x="476" y="741" on="0"/>
        <pt x="518" y="734" on="0"/>
        <pt x="537" y="730" on="1"/>
        <pt x="537" y="691" on="1"/>
        <pt x="495" y="700" on="0"/>
        <pt x="412" y="710" on="0"/>
        <pt x="380" y="710" on="1"/>
        <pt x="240" y="710" on="0"/>
        <pt x="99" y="539" on="0"/>
        <pt x="99" y="369" on="1"/>
        <pt x="99" y="201" on="0"/>
        <pt x="236" y="31" on="0"/>
        <pt x="370" y="31" on="1"/>
        <pt x="386" y="31" on="0"/>
        <pt x="430" y="34" on="0"/>
        <pt x="477" y="40" on="0"/>
        <pt x="521" y="48" on="0"/>
        <pt x="537" y="52" on="1"/>
        <pt x="537" y="14" on="1"/>
        <pt x="520" y="9" on="0"/>
        <pt x="478" y="1" on="0"/>
        <pt x="433" y="-5" on="0"/>
        <pt x="390" y="-8" on="0"/>
      </contour>
    </TTGlyph>
    <TTGlyph name="C.sc" xMin="58" yMin="-7" xMax="473" yMax="584">
      <contour>
        <pt x="327" y="-7" on="1"/>
        <pt x="193" y="-6" on="0"/>
        <pt x="58" y="141" on="0"/>
        <pt x="58" y="287" on="1"/>
        <pt x="58" y="584" on="0"/>
        <pt x="332" y="584" on="1"/>
        <pt x="361" y="584" on="0"/>
        <pt x="439" y="576" on="0"/>
        <pt x="473" y="569" on="1"/>
        <pt x="473" y="532" on="1"/>
        <pt x="435" y="540" on="0"/>
        <pt x="362" y="547" on="0"/>
        <pt x="335" y="547" on="1"/>
        <pt x="218" y="547" on="0"/>
        <pt x="99" y="417" on="0"/>
        <pt x="99" y="288" on="1"/>
        <pt x="99" y="160" on="0"/>
        <pt x="214" y="31" on="0"/>
        <pt x="327" y="31" on="1"/>
        <pt x="341" y="31" on="0"/>
        <pt x="380" y="34" on="0"/>
        <pt x="420" y="38" on="0"/>
        <pt x="459" y="44" on="0"/>
        <pt x="473" y="47" on="1"/>
        <pt x="473" y="12" on="1"/>
        <pt x="458" y="8" on="0"/>
        <pt x="421" y="1" on="0"/>
        <pt x="381" y="-4" on="0"/>
        <pt x="342" y="-7" on="0"/>
      </contour>
    </TTGlyph>
    <TTGlyph name="Cacute" xMin="59" yMin="-8" xMax="537" yMax="927">
      <contour>
        <pt x="372" y="-8" on="1"/>
        <pt x="59" y="-6" on="0"/>
        <pt x="59" y="368" on="1"/>
        <pt x="59" y="749" on="0"/>
        <pt x="378" y="749" on="1"/>
        <pt x="394" y="749" on="0"/>
        <pt x="434" y="746" on="0"/>
        <pt x="476" y="741" on="0"/>
        <pt x="518" y="734" on="0"/>
        <pt x="537" y="730" on="1"/>
        <pt x="537" y="691" on="1"/>
        <pt x="495" y="700" on="0"/>
        <pt x="412" y="710" on="0"/>
        <pt x="380" y="710" on="1"/>
        <pt x="240" y="710" on="0"/>
        <pt x="99" y="539" on="0"/>
        <pt x="99" y="369" on="1"/>
        <pt x="99" y="201" on="0"/>
        <pt x="236" y="31" on="0"/>
        <pt x="370" y="31" on="1"/>
        <pt x="386" y="31" on="0"/>
        <pt x="430" y="34" on="0"/>
        <pt x="477" y="40" on="0"/>
        <pt x="521" y="48" on="0"/>
        <pt x="537" y="52" on="1"/>
        <pt x="537" y="14" on="1"/>
        <pt x="520" y="9" on="0"/>
        <pt x="478" y="1" on="0"/>
        <pt x="433" y="-5" on="0"/>
        <pt x="390" y="-8" on="0"/>
      </contour>
      <contour>
        <pt x="322" y="805" on="1"/>
        <pt x="401" y="927" on="1"/>
        <pt x="445" y="927" on="1"/>
        <pt x="358" y="799" on="1"/>
      </contour>
    </TTGlyph>
    <TTGlyph name="Cacute.sc" xMin="58" yMin="-7" xMax="473" yMax="728">
      <contour>
        <pt x="327" y="-7" on="1"/>
        <pt x="193" y="-6" on="0"/>
        <pt x="58" y="141" on="0"/>
        <pt x="58" y="287" on="1"/>
        <pt x="58" y="584" on="0"/>
        <pt x="332" y="584" on="1"/>
        <pt x="361" y="584" on="0"/>
        <pt x="438" y="576" on="0"/>
        <pt x="473" y="569" on="1"/>
        <pt x="473" y="532" on="1"/>
        <pt x="435" y="540" on="0"/>
        <pt x="362" y="547" on="0"/>
        <pt x="335" y="547" on="1"/>
        <pt x="218" y="547" on="0"/>
        <pt x="99" y="417" on="0"/>
        <pt x="99" y="288" on="1"/>
        <pt x="99" y="160" on="0"/>
        <pt x="214" y="31" on="0"/>
        <pt x="327" y="31" on="1"/>
        <pt x="341" y="31" on="0"/>
        <pt x="380" y="34" on="0"/>
        <pt x="420" y="38" on="0"/>
        <pt x="459" y="44" on="0"/>
        <pt x="473" y="47" on="1"/>
        <pt x="473" y="12" on="1"/>
        <pt x="458" y="8" on="0"/>
        <pt x="421" y="1" on="0"/>
        <pt x="381" y="-4" on="0"/>
        <pt x="342" y="-7" on="0"/>
      </contour>
      <contour>
        <pt x="284" y="629" on="1"/>
        <pt x="350" y="728" on="1"/>
        <pt x="394" y="728" on="1"/>
        <pt x="318" y="624" on="1"/>
      </contour>
    </TTGlyph>
    <TTGlyph name="Ccaron" xMin="59" yMin="-8" xMax="537" yMax="930">
      <contour>
        <pt x="372" y="-8" on="1"/>
        <pt x="59" y="-6" on="0"/>
        <pt x="59" y="368" on="1"/>
        <pt x="59" y="749" on="0"/>
        <pt x="378" y="749" on="1"/>
        <pt x="394" y="749" on="0"/>
        <pt x="434" y="746" on="0"/>
        <pt x="476" y="741" on="0"/>
        <pt x="518" y="734" on="0"/>
        <pt x="537" y="730" on="1"/>
        <pt x="537" y="691" on="1"/>
        <pt x="495" y="700" on="0"/>
        <pt x="412" y="710" on="0"/>
        <pt x="380" y="710" on="1"/>
        <pt x="240" y="710" on="0"/>
        <pt x="99" y="539" on="0"/>
        <pt x="99" y="369" on="1"/>
        <pt x="99" y="201" on="0"/>
        <pt x="236" y="31" on="0"/>
        <pt x="370" y="31" on="1"/>
        <pt x="386" y="31" on="0"/>
        <pt x="430" y="34" on="0"/>
        <pt x="477" y="40" on="0"/>
        <pt x="521" y="48" on="0"/>
        <pt x="537" y="52" on="1"/>
        <pt x="537" y="14" on="1"/>
        <pt x="520" y="9" on="0"/>
        <pt x="478" y="1" on="0"/>
        <pt x="433" y="-5" on="0"/>
        <pt x="390" y="-8" on="0"/>
      </contour>
      <contour>
        <pt x="202" y="930" on="1"/>
        <pt x="348" y="858" on="1"/>
        <pt x="494" y="930" on="1"/>
        <pt x="494" y="886" on="1"/>
        <pt x="348" y="813" on="1"/>
        <pt x="202" y="886" on="1"/>
      </contour>
    </TTGlyph>
    <TTGlyph name="Ccaron.sc" xMin="58" yMin="-7" xMax="473" yMax="730">
      <contour>
        <pt x="327" y="-7" on="1"/>
        <pt x="193" y="-6" on="0"/>
        <pt x="58" y="141" on="0"/>
        <pt x="58" y="287" on="1"/>
        <pt x="58" y="584" on="0"/>
        <pt x="332" y="584" on="1"/>
        <pt x="361" y="584" on="0"/>
        <pt x="438" y="576" on="0"/>
        <pt x="473" y="569" on="1"/>
        <pt x="473" y="532" on="1"/>
        <pt x="435" y="540" on="0"/>
        <pt x="362" y="547" on="0"/>
        <pt x="335" y="547" on="1"/>
        <pt x="218" y="547" on="0"/>
        <pt x="99" y="417" on="0"/>
        <pt x="99" y="288" on="1"/>
        <pt x="99" y="160" on="0"/>
        <pt x="214" y="31" on="0"/>
        <pt x="327" y="31" on="1"/>
        <pt x="341" y="31" on="0"/>
        <pt x="380" y="34" on="0"/>
        <pt x="420" y="38" on="0"/>
        <pt x="459" y="44" on="0"/>
        <pt x="473" y="47" on="1"/>
        <pt x="473" y="12" on="1"/>
        <pt x="458" y="8" on="0"/>
        <pt x="421" y="1" on="0"/>
        <pt x="381" y="-4" on="0"/>
        <pt x="342" y="-7" on="0"/>
      </contour>
      <contour>
        <pt x="180" y="730" on="1"/>
        <pt x="307" y="673" on="1"/>
        <pt x="435" y="730" on="1"/>
        <pt x="435" y="691" on="1"/>
        <pt x="307" y="634" on="1"/>
        <pt x="180" y="691" on="1"/>
      </contour>
    </TTGlyph>
    <TTGlyph name="Ccedilla" xMin="59" yMin="-220" xMax="537" yMax="749">
      <contour>
        <pt x="297" y="-220" on="1"/>
        <pt x="280" y="-220" on="0"/>
        <pt x="239" y="-214" on="0"/>
        <pt x="220" y="-208" on="1"/>
        <pt x="220" y="-171" on="1"/>
        <pt x="242" y="-177" on="0"/>
        <pt x="272" y="-182" on="0"/>
        <pt x="287" y="-182" on="1"/>
        <pt x="333" y="-182" on="0"/>
        <pt x="372" y="-147" on="0"/>
        <pt x="372" y="-106" on="1"/>
        <pt x="372" y="-83" on="0"/>
        <pt x="358" y="-39" on="0"/>
        <pt x="341" y="-7" on="1"/>
        <pt x="59" y="12" on="0"/>
        <pt x="59" y="368" on="1"/>
        <pt x="59" y="749" on="0"/>
        <pt x="378" y="749" on="1"/>
        <pt x="394" y="749" on="0"/>
        <pt x="434" y="746" on="0"/>
        <pt x="476" y="741" on="0"/>
        <pt x="518" y="734" on="0"/>
        <pt x="537" y="730" on="1"/>
        <pt x="537" y="691" on="1"/>
        <pt x="495" y="700" on="0"/>
        <pt x="412" y="710" on="0"/>
        <pt x="380" y="710" on="1"/>
        <pt x="240" y="710" on="0"/>
        <pt x="99" y="539" on="0"/>
        <pt x="99" y="369" on="1"/>
        <pt x="99" y="201" on="0"/>
        <pt x="236" y="31" on="0"/>
        <pt x="370" y="31" on="1"/>
        <pt x="386" y="31" on="0"/>
        <pt x="430" y="34" on="0"/>
        <pt x="477" y="40" on="0"/>
        <pt x="521" y="48" on="0"/>
        <pt x="537" y="52" on="1"/>
        <pt x="537" y="14" on="1"/>
        <pt x="522" y="10" on="0"/>
        <pt x="483" y="3" on="0"/>
        <pt x="441" y="-3" on="0"/>
        <pt x="400" y="-7" on="0"/>
        <pt x="382" y="-8" on="1"/>
        <pt x="399" y="-44" on="0"/>
        <pt x="412" y="-86" on="0"/>
        <pt x="412" y="-106" on="1"/>
        <pt x="412" y="-162" on="0"/>
        <pt x="353" y="-220" on="0"/>
      </contour>
    </TTGlyph>
    <TTGlyph name="Ccedilla.sc" xMin="58" yMin="-172" xMax="473" yMax="584">
      <contour>
        <pt x="266" y="-172" on="1"/>
        <pt x="252" y="-172" on="0"/>
        <pt x="215" y="-167" on="0"/>
        <pt x="197" y="-162" on="1"/>
        <pt x="197" y="-129" on="1"/>
        <pt x="222" y="-138" on="0"/>
        <pt x="254" y="-138" on="1"/>
        <pt x="296" y="-138" on="0"/>
        <pt x="327" y="-109" on="0"/>
        <pt x="327" y="-76" on="1"/>
        <pt x="327" y="-62" on="0"/>
        <pt x="317" y="-32" on="0"/>
        <pt x="302" y="-6" on="1"/>
        <pt x="181" y="1" on="0"/>
        <pt x="58" y="148" on="0"/>
        <pt x="58" y="287" on="1"/>
        <pt x="58" y="584" on="0"/>
        <pt x="332" y="584" on="1"/>
        <pt x="361" y="584" on="0"/>
        <pt x="438" y="576" on="0"/>
        <pt x="473" y="569" on="1"/>
        <pt x="473" y="532" on="1"/>
        <pt x="435" y="540" on="0"/>
        <pt x="362" y="547" on="0"/>
        <pt x="335" y="547" on="1"/>
        <pt x="218" y="547" on="0"/>
        <pt x="99" y="417" on="0"/>
        <pt x="99" y="288" on="1"/>
        <pt x="99" y="160" on="0"/>
        <pt x="214" y="31" on="0"/>
        <pt x="327" y="31" on="1"/>
        <pt x="341" y="31" on="0"/>
        <pt x="380" y="34" on="0"/>
        <pt x="420" y="38" on="0"/>
        <pt x="459" y="44" on="0"/>
        <pt x="473" y="47" on="1"/>
        <pt x="473" y="12" on="1"/>
        <pt x="446" y="5" on="0"/>
        <pt x="369" y="-5" on="0"/>
        <pt x="339" y="-6" on="1"/>
        <pt x="353" y="-33" on="0"/>
        <pt x="364" y="-66" on="0"/>
        <pt x="364" y="-82" on="1"/>
        <pt x="364" y="-126" on="0"/>
        <pt x="314" y="-172" on="0"/>
      </contour>
    </TTGlyph>
    <TTGlyph name="Ccircumflex" xMin="59" yMin="-8" xMax="537" yMax="935">
      <contour>
        <pt x="372" y="-8" on="1"/>
        <pt x="59" y="-6" on="0"/>
        <pt x="59" y="368" on="1"/>
        <pt x="59" y="749" on="0"/>
        <pt x="378" y="749" on="1"/>
        <pt x="394" y="749" on="0"/>
        <pt x="434" y="746" on="0"/>
        <pt x="476" y="741" on="0"/>
        <pt x="518" y="734" on="0"/>
        <pt x="537" y="730" on="1"/>
        <pt x="537" y="691" on="1"/>
        <pt x="495" y="700" on="0"/>
        <pt x="412" y="710" on="0"/>
        <pt x="380" y="710" on="1"/>
        <pt x="240" y="710" on="0"/>
        <pt x="99" y="539" on="0"/>
        <pt x="99" y="369" on="1"/>
        <pt x="99" y="201" on="0"/>
        <pt x="236" y="31" on="0"/>
        <pt x="370" y="31" on="1"/>
        <pt x="386" y="31" on="0"/>
        <pt x="430" y="34" on="0"/>
        <pt x="477" y="40" on="0"/>
        <pt x="521" y="48" on="0"/>
        <pt x="537" y="52" on="1"/>
        <pt x="537" y="14" on="1"/>
        <pt x="520" y="9" on="0"/>
        <pt x="478" y="1" on="0"/>
        <pt x="433" y="-5" on="0"/>
        <pt x="390" y="-8" on="0"/>
      </contour>
      <contour>
        <pt x="201" y="862" on="1"/>
        <pt x="347" y="935" on="1"/>
        <pt x="493" y="862" on="1"/>
        <pt x="493" y="818" on="1"/>
        <pt x="347" y="890" on="1"/>
        <pt x="201" y="818" on="1"/>
      </contour>
    </TTGlyph>
    <TTGlyph name="Ccircumflex.sc" xMin="58" yMin="-7" xMax="473" yMax="733">
      <contour>
        <pt x="327" y="-7" on="1"/>
        <pt x="193" y="-6" on="0"/>
        <pt x="58" y="141" on="0"/>
        <pt x="58" y="287" on="1"/>
        <pt x="58" y="584" on="0"/>
        <pt x="332" y="584" on="1"/>
        <pt x="361" y="584" on="0"/>
        <pt x="438" y="576" on="0"/>
        <pt x="473" y="569" on="1"/>
        <pt x="473" y="532" on="1"/>
        <pt x="435" y="540" on="0"/>
        <pt x="362" y="547" on="0"/>
        <pt x="335" y="547" on="1"/>
        <pt x="218" y="547" on="0"/>
        <pt x="99" y="417" on="0"/>
        <pt x="99" y="288" on="1"/>
        <pt x="99" y="160" on="0"/>
        <pt x="214" y="31" on="0"/>
        <pt x="327" y="31" on="1"/>
        <pt x="341" y="31" on="0"/>
        <pt x="380" y="34" on="0"/>
        <pt x="420" y="38" on="0"/>
        <pt x="459" y="44" on="0"/>
        <pt x="473" y="47" on="1"/>
        <pt x="473" y="12" on="1"/>
        <pt x="458" y="8" on="0"/>
        <pt x="421" y="1" on="0"/>
        <pt x="381" y="-4" on="0"/>
        <pt x="342" y="-7" on="0"/>
      </contour>
      <contour>
        <pt x="179" y="676" on="1"/>
        <pt x="307" y="733" on="1"/>
        <pt x="435" y="676" on="1"/>
        <pt x="435" y="637" on="1"/>
        <pt x="307" y="693" on="1"/>
        <pt x="179" y="637" on="1"/>
      </contour>
    </TTGlyph>
    <TTGlyph name="Cdotaccent" xMin="59" yMin="-8" xMax="537" yMax="889">
      <contour>
        <pt x="348" y="820" on="1"/>
        <pt x="333" y="820" on="0"/>
        <pt x="313" y="836" on="0"/>
        <pt x="313" y="855" on="1"/>
        <pt x="313" y="873" on="0"/>
        <pt x="333" y="889" on="0"/>
        <pt x="348" y="889" on="1"/>
        <pt x="362" y="889" on="0"/>
        <pt x="384" y="873" on="0"/>
        <pt x="384" y="855" on="1"/>
        <pt x="384" y="836" on="0"/>
        <pt x="362" y="820" on="0"/>
      </contour>
      <contour>
        <pt x="372" y="-8" on="1"/>
        <pt x="59" y="-6" on="0"/>
        <pt x="59" y="368" on="1"/>
        <pt x="59" y="749" on="0"/>
        <pt x="378" y="749" on="1"/>
        <pt x="394" y="749" on="0"/>
        <pt x="434" y="746" on="0"/>
        <pt x="476" y="741" on="0"/>
        <pt x="518" y="734" on="0"/>
        <pt x="537" y="730" on="1"/>
        <pt x="537" y="691" on="1"/>
        <pt x="495" y="700" on="0"/>
        <pt x="412" y="710" on="0"/>
        <pt x="380" y="710" on="1"/>
        <pt x="240" y="710" on="0"/>
        <pt x="99" y="539" on="0"/>
        <pt x="99" y="369" on="1"/>
        <pt x="99" y="201" on="0"/>
        <pt x="236" y="31" on="0"/>
        <pt x="370" y="31" on="1"/>
        <pt x="386" y="31" on="0"/>
        <pt x="430" y="34" on="0"/>
        <pt x="477" y="40" on="0"/>
        <pt x="521" y="48" on="0"/>
        <pt x="537" y="52" on="1"/>
        <pt x="537" y="14" on="1"/>
        <pt x="520" y="9" on="0"/>
        <pt x="478" y="1" on="0"/>
        <pt x="433" y="-5" on="0"/>
        <pt x="390" y="-8" on="0"/>
      </contour>
    </TTGlyph>
    <TTGlyph name="Cdotaccent.sc" xMin="58" yMin="-7" xMax="473" yMax="701">
      <contour>
        <pt x="327" y="-7" on="1"/>
        <pt x="193" y="-6" on="0"/>
        <pt x="58" y="141" on="0"/>
        <pt x="58" y="287" on="1"/>
        <pt x="58" y="584" on="0"/>
        <pt x="332" y="584" on="1"/>
        <pt x="361" y="584" on="0"/>
        <pt x="438" y="576" on="0"/>
        <pt x="473" y="569" on="1"/>
        <pt x="473" y="532" on="1"/>
        <pt x="435" y="540" on="0"/>
        <pt x="362" y="547" on="0"/>
        <pt x="335" y="547" on="1"/>
        <pt x="218" y="547" on="0"/>
        <pt x="99" y="417" on="0"/>
        <pt x="99" y="288" on="1"/>
        <pt x="99" y="160" on="0"/>
        <pt x="214" y="31" on="0"/>
        <pt x="327" y="31" on="1"/>
        <pt x="341" y="31" on="0"/>
        <pt x="380" y="34" on="0"/>
        <pt x="420" y="38" on="0"/>
        <pt x="459" y="44" on="0"/>
        <pt x="473" y="47" on="1"/>
        <pt x="473" y="12" on="1"/>
        <pt x="458" y="8" on="0"/>
        <pt x="421" y="1" on="0"/>
        <pt x="381" y="-4" on="0"/>
        <pt x="342" y="-7" on="0"/>
      </contour>
      <contour>
        <pt x="308" y="640" on="1"/>
        <pt x="293" y="640" on="0"/>
        <pt x="275" y="654" on="0"/>
        <pt x="275" y="671" on="1"/>
        <pt x="275" y="687" on="0"/>
        <pt x="293" y="701" on="0"/>
        <pt x="308" y="701" on="1"/>
        <pt x="322" y="701" on="0"/>
        <pt x="341" y="687" on="0"/>
        <pt x="341" y="671" on="1"/>
        <pt x="341" y="654" on="0"/>
        <pt x="322" y="640" on="0"/>
      </contour>
    </TTGlyph>
    <TTGlyph name="D" xMin="99" yMin="-11" xMax="644" yMax="749">
      <contour>
        <pt x="269" y="-11" on="1"/>
        <pt x="212" y="-11" on="0"/>
        <pt x="120" y="-4" on="0"/>
        <pt x="99" y="4" on="1"/>
        <pt x="99" y="737" on="1"/>
        <pt x="117" y="739" on="0"/>
        <pt x="165" y="744" on="0"/>
        <pt x="216" y="747" on="0"/>
        <pt x="264" y="749" on="0"/>
        <pt x="281" y="749" on="1"/>
        <pt x="468" y="749" on="0"/>
        <pt x="644" y="564" on="0"/>
        <pt x="644" y="370" on="1"/>
        <pt x="644" y="174" on="0"/>
        <pt x="462" y="-11" on="0"/>
      </contour>
      <contour>
        <pt x="273" y="28" on="1"/>
        <pt x="442" y="28" on="0"/>
        <pt x="603" y="195" on="0"/>
        <pt x="603" y="370" on="1"/>
        <pt x="603" y="545" on="0"/>
        <pt x="447" y="709" on="0"/>
        <pt x="281" y="709" on="1"/>
        <pt x="266" y="709" on="0"/>
        <pt x="230" y="708" on="0"/>
        <pt x="191" y="706" on="0"/>
        <pt x="154" y="703" on="0"/>
        <pt x="139" y="701" on="1"/>
        <pt x="139" y="37" on="1"/>
        <pt x="179" y="32" on="0"/>
        <pt x="237" y="28" on="0"/>
      </contour>
    </TTGlyph>
    <TTGlyph name="D.sc" xMin="92" yMin="-8" xMax="568" yMax="584">
      <contour>
        <pt x="244" y="-8" on="1"/>
        <pt x="193" y="-8" on="0"/>
        <pt x="112" y="-2" on="0"/>
        <pt x="92" y="4" on="1"/>
        <pt x="92" y="576" on="1"/>
        <pt x="108" y="577" on="0"/>
        <pt x="151" y="580" on="0"/>
        <pt x="196" y="583" on="0"/>
        <pt x="237" y="584" on="0"/>
        <pt x="252" y="584" on="1"/>
        <pt x="415" y="584" on="0"/>
        <pt x="568" y="441" on="0"/>
        <pt x="568" y="289" on="1"/>
        <pt x="568" y="135" on="0"/>
        <pt x="411" y="-8" on="0"/>
      </contour>
      <contour>
        <pt x="249" y="28" on="1"/>
        <pt x="392" y="28" on="0"/>
        <pt x="527" y="155" on="0"/>
        <pt x="527" y="289" on="1"/>
        <pt x="527" y="422" on="0"/>
        <pt x="395" y="547" on="0"/>
        <pt x="253" y="547" on="1"/>
        <pt x="241" y="547" on="0"/>
        <pt x="210" y="546" on="0"/>
        <pt x="177" y="544" on="0"/>
        <pt x="145" y="541" on="0"/>
        <pt x="132" y="540" on="1"/>
        <pt x="132" y="36" on="1"/>
        <pt x="150" y="34" on="0"/>
        <pt x="179" y="31" on="0"/>
        <pt x="206" y="29" on="0"/>
        <pt x="233" y="28" on="0"/>
      </contour>
    </TTGlyph>
    <TTGlyph name="Dcaron" xMin="99" yMin="-11" xMax="644" yMax="930">
      <contour>
        <pt x="172" y="930" on="1"/>
        <pt x="318" y="858" on="1"/>
        <pt x="464" y="930" on="1"/>
        <pt x="464" y="886" on="1"/>
        <pt x="318" y="813" on="1"/>
        <pt x="172" y="886" on="1"/>
      </contour>
      <contour>
        <pt x="269" y="-11" on="1"/>
        <pt x="212" y="-11" on="0"/>
        <pt x="120" y="-4" on="0"/>
        <pt x="99" y="4" on="1"/>
        <pt x="99" y="737" on="1"/>
        <pt x="117" y="739" on="0"/>
        <pt x="165" y="744" on="0"/>
        <pt x="216" y="747" on="0"/>
        <pt x="264" y="749" on="0"/>
        <pt x="281" y="749" on="1"/>
        <pt x="468" y="749" on="0"/>
        <pt x="644" y="564" on="0"/>
        <pt x="644" y="370" on="1"/>
        <pt x="644" y="174" on="0"/>
        <pt x="462" y="-11" on="0"/>
      </contour>
      <contour>
        <pt x="273" y="28" on="1"/>
        <pt x="442" y="28" on="0"/>
        <pt x="603" y="195" on="0"/>
        <pt x="603" y="370" on="1"/>
        <pt x="603" y="545" on="0"/>
        <pt x="447" y="709" on="0"/>
        <pt x="281" y="709" on="1"/>
        <pt x="266" y="709" on="0"/>
        <pt x="230" y="708" on="0"/>
        <pt x="191" y="706" on="0"/>
        <pt x="154" y="703" on="0"/>
        <pt x="139" y="701" on="1"/>
        <pt x="139" y="37" on="1"/>
        <pt x="179" y="32" on="0"/>
        <pt x="237" y="28" on="0"/>
      </contour>
    </TTGlyph>
    <TTGlyph name="Dcaron.sc" xMin="92" yMin="-8" xMax="568" yMax="730">
      <contour>
        <pt x="244" y="-8" on="1"/>
        <pt x="193" y="-8" on="0"/>
        <pt x="112" y="-2" on="0"/>
        <pt x="92" y="4" on="1"/>
        <pt x="92" y="576" on="1"/>
        <pt x="108" y="577" on="0"/>
        <pt x="151" y="580" on="0"/>
        <pt x="196" y="583" on="0"/>
        <pt x="237" y="584" on="0"/>
        <pt x="252" y="584" on="1"/>
        <pt x="415" y="584" on="0"/>
        <pt x="568" y="441" on="0"/>
        <pt x="568" y="289" on="1"/>
        <pt x="568" y="135" on="0"/>
        <pt x="411" y="-8" on="0"/>
      </contour>
      <contour>
        <pt x="249" y="28" on="1"/>
        <pt x="392" y="28" on="0"/>
        <pt x="527" y="155" on="0"/>
        <pt x="527" y="289" on="1"/>
        <pt x="527" y="422" on="0"/>
        <pt x="395" y="547" on="0"/>
        <pt x="253" y="547" on="1"/>
        <pt x="241" y="547" on="0"/>
        <pt x="210" y="546" on="0"/>
        <pt x="177" y="544" on="0"/>
        <pt x="145" y="541" on="0"/>
        <pt x="132" y="540" on="1"/>
        <pt x="132" y="36" on="1"/>
        <pt x="150" y="34" on="0"/>
        <pt x="179" y="31" on="0"/>
        <pt x="206" y="29" on="0"/>
        <pt x="233" y="28" on="0"/>
      </contour>
      <contour>
        <pt x="157" y="691" on="1"/>
        <pt x="157" y="730" on="1"/>
        <pt x="285" y="673" on="1"/>
        <pt x="413" y="730" on="1"/>
        <pt x="413" y="691" on="1"/>
        <pt x="285" y="634" on="1"/>
      </contour>
    </TTGlyph>
    <TTGlyph name="Dcroat" xMin="5" yMin="-11" xMax="650" yMax="749">
      <contour>
        <pt x="5" y="387" on="1"/>
        <pt x="105" y="387" on="1"/>
        <pt x="105" y="737" on="1"/>
        <pt x="123" y="739" on="0"/>
        <pt x="171" y="744" on="0"/>
        <pt x="222" y="747" on="0"/>
        <pt x="270" y="749" on="0"/>
        <pt x="287" y="749" on="1"/>
        <pt x="474" y="749" on="0"/>
        <pt x="650" y="564" on="0"/>
        <pt x="650" y="370" on="1"/>
        <pt x="650" y="174" on="0"/>
        <pt x="468" y="-11" on="0"/>
        <pt x="275" y="-11" on="1"/>
        <pt x="218" y="-11" on="0"/>
        <pt x="126" y="-4" on="0"/>
        <pt x="105" y="4" on="1"/>
        <pt x="105" y="349" on="1"/>
        <pt x="5" y="349" on="1"/>
      </contour>
      <contour>
        <pt x="279" y="28" on="1"/>
        <pt x="448" y="28" on="0"/>
        <pt x="609" y="195" on="0"/>
        <pt x="609" y="370" on="1"/>
        <pt x="609" y="545" on="0"/>
        <pt x="453" y="709" on="0"/>
        <pt x="287" y="709" on="1"/>
        <pt x="272" y="709" on="0"/>
        <pt x="236" y="708" on="0"/>
        <pt x="197" y="706" on="0"/>
        <pt x="160" y="703" on="0"/>
        <pt x="145" y="701" on="1"/>
        <pt x="145" y="387" on="1"/>
        <pt x="358" y="387" on="1"/>
        <pt x="358" y="349" on="1"/>
        <pt x="145" y="349" on="1"/>
        <pt x="145" y="37" on="1"/>
        <pt x="185" y="32" on="0"/>
        <pt x="243" y="28" on="0"/>
      </contour>
    </TTGlyph>
    <TTGlyph name="Dcroat.sc" xMin="13" yMin="-8" xMax="574" yMax="584">
      <contour>
        <pt x="13" y="305" on="1"/>
        <pt x="98" y="305" on="1"/>
        <pt x="98" y="576" on="1"/>
        <pt x="114" y="577" on="0"/>
        <pt x="157" y="580" on="0"/>
        <pt x="202" y="583" on="0"/>
        <pt x="243" y="584" on="0"/>
        <pt x="258" y="584" on="1"/>
        <pt x="421" y="584" on="0"/>
        <pt x="574" y="441" on="0"/>
        <pt x="574" y="289" on="1"/>
        <pt x="574" y="135" on="0"/>
        <pt x="417" y="-8" on="0"/>
        <pt x="249" y="-8" on="1"/>
        <pt x="198" y="-8" on="0"/>
        <pt x="117" y="-2" on="0"/>
        <pt x="98" y="4" on="1"/>
        <pt x="98" y="269" on="1"/>
        <pt x="13" y="269" on="1"/>
      </contour>
      <contour>
        <pt x="255" y="28" on="1"/>
        <pt x="398" y="28" on="0"/>
        <pt x="533" y="155" on="0"/>
        <pt x="533" y="289" on="1"/>
        <pt x="533" y="423" on="0"/>
        <pt x="402" y="547" on="0"/>
        <pt x="260" y="547" on="1"/>
        <pt x="247" y="547" on="0"/>
        <pt x="216" y="546" on="0"/>
        <pt x="183" y="544" on="0"/>
        <pt x="151" y="541" on="0"/>
        <pt x="138" y="540" on="1"/>
        <pt x="138" y="305" on="1"/>
        <pt x="319" y="305" on="1"/>
        <pt x="319" y="269" on="1"/>
        <pt x="138" y="269" on="1"/>
        <pt x="138" y="36" on="1"/>
        <pt x="156" y="34" on="0"/>
        <pt x="185" y="31" on="0"/>
        <pt x="212" y="29" on="0"/>
        <pt x="239" y="28" on="0"/>
      </contour>
    </TTGlyph>
    <TTGlyph name="Ddotbelow" xMin="99" yMin="-169" xMax="644" yMax="749">
      <contour>
        <pt x="330" y="-169" on="1"/>
        <pt x="313" y="-169" on="0"/>
        <pt x="292" y="-152" on="0"/>
        <pt x="292" y="-131" on="1"/>
        <pt x="292" y="-110" on="0"/>
        <pt x="313" y="-92" on="0"/>
        <pt x="330" y="-92" on="1"/>
        <pt x="347" y="-92" on="0"/>
        <pt x="369" y="-110" on="0"/>
        <pt x="369" y="-131" on="1"/>
        <pt x="369" y="-152" on="0"/>
        <pt x="347" y="-169" on="0"/>
      </contour>
      <contour>
        <pt x="269" y="-11" on="1"/>
        <pt x="212" y="-11" on="0"/>
        <pt x="120" y="-4" on="0"/>
        <pt x="99" y="4" on="1"/>
        <pt x="99" y="737" on="1"/>
        <pt x="117" y="739" on="0"/>
        <pt x="165" y="744" on="0"/>
        <pt x="216" y="747" on="0"/>
        <pt x="264" y="749" on="0"/>
        <pt x="281" y="749" on="1"/>
        <pt x="468" y="749" on="0"/>
        <pt x="644" y="564" on="0"/>
        <pt x="644" y="370" on="1"/>
        <pt x="644" y="174" on="0"/>
        <pt x="462" y="-11" on="0"/>
      </contour>
      <contour>
        <pt x="273" y="28" on="1"/>
        <pt x="442" y="28" on="0"/>
        <pt x="603" y="195" on="0"/>
        <pt x="603" y="370" on="1"/>
        <pt x="603" y="545" on="0"/>
        <pt x="447" y="709" on="0"/>
        <pt x="281" y="709" on="1"/>
        <pt x="266" y="709" on="0"/>
        <pt x="230" y="708" on="0"/>
        <pt x="191" y="706" on="0"/>
        <pt x="154" y="703" on="0"/>
        <pt x="139" y="701" on="1"/>
        <pt x="139" y="37" on="1"/>
        <pt x="179" y="32" on="0"/>
        <pt x="237" y="28" on="0"/>
      </contour>
    </TTGlyph>
    <TTGlyph name="Ddotbelow.sc" xMin="92" yMin="-135" xMax="568" yMax="584">
      <contour>
        <pt x="244" y="-8" on="1"/>
        <pt x="193" y="-8" on="0"/>
        <pt x="112" y="-2" on="0"/>
        <pt x="92" y="4" on="1"/>
        <pt x="92" y="576" on="1"/>
        <pt x="108" y="577" on="0"/>
        <pt x="151" y="580" on="0"/>
        <pt x="196" y="583" on="0"/>
        <pt x="237" y="584" on="0"/>
        <pt x="252" y="584" on="1"/>
        <pt x="415" y="584" on="0"/>
        <pt x="568" y="441" on="0"/>
        <pt x="568" y="289" on="1"/>
        <pt x="568" y="135" on="0"/>
        <pt x="411" y="-8" on="0"/>
      </contour>
      <contour>
        <pt x="249" y="28" on="1"/>
        <pt x="392" y="28" on="0"/>
        <pt x="527" y="155" on="0"/>
        <pt x="527" y="289" on="1"/>
        <pt x="527" y="422" on="0"/>
        <pt x="395" y="547" on="0"/>
        <pt x="253" y="547" on="1"/>
        <pt x="241" y="547" on="0"/>
        <pt x="210" y="546" on="0"/>
        <pt x="177" y="544" on="0"/>
        <pt x="145" y="541" on="0"/>
        <pt x="132" y="540" on="1"/>
        <pt x="132" y="36" on="1"/>
        <pt x="150" y="34" on="0"/>
        <pt x="179" y="31" on="0"/>
        <pt x="206" y="29" on="0"/>
        <pt x="233" y="28" on="0"/>
      </contour>
      <contour>
        <pt x="295" y="-135" on="1"/>
        <pt x="261" y="-135" on="0"/>
        <pt x="261" y="-103" on="1"/>
        <pt x="261" y="-70" on="0"/>
        <pt x="295" y="-70" on="1"/>
        <pt x="310" y="-70" on="0"/>
        <pt x="330" y="-85" on="0"/>
        <pt x="330" y="-103" on="1"/>
        <pt x="330" y="-120" on="0"/>
        <pt x="310" y="-135" on="0"/>
      </contour>
    </TTGlyph>
    <TTGlyph name="Delta" xMin="26" yMin="0" xMax="671" yMax="740">
      <contour>
        <pt x="322" y="740" on="1"/>
        <pt x="374" y="740" on="1"/>
        <pt x="671" y="0" on="1"/>
        <pt x="26" y="0" on="1"/>
      </contour>
      <contour>
        <pt x="613" y="38" on="1"/>
        <pt x="348" y="700" on="1"/>
        <pt x="82" y="38" on="1"/>
      </contour>
    </TTGlyph>
    <TTGlyph name="E" xMin="99" yMin="0" xMax="537" yMax="740">
      <contour>
        <pt x="99" y="740" on="1"/>
        <pt x="529" y="740" on="1"/>
        <pt x="529" y="702" on="1"/>
        <pt x="139" y="702" on="1"/>
        <pt x="139" y="396" on="1"/>
        <pt x="507" y="396" on="1"/>
        <pt x="507" y="358" on="1"/>
        <pt x="139" y="358" on="1"/>
        <pt x="139" y="38" on="1"/>
        <pt x="537" y="38" on="1"/>
        <pt x="537" y="0" on="1"/>
        <pt x="99" y="0" on="1"/>
      </contour>
    </TTGlyph>
    <TTGlyph name="E.sc" xMin="93" yMin="0" xMax="475" yMax="577">
      <contour>
        <pt x="93" y="577" on="1"/>
        <pt x="468" y="577" on="1"/>
        <pt x="468" y="541" on="1"/>
        <pt x="133" y="541" on="1"/>
        <pt x="133" y="312" on="1"/>
        <pt x="450" y="312" on="1"/>
        <pt x="450" y="277" on="1"/>
        <pt x="133" y="277" on="1"/>
        <pt x="133" y="36" on="1"/>
        <pt x="475" y="36" on="1"/>
        <pt x="475" y="0" on="1"/>
        <pt x="93" y="0" on="1"/>
      </contour>
    </TTGlyph>
    <TTGlyph name="Eacute" xMin="99" yMin="0" xMax="537" yMax="927">
      <contour>
        <pt x="291" y="805" on="1"/>
        <pt x="370" y="927" on="1"/>
        <pt x="414" y="927" on="1"/>
        <pt x="327" y="799" on="1"/>
      </contour>
      <contour>
        <pt x="99" y="740" on="1"/>
        <pt x="529" y="740" on="1"/>
        <pt x="529" y="702" on="1"/>
        <pt x="139" y="702" on="1"/>
        <pt x="139" y="396" on="1"/>
        <pt x="507" y="396" on="1"/>
        <pt x="507" y="358" on="1"/>
        <pt x="139" y="358" on="1"/>
        <pt x="139" y="38" on="1"/>
        <pt x="537" y="38" on="1"/>
        <pt x="537" y="0" on="1"/>
        <pt x="99" y="0" on="1"/>
      </contour>
    </TTGlyph>
    <TTGlyph name="Eacute.sc" xMin="93" yMin="0" xMax="475" yMax="728">
      <contour>
        <pt x="93" y="577" on="1"/>
        <pt x="468" y="577" on="1"/>
        <pt x="468" y="541" on="1"/>
        <pt x="133" y="541" on="1"/>
        <pt x="133" y="312" on="1"/>
        <pt x="450" y="312" on="1"/>
        <pt x="450" y="277" on="1"/>
        <pt x="133" y="277" on="1"/>
        <pt x="133" y="36" on="1"/>
        <pt x="475" y="36" on="1"/>
        <pt x="475" y="0" on="1"/>
        <pt x="93" y="0" on="1"/>
      </contour>
      <contour>
        <pt x="260" y="629" on="1"/>
        <pt x="326" y="728" on="1"/>
        <pt x="369" y="728" on="1"/>
        <pt x="294" y="624" on="1"/>
      </contour>
    </TTGlyph>
    <TTGlyph name="Ebreve" xMin="99" yMin="0" xMax="537" yMax="950">
      <contour>
        <pt x="316" y="816" on="1"/>
        <pt x="240" y="816" on="0"/>
        <pt x="155" y="887" on="0"/>
        <pt x="155" y="950" on="1"/>
        <pt x="193" y="950" on="1"/>
        <pt x="193" y="904" on="0"/>
        <pt x="258" y="852" on="0"/>
        <pt x="316" y="852" on="1"/>
        <pt x="373" y="852" on="0"/>
        <pt x="438" y="904" on="0"/>
        <pt x="438" y="950" on="1"/>
        <pt x="476" y="950" on="1"/>
        <pt x="476" y="887" on="0"/>
        <pt x="391" y="816" on="0"/>
      </contour>
      <contour>
        <pt x="99" y="740" on="1"/>
        <pt x="529" y="740" on="1"/>
        <pt x="529" y="702" on="1"/>
        <pt x="139" y="702" on="1"/>
        <pt x="139" y="396" on="1"/>
        <pt x="507" y="396" on="1"/>
        <pt x="507" y="358" on="1"/>
        <pt x="139" y="358" on="1"/>
        <pt x="139" y="38" on="1"/>
        <pt x="537" y="38" on="1"/>
        <pt x="537" y="0" on="1"/>
        <pt x="99" y="0" on="1"/>
      </contour>
    </TTGlyph>
    <TTGlyph name="Ebreve.sc" xMin="93" yMin="0" xMax="475" yMax="743">
      <contour>
        <pt x="282" y="635" on="1"/>
        <pt x="216" y="635" on="0"/>
        <pt x="142" y="693" on="0"/>
        <pt x="142" y="743" on="1"/>
        <pt x="177" y="743" on="1"/>
        <pt x="177" y="707" on="0"/>
        <pt x="232" y="667" on="0"/>
        <pt x="282" y="667" on="1"/>
        <pt x="332" y="667" on="0"/>
        <pt x="387" y="707" on="0"/>
        <pt x="387" y="743" on="1"/>
        <pt x="422" y="743" on="1"/>
        <pt x="422" y="693" on="0"/>
        <pt x="349" y="635" on="0"/>
      </contour>
      <contour>
        <pt x="93" y="577" on="1"/>
        <pt x="468" y="577" on="1"/>
        <pt x="468" y="541" on="1"/>
        <pt x="133" y="541" on="1"/>
        <pt x="133" y="312" on="1"/>
        <pt x="450" y="312" on="1"/>
        <pt x="450" y="277" on="1"/>
        <pt x="133" y="277" on="1"/>
        <pt x="133" y="36" on="1"/>
        <pt x="475" y="36" on="1"/>
        <pt x="475" y="0" on="1"/>
        <pt x="93" y="0" on="1"/>
      </contour>
    </TTGlyph>
    <TTGlyph name="Ecaron" xMin="99" yMin="0" xMax="537" yMax="930">
      <contour>
        <pt x="171" y="930" on="1"/>
        <pt x="317" y="858" on="1"/>
        <pt x="463" y="930" on="1"/>
        <pt x="463" y="886" on="1"/>
        <pt x="317" y="813" on="1"/>
        <pt x="171" y="886" on="1"/>
      </contour>
      <contour>
        <pt x="99" y="740" on="1"/>
        <pt x="529" y="740" on="1"/>
        <pt x="529" y="702" on="1"/>
        <pt x="139" y="702" on="1"/>
        <pt x="139" y="396" on="1"/>
        <pt x="507" y="396" on="1"/>
        <pt x="507" y="358" on="1"/>
        <pt x="139" y="358" on="1"/>
        <pt x="139" y="38" on="1"/>
        <pt x="537" y="38" on="1"/>
        <pt x="537" y="0" on="1"/>
        <pt x="99" y="0" on="1"/>
      </contour>
    </TTGlyph>
    <TTGlyph name="Ecaron.sc" xMin="93" yMin="0" xMax="475" yMax="730">
      <contour>
        <pt x="93" y="577" on="1"/>
        <pt x="468" y="577" on="1"/>
        <pt x="468" y="541" on="1"/>
        <pt x="133" y="541" on="1"/>
        <pt x="133" y="312" on="1"/>
        <pt x="450" y="312" on="1"/>
        <pt x="450" y="277" on="1"/>
        <pt x="133" y="277" on="1"/>
        <pt x="133" y="36" on="1"/>
        <pt x="475" y="36" on="1"/>
        <pt x="475" y="0" on="1"/>
        <pt x="93" y="0" on="1"/>
      </contour>
      <contour>
        <pt x="156" y="691" on="1"/>
        <pt x="156" y="730" on="1"/>
        <pt x="284" y="673" on="1"/>
        <pt x="411" y="730" on="1"/>
        <pt x="411" y="691" on="1"/>
        <pt x="283" y="634" on="1"/>
      </contour>
    </TTGlyph>
    <TTGlyph name="Ecircumflex" xMin="99" yMin="0" xMax="537" yMax="935">
      <contour>
        <pt x="99" y="740" on="1"/>
        <pt x="529" y="740" on="1"/>
        <pt x="529" y="702" on="1"/>
        <pt x="139" y="702" on="1"/>
        <pt x="139" y="396" on="1"/>
        <pt x="507" y="396" on="1"/>
        <pt x="507" y="358" on="1"/>
        <pt x="139" y="358" on="1"/>
        <pt x="139" y="38" on="1"/>
        <pt x="537" y="38" on="1"/>
        <pt x="537" y="0" on="1"/>
        <pt x="99" y="0" on="1"/>
      </contour>
      <contour>
        <pt x="170" y="862" on="1"/>
        <pt x="316" y="935" on="1"/>
        <pt x="462" y="862" on="1"/>
        <pt x="462" y="818" on="1"/>
        <pt x="316" y="890" on="1"/>
        <pt x="170" y="818" on="1"/>
      </contour>
    </TTGlyph>
    <TTGlyph name="Ecircumflex.sc" xMin="93" yMin="0" xMax="475" yMax="733">
      <contour>
        <pt x="93" y="577" on="1"/>
        <pt x="468" y="577" on="1"/>
        <pt x="468" y="541" on="1"/>
        <pt x="133" y="541" on="1"/>
        <pt x="133" y="312" on="1"/>
        <pt x="450" y="312" on="1"/>
        <pt x="450" y="277" on="1"/>
        <pt x="133" y="277" on="1"/>
        <pt x="133" y="36" on="1"/>
        <pt x="475" y="36" on="1"/>
        <pt x="475" y="0" on="1"/>
        <pt x="93" y="0" on="1"/>
      </contour>
      <contour>
        <pt x="156" y="676" on="1"/>
        <pt x="283" y="733" on="1"/>
        <pt x="411" y="676" on="1"/>
        <pt x="411" y="637" on="1"/>
        <pt x="283" y="693" on="1"/>
        <pt x="156" y="637" on="1"/>
      </contour>
    </TTGlyph>
    <TTGlyph name="Edblgrave" xMin="99" yMin="0" xMax="537" yMax="920">
      <contour>
        <pt x="99" y="740" on="1"/>
        <pt x="529" y="740" on="1"/>
        <pt x="529" y="702" on="1"/>
        <pt x="139" y="702" on="1"/>
        <pt x="139" y="396" on="1"/>
        <pt x="507" y="396" on="1"/>
        <pt x="507" y="358" on="1"/>
        <pt x="139" y="358" on="1"/>
        <pt x="139" y="38" on="1"/>
        <pt x="537" y="38" on="1"/>
        <pt x="537" y="0" on="1"/>
        <pt x="99" y="0" on="1"/>
      </contour>
      <contour>
        <pt x="234" y="792" on="1"/>
        <pt x="147" y="920" on="1"/>
        <pt x="191" y="920" on="1"/>
        <pt x="269" y="806" on="1"/>
      </contour>
      <contour>
        <pt x="364" y="792" on="1"/>
        <pt x="278" y="920" on="1"/>
        <pt x="322" y="920" on="1"/>
        <pt x="400" y="806" on="1"/>
      </contour>
    </TTGlyph>
    <TTGlyph name="Edblgrave.sc" xMin="93" yMin="0" xMax="475" yMax="722">
      <contour>
        <pt x="93" y="577" on="1"/>
        <pt x="468" y="577" on="1"/>
        <pt x="468" y="541" on="1"/>
        <pt x="133" y="541" on="1"/>
        <pt x="133" y="312" on="1"/>
        <pt x="450" y="312" on="1"/>
        <pt x="450" y="277" on="1"/>
        <pt x="133" y="277" on="1"/>
        <pt x="133" y="36" on="1"/>
        <pt x="475" y="36" on="1"/>
        <pt x="475" y="0" on="1"/>
        <pt x="93" y="0" on="1"/>
      </contour>
      <contour>
        <pt x="135" y="722" on="1"/>
        <pt x="177" y="722" on="1"/>
        <pt x="243" y="629" on="1"/>
        <pt x="209" y="618" on="1"/>
      </contour>
      <contour>
        <pt x="249" y="722" on="1"/>
        <pt x="291" y="722" on="1"/>
        <pt x="358" y="629" on="1"/>
        <pt x="324" y="618" on="1"/>
      </contour>
    </TTGlyph>
    <TTGlyph name="Edieresis" xMin="99" yMin="0" xMax="537" yMax="897">
      <contour>
        <pt x="194" y="828" on="1"/>
        <pt x="179" y="828" on="0"/>
        <pt x="159" y="844" on="0"/>
        <pt x="159" y="863" on="1"/>
        <pt x="159" y="881" on="0"/>
        <pt x="179" y="897" on="0"/>
        <pt x="194" y="897" on="1"/>
        <pt x="208" y="897" on="0"/>
        <pt x="230" y="881" on="0"/>
        <pt x="230" y="863" on="1"/>
        <pt x="230" y="844" on="0"/>
        <pt x="208" y="828" on="0"/>
      </contour>
      <contour>
        <pt x="437" y="828" on="1"/>
        <pt x="422" y="828" on="0"/>
        <pt x="402" y="844" on="0"/>
        <pt x="402" y="863" on="1"/>
        <pt x="402" y="881" on="0"/>
        <pt x="422" y="897" on="0"/>
        <pt x="437" y="897" on="1"/>
        <pt x="451" y="897" on="0"/>
        <pt x="473" y="881" on="0"/>
        <pt x="473" y="863" on="1"/>
        <pt x="473" y="844" on="0"/>
        <pt x="451" y="828" on="0"/>
      </contour>
      <contour>
        <pt x="99" y="740" on="1"/>
        <pt x="529" y="740" on="1"/>
        <pt x="529" y="702" on="1"/>
        <pt x="139" y="702" on="1"/>
        <pt x="139" y="396" on="1"/>
        <pt x="507" y="396" on="1"/>
        <pt x="507" y="358" on="1"/>
        <pt x="139" y="358" on="1"/>
        <pt x="139" y="38" on="1"/>
        <pt x="537" y="38" on="1"/>
        <pt x="537" y="0" on="1"/>
        <pt x="99" y="0" on="1"/>
      </contour>
    </TTGlyph>
    <TTGlyph name="Edieresis.sc" xMin="93" yMin="0" xMax="475" yMax="707">
      <contour>
        <pt x="176" y="645" on="1"/>
        <pt x="162" y="645" on="0"/>
        <pt x="144" y="660" on="0"/>
        <pt x="144" y="676" on="1"/>
        <pt x="144" y="692" on="0"/>
        <pt x="162" y="707" on="0"/>
        <pt x="176" y="707" on="1"/>
        <pt x="190" y="707" on="0"/>
        <pt x="209" y="693" on="0"/>
        <pt x="209" y="676" on="1"/>
        <pt x="209" y="659" on="0"/>
        <pt x="190" y="645" on="0"/>
      </contour>
      <contour>
        <pt x="389" y="645" on="1"/>
        <pt x="375" y="645" on="0"/>
        <pt x="357" y="660" on="0"/>
        <pt x="357" y="676" on="1"/>
        <pt x="357" y="692" on="0"/>
        <pt x="375" y="707" on="0"/>
        <pt x="389" y="707" on="1"/>
        <pt x="403" y="707" on="0"/>
        <pt x="422" y="693" on="0"/>
        <pt x="422" y="676" on="1"/>
        <pt x="422" y="659" on="0"/>
        <pt x="403" y="645" on="0"/>
      </contour>
      <contour>
        <pt x="93" y="577" on="1"/>
        <pt x="468" y="577" on="1"/>
        <pt x="468" y="541" on="1"/>
        <pt x="133" y="541" on="1"/>
        <pt x="133" y="312" on="1"/>
        <pt x="450" y="312" on="1"/>
        <pt x="450" y="277" on="1"/>
        <pt x="133" y="277" on="1"/>
        <pt x="133" y="36" on="1"/>
        <pt x="475" y="36" on="1"/>
        <pt x="475" y="0" on="1"/>
        <pt x="93" y="0" on="1"/>
      </contour>
    </TTGlyph>
    <TTGlyph name="Edotaccent" xMin="99" yMin="0" xMax="537" yMax="889">
      <contour>
        <pt x="316" y="820" on="1"/>
        <pt x="301" y="820" on="0"/>
        <pt x="281" y="836" on="0"/>
        <pt x="281" y="855" on="1"/>
        <pt x="281" y="873" on="0"/>
        <pt x="301" y="889" on="0"/>
        <pt x="316" y="889" on="1"/>
        <pt x="330" y="889" on="0"/>
        <pt x="352" y="873" on="0"/>
        <pt x="352" y="855" on="1"/>
        <pt x="352" y="836" on="0"/>
        <pt x="330" y="820" on="0"/>
      </contour>
      <contour>
        <pt x="99" y="740" on="1"/>
        <pt x="529" y="740" on="1"/>
        <pt x="529" y="702" on="1"/>
        <pt x="139" y="702" on="1"/>
        <pt x="139" y="396" on="1"/>
        <pt x="507" y="396" on="1"/>
        <pt x="507" y="358" on="1"/>
        <pt x="139" y="358" on="1"/>
        <pt x="139" y="38" on="1"/>
        <pt x="537" y="38" on="1"/>
        <pt x="537" y="0" on="1"/>
        <pt x="99" y="0" on="1"/>
      </contour>
    </TTGlyph>
    <TTGlyph name="Edotaccent.sc" xMin="93" yMin="0" xMax="475" yMax="701">
      <contour>
        <pt x="283" y="640" on="1"/>
        <pt x="268" y="640" on="0"/>
        <pt x="250" y="654" on="0"/>
        <pt x="250" y="671" on="1"/>
        <pt x="250" y="687" on="0"/>
        <pt x="268" y="701" on="0"/>
        <pt x="283" y="701" on="1"/>
        <pt x="296" y="701" on="0"/>
        <pt x="315" y="687" on="0"/>
        <pt x="315" y="671" on="1"/>
        <pt x="315" y="654" on="0"/>
        <pt x="296" y="640" on="0"/>
      </contour>
      <contour>
        <pt x="93" y="577" on="1"/>
        <pt x="468" y="577" on="1"/>
        <pt x="468" y="541" on="1"/>
        <pt x="133" y="541" on="1"/>
        <pt x="133" y="312" on="1"/>
        <pt x="450" y="312" on="1"/>
        <pt x="450" y="277" on="1"/>
        <pt x="133" y="277" on="1"/>
        <pt x="133" y="36" on="1"/>
        <pt x="475" y="36" on="1"/>
        <pt x="475" y="0" on="1"/>
        <pt x="93" y="0" on="1"/>
      </contour>
    </TTGlyph>
    <TTGlyph name="Edotbelow" xMin="99" yMin="-169" xMax="537" yMax="740">
      <contour>
        <pt x="99" y="740" on="1"/>
        <pt x="529" y="740" on="1"/>
        <pt x="529" y="702" on="1"/>
        <pt x="139" y="702" on="1"/>
        <pt x="139" y="396" on="1"/>
        <pt x="507" y="396" on="1"/>
        <pt x="507" y="358" on="1"/>
        <pt x="139" y="358" on="1"/>
        <pt x="139" y="38" on="1"/>
        <pt x="537" y="38" on="1"/>
        <pt x="537" y="0" on="1"/>
        <pt x="99" y="0" on="1"/>
      </contour>
      <contour>
        <pt x="334" y="-169" on="1"/>
        <pt x="317" y="-169" on="0"/>
        <pt x="296" y="-152" on="0"/>
        <pt x="296" y="-131" on="1"/>
        <pt x="296" y="-110" on="0"/>
        <pt x="317" y="-92" on="0"/>
        <pt x="334" y="-92" on="1"/>
        <pt x="351" y="-92" on="0"/>
        <pt x="373" y="-110" on="0"/>
        <pt x="373" y="-131" on="1"/>
        <pt x="373" y="-152" on="0"/>
        <pt x="351" y="-169" on="0"/>
      </contour>
    </TTGlyph>
    <TTGlyph name="Edotbelow.sc" xMin="93" yMin="-135" xMax="475" yMax="577">
      <contour>
        <pt x="298" y="-135" on="1"/>
        <pt x="264" y="-135" on="0"/>
        <pt x="264" y="-103" on="1"/>
        <pt x="264" y="-70" on="0"/>
        <pt x="298" y="-70" on="1"/>
        <pt x="313" y="-70" on="0"/>
        <pt x="333" y="-85" on="0"/>
        <pt x="333" y="-103" on="1"/>
        <pt x="333" y="-120" on="0"/>
        <pt x="313" y="-135" on="0"/>
      </contour>
      <contour>
        <pt x="93" y="577" on="1"/>
        <pt x="468" y="577" on="1"/>
        <pt x="468" y="541" on="1"/>
        <pt x="133" y="541" on="1"/>
        <pt x="133" y="312" on="1"/>
        <pt x="450" y="312" on="1"/>
        <pt x="450" y="277" on="1"/>
        <pt x="133" y="277" on="1"/>
        <pt x="133" y="36" on="1"/>
        <pt x="475" y="36" on="1"/>
        <pt x="475" y="0" on="1"/>
        <pt x="93" y="0" on="1"/>
      </contour>
    </TTGlyph>
    <TTGlyph name="Egrave" xMin="99" yMin="0" xMax="537" yMax="927">
      <contour>
        <pt x="300" y="799" on="1"/>
        <pt x="214" y="927" on="1"/>
        <pt x="258" y="927" on="1"/>
        <pt x="336" y="813" on="1"/>
      </contour>
      <contour>
        <pt x="99" y="740" on="1"/>
        <pt x="529" y="740" on="1"/>
        <pt x="529" y="702" on="1"/>
        <pt x="139" y="702" on="1"/>
        <pt x="139" y="396" on="1"/>
        <pt x="507" y="396" on="1"/>
        <pt x="507" y="358" on="1"/>
        <pt x="139" y="358" on="1"/>
        <pt x="139" y="38" on="1"/>
        <pt x="537" y="38" on="1"/>
        <pt x="537" y="0" on="1"/>
        <pt x="99" y="0" on="1"/>
      </contour>
    </TTGlyph>
    <TTGlyph name="Egrave.sc" xMin="93" yMin="0" xMax="475" yMax="728">
      <contour>
        <pt x="93" y="577" on="1"/>
        <pt x="468" y="577" on="1"/>
        <pt x="468" y="541" on="1"/>
        <pt x="133" y="541" on="1"/>
        <pt x="133" y="312" on="1"/>
        <pt x="450" y="312" on="1"/>
        <pt x="450" y="277" on="1"/>
        <pt x="133" y="277" on="1"/>
        <pt x="133" y="36" on="1"/>
        <pt x="475" y="36" on="1"/>
        <pt x="475" y="0" on="1"/>
        <pt x="93" y="0" on="1"/>
      </contour>
      <contour>
        <pt x="194" y="728" on="1"/>
        <pt x="237" y="728" on="1"/>
        <pt x="303" y="635" on="1"/>
        <pt x="269" y="624" on="1"/>
      </contour>
    </TTGlyph>
    <TTGlyph name="Einvertedbreve" xMin="99" yMin="0" xMax="537" yMax="952">
      <contour>
        <pt x="99" y="740" on="1"/>
        <pt x="529" y="740" on="1"/>
        <pt x="529" y="702" on="1"/>
        <pt x="139" y="702" on="1"/>
        <pt x="139" y="396" on="1"/>
        <pt x="507" y="396" on="1"/>
        <pt x="507" y="358" on="1"/>
        <pt x="139" y="358" on="1"/>
        <pt x="139" y="38" on="1"/>
        <pt x="537" y="38" on="1"/>
        <pt x="537" y="0" on="1"/>
        <pt x="99" y="0" on="1"/>
      </contour>
      <contour>
        <pt x="438" y="818" on="1"/>
        <pt x="438" y="864" on="0"/>
        <pt x="373" y="916" on="0"/>
        <pt x="316" y="916" on="1"/>
        <pt x="258" y="916" on="0"/>
        <pt x="193" y="864" on="0"/>
        <pt x="193" y="818" on="1"/>
        <pt x="155" y="818" on="1"/>
        <pt x="155" y="881" on="0"/>
        <pt x="240" y="952" on="0"/>
        <pt x="316" y="952" on="1"/>
        <pt x="391" y="952" on="0"/>
        <pt x="476" y="881" on="0"/>
        <pt x="476" y="818" on="1"/>
      </contour>
    </TTGlyph>
    <TTGlyph name="Einvertedbreve.sc" xMin="93" yMin="0" xMax="475" yMax="745">
      <contour>
        <pt x="142" y="638" on="1"/>
        <pt x="142" y="687" on="0"/>
        <pt x="215" y="745" on="0"/>
        <pt x="282" y="745" on="1"/>
        <pt x="348" y="745" on="0"/>
        <pt x="422" y="688" on="0"/>
        <pt x="422" y="638" on="1"/>
        <pt x="387" y="638" on="1"/>
        <pt x="387" y="674" on="0"/>
        <pt x="332" y="714" on="0"/>
        <pt x="282" y="714" on="1"/>
        <pt x="232" y="714" on="0"/>
        <pt x="177" y="674" on="0"/>
        <pt x="177" y="638" on="1"/>
      </contour>
      <contour>
        <pt x="93" y="577" on="1"/>
        <pt x="468" y="577" on="1"/>
        <pt x="468" y="541" on="1"/>
        <pt x="133" y="541" on="1"/>
        <pt x="133" y="312" on="1"/>
        <pt x="450" y="312" on="1"/>
        <pt x="450" y="277" on="1"/>
        <pt x="133" y="277" on="1"/>
        <pt x="133" y="36" on="1"/>
        <pt x="475" y="36" on="1"/>
        <pt x="475" y="0" on="1"/>
        <pt x="93" y="0" on="1"/>
      </contour>
    </TTGlyph>
    <TTGlyph name="Emacron" xMin="99" yMin="0" xMax="537" yMax="879">
      <contour>
        <pt x="173" y="879" on="1"/>
        <pt x="454" y="879" on="1"/>
        <pt x="454" y="842" on="1"/>
        <pt x="173" y="842" on="1"/>
      </contour>
      <contour>
        <pt x="99" y="740" on="1"/>
        <pt x="529" y="740" on="1"/>
        <pt x="529" y="702" on="1"/>
        <pt x="139" y="702" on="1"/>
        <pt x="139" y="396" on="1"/>
        <pt x="507" y="396" on="1"/>
        <pt x="507" y="358" on="1"/>
        <pt x="139" y="358" on="1"/>
        <pt x="139" y="38" on="1"/>
        <pt x="537" y="38" on="1"/>
        <pt x="537" y="0" on="1"/>
        <pt x="99" y="0" on="1"/>
      </contour>
    </TTGlyph>
    <TTGlyph name="Emacron.sc" xMin="93" yMin="0" xMax="475" yMax="691">
      <contour>
        <pt x="93" y="577" on="1"/>
        <pt x="468" y="577" on="1"/>
        <pt x="468" y="541" on="1"/>
        <pt x="133" y="541" on="1"/>
        <pt x="133" y="312" on="1"/>
        <pt x="450" y="312" on="1"/>
        <pt x="450" y="277" on="1"/>
        <pt x="133" y="277" on="1"/>
        <pt x="133" y="36" on="1"/>
        <pt x="475" y="36" on="1"/>
        <pt x="475" y="0" on="1"/>
        <pt x="93" y="0" on="1"/>
      </contour>
      <contour>
        <pt x="158" y="691" on="1"/>
        <pt x="405" y="691" on="1"/>
        <pt x="405" y="657" on="1"/>
        <pt x="158" y="657" on="1"/>
      </contour>
    </TTGlyph>
    <TTGlyph name="Eng" xMin="99" yMin="-182" xMax="662" yMax="740">
      <contour>
        <pt x="546" y="-173" on="1"/>
        <pt x="558" y="-152" on="0"/>
        <pt x="580" y="-103" on="0"/>
        <pt x="598" y="-54" on="0"/>
        <pt x="611" y="-7" on="0"/>
        <pt x="614" y="11" on="1"/>
        <pt x="198" y="588" on="1"/>
        <pt x="143" y="673" on="1"/>
        <pt x="138" y="673" on="1"/>
        <pt x="138" y="0" on="1"/>
        <pt x="99" y="0" on="1"/>
        <pt x="99" y="740" on="1"/>
        <pt x="138" y="740" on="1"/>
        <pt x="558" y="156" on="1"/>
        <pt x="618" y="66" on="1"/>
        <pt x="623" y="66" on="1"/>
        <pt x="623" y="740" on="1"/>
        <pt x="662" y="740" on="1"/>
        <pt x="662" y="68" on="1"/>
        <pt x="662" y="40" on="0"/>
        <pt x="649" y="-26" on="0"/>
        <pt x="627" y="-93" on="0"/>
        <pt x="597" y="-157" on="0"/>
        <pt x="579" y="-182" on="1"/>
      </contour>
    </TTGlyph>
    <TTGlyph name="Eng.sc" xMin="93" yMin="-144" xMax="582" yMax="577">
      <contour>
        <pt x="478" y="-135" on="1"/>
        <pt x="488" y="-118" on="0"/>
        <pt x="506" y="-79" on="0"/>
        <pt x="522" y="-40" on="0"/>
        <pt x="533" y="-4" on="0"/>
        <pt x="535" y="11" on="1"/>
        <pt x="184" y="447" on="1"/>
        <pt x="136" y="513" on="1"/>
        <pt x="131" y="513" on="1"/>
        <pt x="131" y="0" on="1"/>
        <pt x="93" y="0" on="1"/>
        <pt x="93" y="577" on="1"/>
        <pt x="131" y="577" on="1"/>
        <pt x="487" y="134" on="1"/>
        <pt x="539" y="63" on="1"/>
        <pt x="543" y="63" on="1"/>
        <pt x="543" y="577" on="1"/>
        <pt x="582" y="577" on="1"/>
        <pt x="582" y="57" on="1"/>
        <pt x="582" y="35" on="0"/>
        <pt x="571" y="-18" on="0"/>
        <pt x="551" y="-72" on="0"/>
        <pt x="524" y="-123" on="0"/>
        <pt x="509" y="-144" on="1"/>
      </contour>
    </TTGlyph>
    <TTGlyph name="Eogonek" xMin="99" yMin="-220" xMax="537" yMax="740">
      <contour>
        <pt x="99" y="740" on="1"/>
        <pt x="529" y="740" on="1"/>
        <pt x="529" y="702" on="1"/>
        <pt x="139" y="702" on="1"/>
        <pt x="139" y="396" on="1"/>
        <pt x="507" y="396" on="1"/>
        <pt x="507" y="358" on="1"/>
        <pt x="139" y="358" on="1"/>
        <pt x="139" y="38" on="1"/>
        <pt x="537" y="38" on="1"/>
        <pt x="537" y="-22" on="1"/>
        <pt x="475" y="-52" on="0"/>
        <pt x="422" y="-108" on="0"/>
        <pt x="422" y="-143" on="1"/>
        <pt x="422" y="-166" on="0"/>
        <pt x="447" y="-187" on="0"/>
        <pt x="476" y="-187" on="1"/>
        <pt x="505" y="-187" on="0"/>
        <pt x="535" y="-177" on="1"/>
        <pt x="535" y="-208" on="1"/>
        <pt x="521" y="-213" on="0"/>
        <pt x="486" y="-220" on="0"/>
        <pt x="468" y="-220" on="1"/>
        <pt x="385" y="-220" on="0"/>
        <pt x="385" y="-144" on="1"/>
        <pt x="385" y="-124" on="0"/>
        <pt x="397" y="-89" on="0"/>
        <pt x="424" y="-55" on="0"/>
        <pt x="470" y="-20" on="0"/>
        <pt x="503" y="0" on="1"/>
        <pt x="99" y="0" on="1"/>
      </contour>
    </TTGlyph>
    <TTGlyph name="Eogonek.sc" xMin="93" yMin="-172" xMax="475" yMax="577">
      <contour>
        <pt x="415" y="-172" on="1"/>
        <pt x="342" y="-172" on="0"/>
        <pt x="342" y="-111" on="1"/>
        <pt x="342" y="-96" on="0"/>
        <pt x="351" y="-69" on="0"/>
        <pt x="373" y="-44" on="0"/>
        <pt x="411" y="-17" on="0"/>
        <pt x="440" y="0" on="1"/>
        <pt x="93" y="0" on="1"/>
        <pt x="93" y="577" on="1"/>
        <pt x="468" y="577" on="1"/>
        <pt x="468" y="541" on="1"/>
        <pt x="133" y="541" on="1"/>
        <pt x="133" y="312" on="1"/>
        <pt x="450" y="312" on="1"/>
        <pt x="450" y="277" on="1"/>
        <pt x="133" y="277" on="1"/>
        <pt x="133" y="36" on="1"/>
        <pt x="475" y="36" on="1"/>
        <pt x="475" y="-16" on="1"/>
        <pt x="429" y="-36" on="0"/>
        <pt x="376" y="-80" on="0"/>
        <pt x="376" y="-109" on="1"/>
        <pt x="376" y="-128" on="0"/>
        <pt x="400" y="-142" on="0"/>
        <pt x="421" y="-142" on="1"/>
        <pt x="448" y="-142" on="0"/>
        <pt x="474" y="-134" on="1"/>
        <pt x="474" y="-162" on="1"/>
        <pt x="462" y="-167" on="0"/>
        <pt x="432" y="-172" on="0"/>
      </contour>
    </TTGlyph>
    <TTGlyph name="Eth" xMin="5" yMin="-11" xMax="650" yMax="749">
      <contour>
        <pt x="5" y="387" on="1"/>
        <pt x="105" y="387" on="1"/>
        <pt x="105" y="737" on="1"/>
        <pt x="123" y="739" on="0"/>
        <pt x="171" y="744" on="0"/>
        <pt x="222" y="747" on="0"/>
        <pt x="270" y="749" on="0"/>
        <pt x="287" y="749" on="1"/>
        <pt x="474" y="749" on="0"/>
        <pt x="650" y="564" on="0"/>
        <pt x="650" y="370" on="1"/>
        <pt x="650" y="174" on="0"/>
        <pt x="468" y="-11" on="0"/>
        <pt x="275" y="-11" on="1"/>
        <pt x="218" y="-11" on="0"/>
        <pt x="126" y="-4" on="0"/>
        <pt x="105" y="4" on="1"/>
        <pt x="105" y="349" on="1"/>
        <pt x="5" y="349" on="1"/>
      </contour>
      <contour>
        <pt x="279" y="28" on="1"/>
        <pt x="448" y="28" on="0"/>
        <pt x="609" y="195" on="0"/>
        <pt x="609" y="370" on="1"/>
        <pt x="609" y="545" on="0"/>
        <pt x="453" y="709" on="0"/>
        <pt x="287" y="709" on="1"/>
        <pt x="272" y="709" on="0"/>
        <pt x="236" y="708" on="0"/>
        <pt x="197" y="706" on="0"/>
        <pt x="160" y="703" on="0"/>
        <pt x="145" y="701" on="1"/>
        <pt x="145" y="387" on="1"/>
        <pt x="358" y="387" on="1"/>
        <pt x="358" y="349" on="1"/>
        <pt x="145" y="349" on="1"/>
        <pt x="145" y="37" on="1"/>
        <pt x="185" y="32" on="0"/>
        <pt x="243" y="28" on="0"/>
      </contour>
    </TTGlyph>
    <TTGlyph name="Eth.sc" xMin="13" yMin="-8" xMax="574" yMax="584">
      <contour>
        <pt x="13" y="305" on="1"/>
        <pt x="98" y="305" on="1"/>
        <pt x="98" y="576" on="1"/>
        <pt x="114" y="577" on="0"/>
        <pt x="157" y="580" on="0"/>
        <pt x="202" y="583" on="0"/>
        <pt x="243" y="584" on="0"/>
        <pt x="258" y="584" on="1"/>
        <pt x="421" y="584" on="0"/>
        <pt x="574" y="441" on="0"/>
        <pt x="574" y="289" on="1"/>
        <pt x="574" y="135" on="0"/>
        <pt x="417" y="-8" on="0"/>
        <pt x="249" y="-8" on="1"/>
        <pt x="198" y="-8" on="0"/>
        <pt x="117" y="-2" on="0"/>
        <pt x="98" y="4" on="1"/>
        <pt x="98" y="269" on="1"/>
        <pt x="13" y="269" on="1"/>
      </contour>
      <contour>
        <pt x="255" y="28" on="1"/>
        <pt x="398" y="28" on="0"/>
        <pt x="533" y="155" on="0"/>
        <pt x="533" y="289" on="1"/>
        <pt x="533" y="422" on="0"/>
        <pt x="401" y="547" on="0"/>
        <pt x="259" y="547" on="1"/>
        <pt x="247" y="547" on="0"/>
        <pt x="216" y="546" on="0"/>
        <pt x="183" y="544" on="0"/>
        <pt x="151" y="541" on="0"/>
        <pt x="138" y="540" on="1"/>
        <pt x="138" y="305" on="1"/>
        <pt x="318" y="305" on="1"/>
        <pt x="318" y="269" on="1"/>
        <pt x="138" y="269" on="1"/>
        <pt x="138" y="36" on="1"/>
        <pt x="173" y="31" on="0"/>
        <pt x="223" y="28" on="0"/>
      </contour>
    </TTGlyph>
    <TTGlyph name="Etilde" xMin="99" yMin="0" xMax="537" yMax="913">
      <contour>
        <pt x="140" y="863" on="1"/>
        <pt x="165" y="887" on="0"/>
        <pt x="219" y="913" on="0"/>
        <pt x="248" y="913" on="1"/>
        <pt x="271" y="913" on="0"/>
        <pt x="309" y="900" on="0"/>
        <pt x="345" y="883" on="0"/>
        <pt x="380" y="870" on="0"/>
        <pt x="401" y="870" on="1"/>
        <pt x="447" y="870" on="0"/>
        <pt x="486" y="909" on="1"/>
        <pt x="511" y="885" on="1"/>
        <pt x="489" y="862" on="0"/>
        <pt x="430" y="834" on="0"/>
        <pt x="398" y="834" on="1"/>
        <pt x="378" y="834" on="0"/>
        <pt x="340" y="847" on="0"/>
        <pt x="303" y="863" on="0"/>
        <pt x="267" y="876" on="0"/>
        <pt x="248" y="876" on="1"/>
        <pt x="227" y="876" on="0"/>
        <pt x="184" y="858" on="0"/>
        <pt x="164" y="839" on="1"/>
      </contour>
      <contour>
        <pt x="99" y="740" on="1"/>
        <pt x="529" y="740" on="1"/>
        <pt x="529" y="702" on="1"/>
        <pt x="139" y="702" on="1"/>
        <pt x="139" y="396" on="1"/>
        <pt x="507" y="396" on="1"/>
        <pt x="507" y="358" on="1"/>
        <pt x="139" y="358" on="1"/>
        <pt x="139" y="38" on="1"/>
        <pt x="537" y="38" on="1"/>
        <pt x="537" y="0" on="1"/>
        <pt x="99" y="0" on="1"/>
      </contour>
    </TTGlyph>
    <TTGlyph name="Etilde.sc" xMin="93" yMin="0" xMax="475" yMax="717">
      <contour>
        <pt x="129" y="673" on="1"/>
        <pt x="151" y="694" on="0"/>
        <pt x="199" y="717" on="0"/>
        <pt x="224" y="717" on="1"/>
        <pt x="244" y="717" on="0"/>
        <pt x="277" y="707" on="0"/>
        <pt x="309" y="694" on="0"/>
        <pt x="340" y="684" on="0"/>
        <pt x="358" y="684" on="1"/>
        <pt x="397" y="684" on="0"/>
        <pt x="434" y="713" on="1"/>
        <pt x="454" y="695" on="1"/>
        <pt x="434" y="674" on="0"/>
        <pt x="382" y="650" on="0"/>
        <pt x="354" y="650" on="1"/>
        <pt x="337" y="650" on="0"/>
        <pt x="304" y="660" on="0"/>
        <pt x="271" y="673" on="0"/>
        <pt x="239" y="683" on="0"/>
        <pt x="223" y="683" on="1"/>
        <pt x="184" y="683" on="0"/>
        <pt x="149" y="654" on="1"/>
      </contour>
      <contour>
        <pt x="93" y="577" on="1"/>
        <pt x="468" y="577" on="1"/>
        <pt x="468" y="541" on="1"/>
        <pt x="133" y="541" on="1"/>
        <pt x="133" y="312" on="1"/>
        <pt x="450" y="312" on="1"/>
        <pt x="450" y="277" on="1"/>
        <pt x="133" y="277" on="1"/>
        <pt x="133" y="36" on="1"/>
        <pt x="475" y="36" on="1"/>
        <pt x="475" y="0" on="1"/>
        <pt x="93" y="0" on="1"/>
      </contour>
    </TTGlyph>
    <TTGlyph name="Euro" xMin="49" yMin="-10" xMax="550" yMax="749">
      <contour>
        <pt x="49" y="471" on="1"/>
        <pt x="141" y="471" on="1"/>
        <pt x="150" y="545" on="0"/>
        <pt x="198" y="651" on="0"/>
        <pt x="281" y="718" on="0"/>
        <pt x="401" y="749" on="0"/>
        <pt x="481" y="749" on="1"/>
        <pt x="504" y="749" on="0"/>
        <pt x="533" y="747" on="0"/>
        <pt x="550" y="746" on="1"/>
        <pt x="530" y="708" on="1"/>
        <pt x="522" y="709" on="0"/>
        <pt x="503" y="710" on="0"/>
        <pt x="487" y="710" on="1"/>
        <pt x="415" y="710" on="0"/>
        <pt x="307" y="684" on="0"/>
        <pt x="233" y="626" on="0"/>
        <pt x="190" y="535" on="0"/>
        <pt x="182" y="471" on="1"/>
        <pt x="462" y="471" on="1"/>
        <pt x="445" y="435" on="1"/>
        <pt x="178" y="435" on="1"/>
        <pt x="176" y="419" on="0"/>
        <pt x="176" y="387" on="0"/>
        <pt x="176" y="370" on="1"/>
        <pt x="176" y="352" on="0"/>
        <pt x="177" y="320" on="0"/>
        <pt x="178" y="304" on="1"/>
        <pt x="423" y="304" on="1"/>
        <pt x="406" y="268" on="1"/>
        <pt x="182" y="268" on="1"/>
        <pt x="200" y="142" on="0"/>
        <pt x="343" y="29" on="0"/>
        <pt x="481" y="29" on="1"/>
        <pt x="489" y="29" on="0"/>
        <pt x="515" y="30" on="0"/>
        <pt x="532" y="31" on="1"/>
        <pt x="532" y="-8" on="1"/>
        <pt x="523" y="-10" on="0"/>
        <pt x="502" y="-10" on="0"/>
        <pt x="483" y="-10" on="1"/>
        <pt x="326" y="-8" on="0"/>
        <pt x="161" y="124" on="0"/>
        <pt x="142" y="268" on="1"/>
        <pt x="49" y="268" on="1"/>
        <pt x="49" y="304" on="1"/>
        <pt x="138" y="304" on="1"/>
        <pt x="137" y="320" on="0"/>
        <pt x="136" y="353" on="0"/>
        <pt x="136" y="370" on="1"/>
        <pt x="136" y="387" on="0"/>
        <pt x="136" y="419" on="0"/>
        <pt x="138" y="435" on="1"/>
        <pt x="49" y="435" on="1"/>
      </contour>
    </TTGlyph>
    <TTGlyph name="Euro.tab" xMin="24" yMin="-10" xMax="510" yMax="749">
      <contour>
        <pt x="24" y="471" on="1"/>
        <pt x="113" y="471" on="1"/>
        <pt x="122" y="546" on="0"/>
        <pt x="168" y="651" on="0"/>
        <pt x="249" y="718" on="0"/>
        <pt x="364" y="749" on="0"/>
        <pt x="442" y="749" on="1"/>
        <pt x="465" y="749" on="0"/>
        <pt x="493" y="747" on="0"/>
        <pt x="510" y="746" on="1"/>
        <pt x="491" y="708" on="1"/>
        <pt x="483" y="709" on="0"/>
        <pt x="463" y="710" on="0"/>
        <pt x="448" y="710" on="1"/>
        <pt x="379" y="710" on="0"/>
        <pt x="276" y="684" on="0"/>
        <pt x="204" y="626" on="0"/>
        <pt x="162" y="535" on="0"/>
        <pt x="154" y="471" on="1"/>
        <pt x="425" y="471" on="1"/>
        <pt x="408" y="435" on="1"/>
        <pt x="150" y="435" on="1"/>
        <pt x="149" y="420" on="0"/>
        <pt x="148" y="387" on="0"/>
        <pt x="148" y="370" on="1"/>
        <pt x="148" y="335" on="0"/>
        <pt x="151" y="304" on="1"/>
        <pt x="387" y="304" on="1"/>
        <pt x="370" y="268" on="1"/>
        <pt x="155" y="268" on="1"/>
        <pt x="172" y="143" on="0"/>
        <pt x="311" y="29" on="0"/>
        <pt x="443" y="29" on="1"/>
        <pt x="450" y="29" on="0"/>
        <pt x="476" y="30" on="0"/>
        <pt x="492" y="31" on="1"/>
        <pt x="492" y="-8" on="1"/>
        <pt x="484" y="-10" on="0"/>
        <pt x="462" y="-10" on="0"/>
        <pt x="444" y="-10" on="1"/>
        <pt x="292" y="-8" on="0"/>
        <pt x="132" y="124" on="0"/>
        <pt x="114" y="268" on="1"/>
        <pt x="24" y="268" on="1"/>
        <pt x="24" y="304" on="1"/>
        <pt x="110" y="304" on="1"/>
        <pt x="109" y="320" on="0"/>
        <pt x="108" y="353" on="0"/>
        <pt x="108" y="370" on="1"/>
        <pt x="108" y="387" on="0"/>
        <pt x="108" y="420" on="0"/>
        <pt x="110" y="435" on="1"/>
        <pt x="24" y="435" on="1"/>
      </contour>
    </TTGlyph>
    <TTGlyph name="F" xMin="99" yMin="0" xMax="524" yMax="740">
      <contour>
        <pt x="99" y="740" on="1"/>
        <pt x="524" y="740" on="1"/>
        <pt x="524" y="702" on="1"/>
        <pt x="139" y="702" on="1"/>
        <pt x="139" y="396" on="1"/>
        <pt x="492" y="396" on="1"/>
        <pt x="492" y="357" on="1"/>
        <pt x="139" y="357" on="1"/>
        <pt x="139" y="0" on="1"/>
        <pt x="99" y="0" on="1"/>
      </contour>
    </TTGlyph>
    <TTGlyph name="F.sc" xMin="93" yMin="0" xMax="465" yMax="577">
      <contour>
        <pt x="93" y="577" on="1"/>
        <pt x="465" y="577" on="1"/>
        <pt x="465" y="541" on="1"/>
        <pt x="133" y="541" on="1"/>
        <pt x="133" y="310" on="1"/>
        <pt x="436" y="310" on="1"/>
        <pt x="436" y="275" on="1"/>
        <pt x="133" y="275" on="1"/>
        <pt x="133" y="0" on="1"/>
        <pt x="93" y="0" on="1"/>
      </contour>
    </TTGlyph>
    <TTGlyph name="F_B.sc" xMin="93" yMin="-8" xMax="993" yMax="584">
      <contour>
        <pt x="93" y="577" on="1"/>
        <pt x="465" y="577" on="1"/>
        <pt x="465" y="541" on="1"/>
        <pt x="133" y="541" on="1"/>
        <pt x="133" y="310" on="1"/>
        <pt x="436" y="310" on="1"/>
        <pt x="436" y="275" on="1"/>
        <pt x="133" y="275" on="1"/>
        <pt x="133" y="0" on="1"/>
        <pt x="93" y="0" on="1"/>
      </contour>
      <contour>
        <pt x="756" y="-8" on="1"/>
        <pt x="716" y="-8" on="0"/>
        <pt x="623" y="-2" on="0"/>
        <pt x="574" y="4" on="1"/>
        <pt x="574" y="573" on="1"/>
        <pt x="634" y="579" on="0"/>
        <pt x="715" y="584" on="0"/>
        <pt x="751" y="584" on="1"/>
        <pt x="870" y="584" on="0"/>
        <pt x="972" y="512" on="0"/>
        <pt x="972" y="431" on="1"/>
        <pt x="972" y="377" on="0"/>
        <pt x="913" y="303" on="0"/>
        <pt x="862" y="295" on="1"/>
        <pt x="862" y="292" on="1"/>
        <pt x="926" y="281" on="0"/>
        <pt x="993" y="209" on="0"/>
        <pt x="993" y="150" on="1"/>
        <pt x="993" y="-8" on="0"/>
      </contour>
      <contour>
        <pt x="756" y="27" on="1"/>
        <pt x="857" y="27" on="0"/>
        <pt x="952" y="88" on="0"/>
        <pt x="952" y="151" on="1"/>
        <pt x="952" y="275" on="0"/>
        <pt x="773" y="275" on="1"/>
        <pt x="614" y="275" on="1"/>
        <pt x="614" y="36" on="1"/>
        <pt x="637" y="31" on="0"/>
        <pt x="711" y="27" on="0"/>
      </contour>
      <contour>
        <pt x="771" y="309" on="1"/>
        <pt x="858" y="309" on="0"/>
        <pt x="932" y="365" on="0"/>
        <pt x="932" y="430" on="1"/>
        <pt x="932" y="494" on="0"/>
        <pt x="850" y="549" on="0"/>
        <pt x="752" y="549" on="1"/>
        <pt x="708" y="549" on="0"/>
        <pt x="643" y="546" on="0"/>
        <pt x="614" y="541" on="1"/>
        <pt x="614" y="309" on="1"/>
      </contour>
    </TTGlyph>
    <TTGlyph name="F_F.sc" xMin="93" yMin="0" xMax="946" yMax="577">
      <contour>
        <pt x="93" y="577" on="1"/>
        <pt x="465" y="577" on="1"/>
        <pt x="465" y="541" on="1"/>
        <pt x="133" y="541" on="1"/>
        <pt x="133" y="310" on="1"/>
        <pt x="436" y="310" on="1"/>
        <pt x="436" y="275" on="1"/>
        <pt x="133" y="275" on="1"/>
        <pt x="133" y="0" on="1"/>
        <pt x="93" y="0" on="1"/>
      </contour>
      <contour>
        <pt x="574" y="577" on="1"/>
        <pt x="946" y="577" on="1"/>
        <pt x="946" y="541" on="1"/>
        <pt x="614" y="541" on="1"/>
        <pt x="614" y="310" on="1"/>
        <pt x="917" y="310" on="1"/>
        <pt x="917" y="275" on="1"/>
        <pt x="614" y="275" on="1"/>
        <pt x="614" y="0" on="1"/>
        <pt x="574" y="0" on="1"/>
      </contour>
    </TTGlyph>
    <TTGlyph name="F_F_B.sc" xMin="93" yMin="-8" xMax="1473" yMax="584">
      <contour>
        <pt x="93" y="577" on="1"/>
        <pt x="465" y="577" on="1"/>
        <pt x="465" y="541" on="1"/>
        <pt x="133" y="541" on="1"/>
        <pt x="133" y="310" on="1"/>
        <pt x="436" y="310" on="1"/>
        <pt x="436" y="275" on="1"/>
        <pt x="133" y="275" on="1"/>
        <pt x="133" y="0" on="1"/>
        <pt x="93" y="0" on="1"/>
      </contour>
      <contour>
        <pt x="574" y="577" on="1"/>
        <pt x="946" y="577" on="1"/>
        <pt x="946" y="541" on="1"/>
        <pt x="614" y="541" on="1"/>
        <pt x="614" y="310" on="1"/>
        <pt x="917" y="310" on="1"/>
        <pt x="917" y="275" on="1"/>
        <pt x="614" y="275" on="1"/>
        <pt x="614" y="0" on="1"/>
        <pt x="574" y="0" on="1"/>
      </contour>
      <contour>
        <pt x="1236" y="-8" on="1"/>
        <pt x="1196" y="-8" on="0"/>
        <pt x="1103" y="-2" on="0"/>
        <pt x="1054" y="4" on="1"/>
        <pt x="1054" y="573" on="1"/>
        <pt x="1114" y="579" on="0"/>
        <pt x="1195" y="584" on="0"/>
        <pt x="1231" y="584" on="1"/>
        <pt x="1350" y="584" on="0"/>
        <pt x="1452" y="512" on="0"/>
        <pt x="1452" y="431" on="1"/>
        <pt x="1452" y="377" on="0"/>
        <pt x="1393" y="303" on="0"/>
        <pt x="1342" y="295" on="1"/>
        <pt x="1342" y="292" on="1"/>
        <pt x="1406" y="281" on="0"/>
        <pt x="1473" y="209" on="0"/>
        <pt x="1473" y="150" on="1"/>
        <pt x="1473" y="-8" on="0"/>
      </contour>
      <contour>
        <pt x="1236" y="27" on="1"/>
        <pt x="1337" y="27" on="0"/>
        <pt x="1432" y="88" on="0"/>
        <pt x="1432" y="151" on="1"/>
        <pt x="1432" y="275" on="0"/>
        <pt x="1253" y="275" on="1"/>
        <pt x="1094" y="275" on="1"/>
        <pt x="1094" y="36" on="1"/>
        <pt x="1117" y="31" on="0"/>
        <pt x="1191" y="27" on="0"/>
      </contour>
      <contour>
        <pt x="1251" y="309" on="1"/>
        <pt x="1338" y="309" on="0"/>
        <pt x="1412" y="365" on="0"/>
        <pt x="1412" y="430" on="1"/>
        <pt x="1412" y="494" on="0"/>
        <pt x="1330" y="549" on="0"/>
        <pt x="1232" y="549" on="1"/>
        <pt x="1188" y="549" on="0"/>
        <pt x="1123" y="546" on="0"/>
        <pt x="1094" y="541" on="1"/>
        <pt x="1094" y="309" on="1"/>
      </contour>
    </TTGlyph>
    <TTGlyph name="F_F_H.sc" xMin="93" yMin="0" xMax="1526" yMax="577">
      <contour>
        <pt x="93" y="577" on="1"/>
        <pt x="465" y="577" on="1"/>
        <pt x="465" y="541" on="1"/>
        <pt x="133" y="541" on="1"/>
        <pt x="133" y="310" on="1"/>
        <pt x="436" y="310" on="1"/>
        <pt x="436" y="275" on="1"/>
        <pt x="133" y="275" on="1"/>
        <pt x="133" y="0" on="1"/>
        <pt x="93" y="0" on="1"/>
      </contour>
      <contour>
        <pt x="574" y="577" on="1"/>
        <pt x="946" y="577" on="1"/>
        <pt x="946" y="541" on="1"/>
        <pt x="614" y="541" on="1"/>
        <pt x="614" y="310" on="1"/>
        <pt x="917" y="310" on="1"/>
        <pt x="917" y="275" on="1"/>
        <pt x="614" y="275" on="1"/>
        <pt x="614" y="0" on="1"/>
        <pt x="574" y="0" on="1"/>
      </contour>
      <contour>
        <pt x="1054" y="577" on="1"/>
        <pt x="1094" y="577" on="1"/>
        <pt x="1094" y="314" on="1"/>
        <pt x="1486" y="314" on="1"/>
        <pt x="1486" y="577" on="1"/>
        <pt x="1526" y="577" on="1"/>
        <pt x="1526" y="0" on="1"/>
        <pt x="1486" y="0" on="1"/>
        <pt x="1486" y="278" on="1"/>
        <pt x="1094" y="278" on="1"/>
        <pt x="1094" y="0" on="1"/>
        <pt x="1054" y="0" on="1"/>
      </contour>
    </TTGlyph>
    <TTGlyph name="F_F_I.sc" xMin="93" yMin="0" xMax="1094" yMax="577">
      <contour>
        <pt x="93" y="577" on="1"/>
        <pt x="465" y="577" on="1"/>
        <pt x="465" y="541" on="1"/>
        <pt x="133" y="541" on="1"/>
        <pt x="133" y="310" on="1"/>
        <pt x="436" y="310" on="1"/>
        <pt x="436" y="275" on="1"/>
        <pt x="133" y="275" on="1"/>
        <pt x="133" y="0" on="1"/>
        <pt x="93" y="0" on="1"/>
      </contour>
      <contour>
        <pt x="574" y="577" on="1"/>
        <pt x="946" y="577" on="1"/>
        <pt x="946" y="541" on="1"/>
        <pt x="614" y="541" on="1"/>
        <pt x="614" y="310" on="1"/>
        <pt x="917" y="310" on="1"/>
        <pt x="917" y="275" on="1"/>
        <pt x="614" y="275" on="1"/>
        <pt x="614" y="0" on="1"/>
        <pt x="574" y="0" on="1"/>
      </contour>
      <contour>
        <pt x="1054" y="577" on="1"/>
        <pt x="1094" y="577" on="1"/>
        <pt x="1094" y="0" on="1"/>
        <pt x="1054" y="0" on="1"/>
      </contour>
    </TTGlyph>
    <TTGlyph name="F_F_J.sc" xMin="93" yMin="-141" xMax="1105" yMax="577">
      <contour>
        <pt x="93" y="577" on="1"/>
        <pt x="465" y="577" on="1"/>
        <pt x="465" y="541" on="1"/>
        <pt x="133" y="541" on="1"/>
        <pt x="133" y="310" on="1"/>
        <pt x="436" y="310" on="1"/>
        <pt x="436" y="275" on="1"/>
        <pt x="133" y="275" on="1"/>
        <pt x="133" y="0" on="1"/>
        <pt x="93" y="0" on="1"/>
      </contour>
      <contour>
        <pt x="574" y="577" on="1"/>
        <pt x="946" y="577" on="1"/>
        <pt x="946" y="541" on="1"/>
        <pt x="614" y="541" on="1"/>
        <pt x="614" y="310" on="1"/>
        <pt x="917" y="310" on="1"/>
        <pt x="917" y="275" on="1"/>
        <pt x="614" y="275" on="1"/>
        <pt x="614" y="0" on="1"/>
        <pt x="574" y="0" on="1"/>
      </contour>
      <contour>
        <pt x="997" y="-125" on="1"/>
        <pt x="1017" y="-88" on="0"/>
        <pt x="1043" y="-25" on="0"/>
        <pt x="1059" y="37" on="0"/>
        <pt x="1065" y="103" on="0"/>
        <pt x="1065" y="142" on="1"/>
        <pt x="1065" y="577" on="1"/>
        <pt x="1105" y="577" on="1"/>
        <pt x="1105" y="141" on="1"/>
        <pt x="1105" y="102" on="0"/>
        <pt x="1097" y="36" on="0"/>
        <pt x="1079" y="-29" on="0"/>
        <pt x="1049" y="-99" on="0"/>
        <pt x="1027" y="-141" on="1"/>
      </contour>
    </TTGlyph>
    <TTGlyph name="F_F_K.sc" xMin="93" yMin="0" xMax="1509" yMax="577">
      <contour>
        <pt x="93" y="577" on="1"/>
        <pt x="465" y="577" on="1"/>
        <pt x="465" y="541" on="1"/>
        <pt x="133" y="541" on="1"/>
        <pt x="133" y="310" on="1"/>
        <pt x="436" y="310" on="1"/>
        <pt x="436" y="275" on="1"/>
        <pt x="133" y="275" on="1"/>
        <pt x="133" y="0" on="1"/>
        <pt x="93" y="0" on="1"/>
      </contour>
      <contour>
        <pt x="574" y="577" on="1"/>
        <pt x="946" y="577" on="1"/>
        <pt x="946" y="541" on="1"/>
        <pt x="614" y="541" on="1"/>
        <pt x="614" y="310" on="1"/>
        <pt x="917" y="310" on="1"/>
        <pt x="917" y="275" on="1"/>
        <pt x="614" y="275" on="1"/>
        <pt x="614" y="0" on="1"/>
        <pt x="574" y="0" on="1"/>
      </contour>
      <contour>
        <pt x="1054" y="577" on="1"/>
        <pt x="1094" y="577" on="1"/>
        <pt x="1094" y="313" on="1"/>
        <pt x="1233" y="313" on="1"/>
        <pt x="1445" y="577" on="1"/>
        <pt x="1493" y="577" on="1"/>
        <pt x="1286" y="317" on="1"/>
        <pt x="1264" y="299" on="1"/>
        <pt x="1264" y="294" on="1"/>
        <pt x="1288" y="275" on="1"/>
        <pt x="1509" y="0" on="1"/>
        <pt x="1460" y="0" on="1"/>
        <pt x="1238" y="276" on="1"/>
        <pt x="1094" y="276" on="1"/>
        <pt x="1094" y="0" on="1"/>
        <pt x="1054" y="0" on="1"/>
      </contour>
    </TTGlyph>
    <TTGlyph name="F_F_L.sc" xMin="93" yMin="0" xMax="1395" yMax="577">
      <contour>
        <pt x="1054" y="577" on="1"/>
        <pt x="1094" y="577" on="1"/>
        <pt x="1094" y="36" on="1"/>
        <pt x="1395" y="36" on="1"/>
        <pt x="1395" y="0" on="1"/>
        <pt x="1054" y="0" on="1"/>
      </contour>
      <contour>
        <pt x="93" y="577" on="1"/>
        <pt x="465" y="577" on="1"/>
        <pt x="465" y="541" on="1"/>
        <pt x="133" y="541" on="1"/>
        <pt x="133" y="310" on="1"/>
        <pt x="436" y="310" on="1"/>
        <pt x="436" y="275" on="1"/>
        <pt x="133" y="275" on="1"/>
        <pt x="133" y="0" on="1"/>
        <pt x="93" y="0" on="1"/>
      </contour>
      <contour>
        <pt x="574" y="577" on="1"/>
        <pt x="946" y="577" on="1"/>
        <pt x="946" y="541" on="1"/>
        <pt x="614" y="541" on="1"/>
        <pt x="614" y="310" on="1"/>
        <pt x="917" y="310" on="1"/>
        <pt x="917" y="275" on="1"/>
        <pt x="614" y="275" on="1"/>
        <pt x="614" y="0" on="1"/>
        <pt x="574" y="0" on="1"/>
      </contour>
    </TTGlyph>
    <TTGlyph name="F_F_T.sc" xMin="93" yMin="0" xMax="1450" yMax="577">
      <contour>
        <pt x="1194" y="541" on="1"/>
        <pt x="977" y="541" on="1"/>
        <pt x="977" y="577" on="1"/>
        <pt x="1450" y="577" on="1"/>
        <pt x="1450" y="541" on="1"/>
        <pt x="1233" y="541" on="1"/>
        <pt x="1233" y="0" on="1"/>
        <pt x="1194" y="0" on="1"/>
      </contour>
      <contour>
        <pt x="93" y="577" on="1"/>
        <pt x="465" y="577" on="1"/>
        <pt x="465" y="541" on="1"/>
        <pt x="133" y="541" on="1"/>
        <pt x="133" y="310" on="1"/>
        <pt x="436" y="310" on="1"/>
        <pt x="436" y="275" on="1"/>
        <pt x="133" y="275" on="1"/>
        <pt x="133" y="0" on="1"/>
        <pt x="93" y="0" on="1"/>
      </contour>
      <contour>
        <pt x="574" y="577" on="1"/>
        <pt x="946" y="577" on="1"/>
        <pt x="946" y="541" on="1"/>
        <pt x="614" y="541" on="1"/>
        <pt x="614" y="310" on="1"/>
        <pt x="917" y="310" on="1"/>
        <pt x="917" y="275" on="1"/>
        <pt x="614" y="275" on="1"/>
        <pt x="614" y="0" on="1"/>
        <pt x="574" y="0" on="1"/>
      </contour>
    </TTGlyph>
    <TTGlyph name="F_H.sc" xMin="93" yMin="0" xMax="1046" yMax="577">
      <contour>
        <pt x="93" y="577" on="1"/>
        <pt x="465" y="577" on="1"/>
        <pt x="465" y="541" on="1"/>
        <pt x="133" y="541" on="1"/>
        <pt x="133" y="310" on="1"/>
        <pt x="436" y="310" on="1"/>
        <pt x="436" y="275" on="1"/>
        <pt x="133" y="275" on="1"/>
        <pt x="133" y="0" on="1"/>
        <pt x="93" y="0" on="1"/>
      </contour>
      <contour>
        <pt x="574" y="577" on="1"/>
        <pt x="614" y="577" on="1"/>
        <pt x="614" y="314" on="1"/>
        <pt x="1006" y="314" on="1"/>
        <pt x="1006" y="577" on="1"/>
        <pt x="1046" y="577" on="1"/>
        <pt x="1046" y="0" on="1"/>
        <pt x="1006" y="0" on="1"/>
        <pt x="1006" y="278" on="1"/>
        <pt x="614" y="278" on="1"/>
        <pt x="614" y="0" on="1"/>
        <pt x="574" y="0" on="1"/>
      </contour>
    </TTGlyph>
    <TTGlyph name="F_I.sc" xMin="93" yMin="0" xMax="614" yMax="577">
      <contour>
        <pt x="93" y="577" on="1"/>
        <pt x="465" y="577" on="1"/>
        <pt x="465" y="541" on="1"/>
        <pt x="133" y="541" on="1"/>
        <pt x="133" y="310" on="1"/>
        <pt x="436" y="310" on="1"/>
        <pt x="436" y="275" on="1"/>
        <pt x="133" y="275" on="1"/>
        <pt x="133" y="0" on="1"/>
        <pt x="93" y="0" on="1"/>
      </contour>
      <contour>
        <pt x="574" y="577" on="1"/>
        <pt x="614" y="577" on="1"/>
        <pt x="614" y="0" on="1"/>
        <pt x="574" y="0" on="1"/>
      </contour>
    </TTGlyph>
    <TTGlyph name="F_J.sc" xMin="93" yMin="-141" xMax="624" yMax="577">
      <contour>
        <pt x="93" y="577" on="1"/>
        <pt x="465" y="577" on="1"/>
        <pt x="465" y="541" on="1"/>
        <pt x="133" y="541" on="1"/>
        <pt x="133" y="310" on="1"/>
        <pt x="436" y="310" on="1"/>
        <pt x="436" y="275" on="1"/>
        <pt x="133" y="275" on="1"/>
        <pt x="133" y="0" on="1"/>
        <pt x="93" y="0" on="1"/>
      </contour>
      <contour>
        <pt x="516" y="-125" on="1"/>
        <pt x="536" y="-88" on="0"/>
        <pt x="562" y="-25" on="0"/>
        <pt x="578" y="37" on="0"/>
        <pt x="584" y="103" on="0"/>
        <pt x="584" y="142" on="1"/>
        <pt x="584" y="577" on="1"/>
        <pt x="624" y="577" on="1"/>
        <pt x="624" y="141" on="1"/>
        <pt x="624" y="102" on="0"/>
        <pt x="616" y="36" on="0"/>
        <pt x="598" y="-29" on="0"/>
        <pt x="568" y="-99" on="0"/>
        <pt x="546" y="-141" on="1"/>
      </contour>
    </TTGlyph>
    <TTGlyph name="F_K.sc" xMin="93" yMin="0" xMax="1029" yMax="577">
      <contour>
        <pt x="93" y="577" on="1"/>
        <pt x="465" y="577" on="1"/>
        <pt x="465" y="541" on="1"/>
        <pt x="133" y="541" on="1"/>
        <pt x="133" y="310" on="1"/>
        <pt x="436" y="310" on="1"/>
        <pt x="436" y="275" on="1"/>
        <pt x="133" y="275" on="1"/>
        <pt x="133" y="0" on="1"/>
        <pt x="93" y="0" on="1"/>
      </contour>
      <contour>
        <pt x="574" y="577" on="1"/>
        <pt x="614" y="577" on="1"/>
        <pt x="614" y="313" on="1"/>
        <pt x="753" y="313" on="1"/>
        <pt x="965" y="577" on="1"/>
        <pt x="1013" y="577" on="1"/>
        <pt x="806" y="317" on="1"/>
        <pt x="784" y="299" on="1"/>
        <pt x="784" y="294" on="1"/>
        <pt x="808" y="275" on="1"/>
        <pt x="1029" y="0" on="1"/>
        <pt x="980" y="0" on="1"/>
        <pt x="758" y="276" on="1"/>
        <pt x="614" y="276" on="1"/>
        <pt x="614" y="0" on="1"/>
        <pt x="574" y="0" on="1"/>
      </contour>
    </TTGlyph>
    <TTGlyph name="F_L.sc" xMin="93" yMin="0" xMax="915" yMax="577">
      <contour>
        <pt x="574" y="577" on="1"/>
        <pt x="614" y="577" on="1"/>
        <pt x="614" y="36" on="1"/>
        <pt x="915" y="36" on="1"/>
        <pt x="915" y="0" on="1"/>
        <pt x="574" y="0" on="1"/>
      </contour>
      <contour>
        <pt x="93" y="577" on="1"/>
        <pt x="465" y="577" on="1"/>
        <pt x="465" y="541" on="1"/>
        <pt x="133" y="541" on="1"/>
        <pt x="133" y="310" on="1"/>
        <pt x="436" y="310" on="1"/>
        <pt x="436" y="275" on="1"/>
        <pt x="133" y="275" on="1"/>
        <pt x="133" y="0" on="1"/>
        <pt x="93" y="0" on="1"/>
      </contour>
    </TTGlyph>
    <TTGlyph name="F_T.sc" xMin="93" yMin="0" xMax="969" yMax="577">
      <contour>
        <pt x="713" y="541" on="1"/>
        <pt x="496" y="541" on="1"/>
        <pt x="496" y="577" on="1"/>
        <pt x="969" y="577" on="1"/>
        <pt x="969" y="541" on="1"/>
        <pt x="752" y="541" on="1"/>
        <pt x="752" y="0" on="1"/>
        <pt x="713" y="0" on="1"/>
      </contour>
      <contour>
        <pt x="93" y="577" on="1"/>
        <pt x="465" y="577" on="1"/>
        <pt x="465" y="541" on="1"/>
        <pt x="133" y="541" on="1"/>
        <pt x="133" y="310" on="1"/>
        <pt x="436" y="310" on="1"/>
        <pt x="436" y="275" on="1"/>
        <pt x="133" y="275" on="1"/>
        <pt x="133" y="0" on="1"/>
        <pt x="93" y="0" on="1"/>
      </contour>
    </TTGlyph>
    <TTGlyph name="G" xMin="59" yMin="-8" xMax="567" yMax="749">
      <contour>
        <pt x="382" y="-8" on="1"/>
        <pt x="59" y="-6" on="0"/>
        <pt x="59" y="368" on="1"/>
        <pt x="59" y="749" on="0"/>
        <pt x="390" y="749" on="1"/>
        <pt x="469" y="749" on="0"/>
        <pt x="563" y="724" on="1"/>
        <pt x="563" y="685" on="1"/>
        <pt x="534" y="692" on="0"/>
        <pt x="488" y="702" on="0"/>
        <pt x="448" y="708" on="0"/>
        <pt x="411" y="710" on="0"/>
        <pt x="391" y="710" on="1"/>
        <pt x="247" y="710" on="0"/>
        <pt x="99" y="539" on="0"/>
        <pt x="99" y="369" on="1"/>
        <pt x="99" y="201" on="0"/>
        <pt x="242" y="31" on="0"/>
        <pt x="381" y="31" on="1"/>
        <pt x="394" y="31" on="0"/>
        <pt x="431" y="34" on="0"/>
        <pt x="471" y="39" on="0"/>
        <pt x="511" y="45" on="0"/>
        <pt x="528" y="49" on="1"/>
        <pt x="528" y="376" on="1"/>
        <pt x="567" y="376" on="1"/>
        <pt x="567" y="20" on="1"/>
        <pt x="523" y="7" on="0"/>
        <pt x="422" y="-8" on="0"/>
      </contour>
    </TTGlyph>
    <TTGlyph name="G.sc" xMin="58" yMin="-7" xMax="500" yMax="584">
      <contour>
        <pt x="337" y="-7" on="1"/>
        <pt x="198" y="-6" on="0"/>
        <pt x="58" y="141" on="0"/>
        <pt x="58" y="287" on="1"/>
        <pt x="58" y="584" on="0"/>
        <pt x="344" y="584" on="1"/>
        <pt x="414" y="584" on="0"/>
        <pt x="496" y="565" on="1"/>
        <pt x="496" y="528" on="1"/>
        <pt x="470" y="534" on="0"/>
        <pt x="430" y="541" on="0"/>
        <pt x="396" y="545" on="0"/>
        <pt x="364" y="547" on="0"/>
        <pt x="346" y="547" on="1"/>
        <pt x="224" y="547" on="0"/>
        <pt x="99" y="417" on="0"/>
        <pt x="99" y="288" on="1"/>
        <pt x="99" y="160" on="0"/>
        <pt x="219" y="31" on="0"/>
        <pt x="337" y="31" on="1"/>
        <pt x="349" y="31" on="0"/>
        <pt x="380" y="33" on="0"/>
        <pt x="414" y="37" on="0"/>
        <pt x="447" y="42" on="0"/>
        <pt x="461" y="45" on="1"/>
        <pt x="461" y="293" on="1"/>
        <pt x="500" y="293" on="1"/>
        <pt x="500" y="17" on="1"/>
        <pt x="481" y="12" on="0"/>
        <pt x="438" y="3" on="0"/>
        <pt x="395" y="-3" on="0"/>
        <pt x="354" y="-7" on="0"/>
      </contour>
    </TTGlyph>
    <TTGlyph name="Gacute" xMin="59" yMin="-8" xMax="567" yMax="927">
      <contour>
        <pt x="329" y="805" on="1"/>
        <pt x="408" y="927" on="1"/>
        <pt x="452" y="927" on="1"/>
        <pt x="365" y="799" on="1"/>
      </contour>
      <contour>
        <pt x="382" y="-8" on="1"/>
        <pt x="59" y="-6" on="0"/>
        <pt x="59" y="368" on="1"/>
        <pt x="59" y="749" on="0"/>
        <pt x="390" y="749" on="1"/>
        <pt x="469" y="749" on="0"/>
        <pt x="563" y="724" on="1"/>
        <pt x="563" y="685" on="1"/>
        <pt x="534" y="692" on="0"/>
        <pt x="488" y="702" on="0"/>
        <pt x="448" y="708" on="0"/>
        <pt x="411" y="710" on="0"/>
        <pt x="391" y="710" on="1"/>
        <pt x="247" y="710" on="0"/>
        <pt x="99" y="539" on="0"/>
        <pt x="99" y="369" on="1"/>
        <pt x="99" y="201" on="0"/>
        <pt x="242" y="31" on="0"/>
        <pt x="381" y="31" on="1"/>
        <pt x="394" y="31" on="0"/>
        <pt x="431" y="34" on="0"/>
        <pt x="471" y="39" on="0"/>
        <pt x="511" y="45" on="0"/>
        <pt x="528" y="49" on="1"/>
        <pt x="528" y="376" on="1"/>
        <pt x="567" y="376" on="1"/>
        <pt x="567" y="20" on="1"/>
        <pt x="523" y="7" on="0"/>
        <pt x="422" y="-8" on="0"/>
      </contour>
    </TTGlyph>
    <TTGlyph name="Gacute.sc" xMin="58" yMin="-7" xMax="500" yMax="728">
      <contour>
        <pt x="337" y="-7" on="1"/>
        <pt x="198" y="-6" on="0"/>
        <pt x="58" y="141" on="0"/>
        <pt x="58" y="287" on="1"/>
        <pt x="58" y="584" on="0"/>
        <pt x="344" y="584" on="1"/>
        <pt x="414" y="584" on="0"/>
        <pt x="496" y="565" on="1"/>
        <pt x="496" y="527" on="1"/>
        <pt x="470" y="533" on="0"/>
        <pt x="430" y="541" on="0"/>
        <pt x="396" y="545" on="0"/>
        <pt x="364" y="547" on="0"/>
        <pt x="346" y="547" on="1"/>
        <pt x="224" y="547" on="0"/>
        <pt x="99" y="417" on="0"/>
        <pt x="99" y="288" on="1"/>
        <pt x="99" y="160" on="0"/>
        <pt x="219" y="31" on="0"/>
        <pt x="337" y="31" on="1"/>
        <pt x="349" y="31" on="0"/>
        <pt x="380" y="33" on="0"/>
        <pt x="414" y="37" on="0"/>
        <pt x="447" y="42" on="0"/>
        <pt x="461" y="45" on="1"/>
        <pt x="461" y="293" on="1"/>
        <pt x="500" y="293" on="1"/>
        <pt x="500" y="17" on="1"/>
        <pt x="481" y="12" on="0"/>
        <pt x="438" y="3" on="0"/>
        <pt x="395" y="-3" on="0"/>
        <pt x="354" y="-7" on="0"/>
      </contour>
      <contour>
        <pt x="289" y="629" on="1"/>
        <pt x="355" y="728" on="1"/>
        <pt x="399" y="728" on="1"/>
        <pt x="324" y="624" on="1"/>
      </contour>
    </TTGlyph>
    <TTGlyph name="Gbreve" xMin="59" yMin="-8" xMax="567" yMax="950">
      <contour>
        <pt x="354" y="816" on="1"/>
        <pt x="278" y="816" on="0"/>
        <pt x="193" y="887" on="0"/>
        <pt x="193" y="950" on="1"/>
        <pt x="231" y="950" on="1"/>
        <pt x="231" y="904" on="0"/>
        <pt x="296" y="852" on="0"/>
        <pt x="354" y="852" on="1"/>
        <pt x="411" y="852" on="0"/>
        <pt x="476" y="904" on="0"/>
        <pt x="476" y="950" on="1"/>
        <pt x="514" y="950" on="1"/>
        <pt x="514" y="887" on="0"/>
        <pt x="429" y="816" on="0"/>
      </contour>
      <contour>
        <pt x="382" y="-8" on="1"/>
        <pt x="59" y="-6" on="0"/>
        <pt x="59" y="368" on="1"/>
        <pt x="59" y="749" on="0"/>
        <pt x="390" y="749" on="1"/>
        <pt x="469" y="749" on="0"/>
        <pt x="563" y="724" on="1"/>
        <pt x="563" y="685" on="1"/>
        <pt x="534" y="692" on="0"/>
        <pt x="488" y="702" on="0"/>
        <pt x="448" y="708" on="0"/>
        <pt x="411" y="710" on="0"/>
        <pt x="391" y="710" on="1"/>
        <pt x="247" y="710" on="0"/>
        <pt x="99" y="539" on="0"/>
        <pt x="99" y="369" on="1"/>
        <pt x="99" y="201" on="0"/>
        <pt x="242" y="31" on="0"/>
        <pt x="381" y="31" on="1"/>
        <pt x="394" y="31" on="0"/>
        <pt x="431" y="34" on="0"/>
        <pt x="471" y="39" on="0"/>
        <pt x="511" y="45" on="0"/>
        <pt x="528" y="49" on="1"/>
        <pt x="528" y="376" on="1"/>
        <pt x="567" y="376" on="1"/>
        <pt x="567" y="20" on="1"/>
        <pt x="523" y="7" on="0"/>
        <pt x="422" y="-8" on="0"/>
      </contour>
    </TTGlyph>
    <TTGlyph name="Gbreve.sc" xMin="58" yMin="-7" xMax="500" yMax="743">
      <contour>
        <pt x="337" y="-7" on="1"/>
        <pt x="198" y="-6" on="0"/>
        <pt x="58" y="141" on="0"/>
        <pt x="58" y="287" on="1"/>
        <pt x="58" y="584" on="0"/>
        <pt x="344" y="584" on="1"/>
        <pt x="414" y="584" on="0"/>
        <pt x="496" y="565" on="1"/>
        <pt x="496" y="527" on="1"/>
        <pt x="470" y="533" on="0"/>
        <pt x="430" y="541" on="0"/>
        <pt x="396" y="545" on="0"/>
        <pt x="364" y="547" on="0"/>
        <pt x="346" y="547" on="1"/>
        <pt x="224" y="547" on="0"/>
        <pt x="99" y="417" on="0"/>
        <pt x="99" y="288" on="1"/>
        <pt x="99" y="160" on="0"/>
        <pt x="219" y="31" on="0"/>
        <pt x="337" y="31" on="1"/>
        <pt x="349" y="31" on="0"/>
        <pt x="380" y="33" on="0"/>
        <pt x="414" y="37" on="0"/>
        <pt x="447" y="42" on="0"/>
        <pt x="461" y="45" on="1"/>
        <pt x="461" y="293" on="1"/>
        <pt x="500" y="293" on="1"/>
        <pt x="500" y="17" on="1"/>
        <pt x="481" y="12" on="0"/>
        <pt x="438" y="3" on="0"/>
        <pt x="395" y="-3" on="0"/>
        <pt x="354" y="-7" on="0"/>
      </contour>
      <contour>
        <pt x="313" y="635" on="1"/>
        <pt x="246" y="635" on="0"/>
        <pt x="172" y="693" on="0"/>
        <pt x="172" y="743" on="1"/>
        <pt x="208" y="743" on="1"/>
        <pt x="208" y="707" on="0"/>
        <pt x="262" y="667" on="0"/>
        <pt x="313" y="667" on="1"/>
        <pt x="362" y="667" on="0"/>
        <pt x="417" y="707" on="0"/>
        <pt x="417" y="743" on="1"/>
        <pt x="452" y="743" on="1"/>
        <pt x="452" y="693" on="0"/>
        <pt x="379" y="635" on="0"/>
      </contour>
    </TTGlyph>
    <TTGlyph name="Gcircumflex" xMin="59" yMin="-8" xMax="567" yMax="935">
      <contour>
        <pt x="382" y="-8" on="1"/>
        <pt x="59" y="-6" on="0"/>
        <pt x="59" y="368" on="1"/>
        <pt x="59" y="749" on="0"/>
        <pt x="390" y="749" on="1"/>
        <pt x="469" y="749" on="0"/>
        <pt x="563" y="724" on="1"/>
        <pt x="563" y="685" on="1"/>
        <pt x="534" y="692" on="0"/>
        <pt x="488" y="702" on="0"/>
        <pt x="448" y="708" on="0"/>
        <pt x="411" y="710" on="0"/>
        <pt x="391" y="710" on="1"/>
        <pt x="247" y="710" on="0"/>
        <pt x="99" y="539" on="0"/>
        <pt x="99" y="369" on="1"/>
        <pt x="99" y="201" on="0"/>
        <pt x="242" y="31" on="0"/>
        <pt x="381" y="31" on="1"/>
        <pt x="394" y="31" on="0"/>
        <pt x="431" y="34" on="0"/>
        <pt x="471" y="39" on="0"/>
        <pt x="511" y="45" on="0"/>
        <pt x="528" y="49" on="1"/>
        <pt x="528" y="376" on="1"/>
        <pt x="567" y="376" on="1"/>
        <pt x="567" y="20" on="1"/>
        <pt x="523" y="7" on="0"/>
        <pt x="422" y="-8" on="0"/>
      </contour>
      <contour>
        <pt x="207" y="862" on="1"/>
        <pt x="353" y="935" on="1"/>
        <pt x="499" y="862" on="1"/>
        <pt x="499" y="818" on="1"/>
        <pt x="353" y="890" on="1"/>
        <pt x="207" y="818" on="1"/>
      </contour>
    </TTGlyph>
    <TTGlyph name="Gcircumflex.sc" xMin="58" yMin="-7" xMax="500" yMax="733">
      <contour>
        <pt x="337" y="-7" on="1"/>
        <pt x="198" y="-6" on="0"/>
        <pt x="58" y="141" on="0"/>
        <pt x="58" y="287" on="1"/>
        <pt x="58" y="584" on="0"/>
        <pt x="344" y="584" on="1"/>
        <pt x="414" y="584" on="0"/>
        <pt x="496" y="565" on="1"/>
        <pt x="496" y="527" on="1"/>
        <pt x="470" y="533" on="0"/>
        <pt x="430" y="541" on="0"/>
        <pt x="396" y="545" on="0"/>
        <pt x="364" y="547" on="0"/>
        <pt x="346" y="547" on="1"/>
        <pt x="224" y="547" on="0"/>
        <pt x="99" y="417" on="0"/>
        <pt x="99" y="288" on="1"/>
        <pt x="99" y="160" on="0"/>
        <pt x="219" y="31" on="0"/>
        <pt x="337" y="31" on="1"/>
        <pt x="349" y="31" on="0"/>
        <pt x="380" y="33" on="0"/>
        <pt x="414" y="37" on="0"/>
        <pt x="447" y="42" on="0"/>
        <pt x="461" y="45" on="1"/>
        <pt x="461" y="293" on="1"/>
        <pt x="500" y="293" on="1"/>
        <pt x="500" y="17" on="1"/>
        <pt x="481" y="12" on="0"/>
        <pt x="438" y="3" on="0"/>
        <pt x="395" y="-3" on="0"/>
        <pt x="354" y="-7" on="0"/>
      </contour>
      <contour>
        <pt x="184" y="676" on="1"/>
        <pt x="312" y="733" on="1"/>
        <pt x="440" y="676" on="1"/>
        <pt x="440" y="637" on="1"/>
        <pt x="312" y="693" on="1"/>
        <pt x="184" y="637" on="1"/>
      </contour>
    </TTGlyph>
    <TTGlyph name="Gcommaaccent" xMin="59" yMin="-220" xMax="567" yMax="749">
      <contour>
        <pt x="344" y="-69" on="1"/>
        <pt x="387" y="-69" on="1"/>
        <pt x="332" y="-220" on="1"/>
        <pt x="293" y="-220" on="1"/>
      </contour>
      <contour>
        <pt x="382" y="-8" on="1"/>
        <pt x="59" y="-6" on="0"/>
        <pt x="59" y="368" on="1"/>
        <pt x="59" y="749" on="0"/>
        <pt x="390" y="749" on="1"/>
        <pt x="469" y="749" on="0"/>
        <pt x="563" y="724" on="1"/>
        <pt x="563" y="685" on="1"/>
        <pt x="534" y="692" on="0"/>
        <pt x="488" y="702" on="0"/>
        <pt x="448" y="708" on="0"/>
        <pt x="411" y="710" on="0"/>
        <pt x="391" y="710" on="1"/>
        <pt x="247" y="710" on="0"/>
        <pt x="99" y="539" on="0"/>
        <pt x="99" y="369" on="1"/>
        <pt x="99" y="201" on="0"/>
        <pt x="242" y="31" on="0"/>
        <pt x="381" y="31" on="1"/>
        <pt x="394" y="31" on="0"/>
        <pt x="431" y="34" on="0"/>
        <pt x="471" y="39" on="0"/>
        <pt x="511" y="45" on="0"/>
        <pt x="528" y="49" on="1"/>
        <pt x="528" y="376" on="1"/>
        <pt x="567" y="376" on="1"/>
        <pt x="567" y="20" on="1"/>
        <pt x="523" y="7" on="0"/>
        <pt x="422" y="-8" on="0"/>
      </contour>
    </TTGlyph>
    <TTGlyph name="Gcommaaccent.sc" xMin="58" yMin="-172" xMax="500" yMax="584">
      <contour>
        <pt x="337" y="-7" on="1"/>
        <pt x="198" y="-6" on="0"/>
        <pt x="58" y="141" on="0"/>
        <pt x="58" y="287" on="1"/>
        <pt x="58" y="584" on="0"/>
        <pt x="344" y="584" on="1"/>
        <pt x="414" y="584" on="0"/>
        <pt x="496" y="565" on="1"/>
        <pt x="496" y="527" on="1"/>
        <pt x="470" y="533" on="0"/>
        <pt x="430" y="541" on="0"/>
        <pt x="396" y="545" on="0"/>
        <pt x="364" y="547" on="0"/>
        <pt x="346" y="547" on="1"/>
        <pt x="224" y="547" on="0"/>
        <pt x="99" y="417" on="0"/>
        <pt x="99" y="288" on="1"/>
        <pt x="99" y="160" on="0"/>
        <pt x="219" y="31" on="0"/>
        <pt x="337" y="31" on="1"/>
        <pt x="349" y="31" on="0"/>
        <pt x="380" y="33" on="0"/>
        <pt x="414" y="37" on="0"/>
        <pt x="447" y="42" on="0"/>
        <pt x="461" y="45" on="1"/>
        <pt x="461" y="293" on="1"/>
        <pt x="500" y="293" on="1"/>
        <pt x="500" y="17" on="1"/>
        <pt x="481" y="12" on="0"/>
        <pt x="438" y="3" on="0"/>
        <pt x="395" y="-3" on="0"/>
        <pt x="354" y="-7" on="0"/>
      </contour>
      <contour>
        <pt x="300" y="-54" on="1"/>
        <pt x="343" y="-54" on="1"/>
        <pt x="295" y="-172" on="1"/>
        <pt x="258" y="-172" on="1"/>
      </contour>
    </TTGlyph>
    <TTGlyph name="Gdotaccent" xMin="59" yMin="-8" xMax="567" yMax="889">
      <contour>
        <pt x="354" y="820" on="1"/>
        <pt x="339" y="820" on="0"/>
        <pt x="319" y="836" on="0"/>
        <pt x="319" y="855" on="1"/>
        <pt x="319" y="873" on="0"/>
        <pt x="339" y="889" on="0"/>
        <pt x="354" y="889" on="1"/>
        <pt x="368" y="889" on="0"/>
        <pt x="390" y="873" on="0"/>
        <pt x="390" y="855" on="1"/>
        <pt x="390" y="836" on="0"/>
        <pt x="368" y="820" on="0"/>
      </contour>
      <contour>
        <pt x="382" y="-8" on="1"/>
        <pt x="59" y="-6" on="0"/>
        <pt x="59" y="368" on="1"/>
        <pt x="59" y="749" on="0"/>
        <pt x="390" y="749" on="1"/>
        <pt x="469" y="749" on="0"/>
        <pt x="563" y="724" on="1"/>
        <pt x="563" y="685" on="1"/>
        <pt x="534" y="692" on="0"/>
        <pt x="488" y="702" on="0"/>
        <pt x="448" y="708" on="0"/>
        <pt x="411" y="710" on="0"/>
        <pt x="391" y="710" on="1"/>
        <pt x="247" y="710" on="0"/>
        <pt x="99" y="539" on="0"/>
        <pt x="99" y="369" on="1"/>
        <pt x="99" y="201" on="0"/>
        <pt x="242" y="31" on="0"/>
        <pt x="381" y="31" on="1"/>
        <pt x="394" y="31" on="0"/>
        <pt x="431" y="34" on="0"/>
        <pt x="471" y="39" on="0"/>
        <pt x="511" y="45" on="0"/>
        <pt x="528" y="49" on="1"/>
        <pt x="528" y="376" on="1"/>
        <pt x="567" y="376" on="1"/>
        <pt x="567" y="20" on="1"/>
        <pt x="523" y="7" on="0"/>
        <pt x="422" y="-8" on="0"/>
      </contour>
    </TTGlyph>
    <TTGlyph name="Gdotaccent.sc" xMin="58" yMin="-7" xMax="500" yMax="701">
      <contour>
        <pt x="337" y="-7" on="1"/>
        <pt x="198" y="-6" on="0"/>
        <pt x="58" y="141" on="0"/>
        <pt x="58" y="287" on="1"/>
        <pt x="58" y="584" on="0"/>
        <pt x="344" y="584" on="1"/>
        <pt x="414" y="584" on="0"/>
        <pt x="496" y="565" on="1"/>
        <pt x="496" y="527" on="1"/>
        <pt x="470" y="533" on="0"/>
        <pt x="430" y="541" on="0"/>
        <pt x="396" y="545" on="0"/>
        <pt x="364" y="547" on="0"/>
        <pt x="346" y="547" on="1"/>
        <pt x="224" y="547" on="0"/>
        <pt x="99" y="417" on="0"/>
        <pt x="99" y="288" on="1"/>
        <pt x="99" y="160" on="0"/>
        <pt x="219" y="31" on="0"/>
        <pt x="337" y="31" on="1"/>
        <pt x="349" y="31" on="0"/>
        <pt x="380" y="33" on="0"/>
        <pt x="414" y="37" on="0"/>
        <pt x="447" y="42" on="0"/>
        <pt x="461" y="45" on="1"/>
        <pt x="461" y="293" on="1"/>
        <pt x="500" y="293" on="1"/>
        <pt x="500" y="17" on="1"/>
        <pt x="481" y="12" on="0"/>
        <pt x="438" y="3" on="0"/>
        <pt x="395" y="-3" on="0"/>
        <pt x="354" y="-7" on="0"/>
      </contour>
      <contour>
        <pt x="313" y="640" on="1"/>
        <pt x="299" y="640" on="0"/>
        <pt x="280" y="654" on="0"/>
        <pt x="280" y="671" on="1"/>
        <pt x="280" y="687" on="0"/>
        <pt x="299" y="701" on="0"/>
        <pt x="313" y="701" on="1"/>
        <pt x="327" y="701" on="0"/>
        <pt x="346" y="687" on="0"/>
        <pt x="346" y="671" on="1"/>
        <pt x="346" y="654" on="0"/>
        <pt x="327" y="640" on="0"/>
      </contour>
    </TTGlyph>
    <TTGlyph name="H" xMin="99" yMin="0" xMax="640" yMax="740">
      <contour>
        <pt x="99" y="740" on="1"/>
        <pt x="139" y="740" on="1"/>
        <pt x="139" y="398" on="1"/>
        <pt x="599" y="398" on="1"/>
        <pt x="599" y="740" on="1"/>
        <pt x="640" y="740" on="1"/>
        <pt x="640" y="0" on="1"/>
        <pt x="599" y="0" on="1"/>
        <pt x="599" y="360" on="1"/>
        <pt x="139" y="360" on="1"/>
        <pt x="139" y="0" on="1"/>
        <pt x="99" y="0" on="1"/>
      </contour>
    </TTGlyph>
    <TTGlyph name="H.sc" xMin="93" yMin="0" xMax="565" yMax="577">
      <contour>
        <pt x="93" y="577" on="1"/>
        <pt x="133" y="577" on="1"/>
        <pt x="133" y="314" on="1"/>
        <pt x="525" y="314" on="1"/>
        <pt x="525" y="577" on="1"/>
        <pt x="565" y="577" on="1"/>
        <pt x="565" y="0" on="1"/>
        <pt x="525" y="0" on="1"/>
        <pt x="525" y="278" on="1"/>
        <pt x="133" y="278" on="1"/>
        <pt x="133" y="0" on="1"/>
        <pt x="93" y="0" on="1"/>
      </contour>
    </TTGlyph>
    <TTGlyph name="Hbar" xMin="7" yMin="0" xMax="747" yMax="740">
      <contour>
        <pt x="7" y="583" on="1"/>
        <pt x="107" y="583" on="1"/>
        <pt x="107" y="740" on="1"/>
        <pt x="147" y="740" on="1"/>
        <pt x="147" y="583" on="1"/>
        <pt x="607" y="583" on="1"/>
        <pt x="607" y="740" on="1"/>
        <pt x="648" y="740" on="1"/>
        <pt x="648" y="583" on="1"/>
        <pt x="747" y="583" on="1"/>
        <pt x="747" y="549" on="1"/>
        <pt x="648" y="549" on="1"/>
        <pt x="648" y="0" on="1"/>
        <pt x="607" y="0" on="1"/>
        <pt x="607" y="360" on="1"/>
        <pt x="147" y="360" on="1"/>
        <pt x="147" y="0" on="1"/>
        <pt x="107" y="0" on="1"/>
        <pt x="107" y="549" on="1"/>
        <pt x="7" y="549" on="1"/>
      </contour>
      <contour>
        <pt x="607" y="398" on="1"/>
        <pt x="607" y="549" on="1"/>
        <pt x="147" y="549" on="1"/>
        <pt x="147" y="398" on="1"/>
      </contour>
    </TTGlyph>
    <TTGlyph name="Hbar.sc" xMin="16" yMin="0" xMax="655" yMax="577">
      <contour>
        <pt x="16" y="458" on="1"/>
        <pt x="99" y="458" on="1"/>
        <pt x="99" y="577" on="1"/>
        <pt x="139" y="577" on="1"/>
        <pt x="139" y="458" on="1"/>
        <pt x="531" y="458" on="1"/>
        <pt x="531" y="577" on="1"/>
        <pt x="570" y="577" on="1"/>
        <pt x="570" y="458" on="1"/>
        <pt x="655" y="458" on="1"/>
        <pt x="655" y="428" on="1"/>
        <pt x="570" y="428" on="1"/>
        <pt x="570" y="0" on="1"/>
        <pt x="531" y="0" on="1"/>
        <pt x="531" y="278" on="1"/>
        <pt x="139" y="278" on="1"/>
        <pt x="139" y="0" on="1"/>
        <pt x="99" y="0" on="1"/>
        <pt x="99" y="428" on="1"/>
        <pt x="16" y="428" on="1"/>
      </contour>
      <contour>
        <pt x="531" y="313" on="1"/>
        <pt x="531" y="428" on="1"/>
        <pt x="139" y="428" on="1"/>
        <pt x="139" y="313" on="1"/>
      </contour>
    </TTGlyph>
    <TTGlyph name="Hcircumflex" xMin="99" yMin="0" xMax="640" yMax="935">
      <contour>
        <pt x="99" y="740" on="1"/>
        <pt x="139" y="740" on="1"/>
        <pt x="139" y="398" on="1"/>
        <pt x="599" y="398" on="1"/>
        <pt x="599" y="740" on="1"/>
        <pt x="640" y="740" on="1"/>
        <pt x="640" y="0" on="1"/>
        <pt x="599" y="0" on="1"/>
        <pt x="599" y="360" on="1"/>
        <pt x="139" y="360" on="1"/>
        <pt x="139" y="0" on="1"/>
        <pt x="99" y="0" on="1"/>
      </contour>
      <contour>
        <pt x="214" y="862" on="1"/>
        <pt x="360" y="935" on="1"/>
        <pt x="506" y="862" on="1"/>
        <pt x="506" y="818" on="1"/>
        <pt x="360" y="890" on="1"/>
        <pt x="214" y="818" on="1"/>
      </contour>
    </TTGlyph>
    <TTGlyph name="Hcircumflex.sc" xMin="93" yMin="0" xMax="565" yMax="733">
      <contour>
        <pt x="93" y="577" on="1"/>
        <pt x="133" y="577" on="1"/>
        <pt x="133" y="314" on="1"/>
        <pt x="525" y="314" on="1"/>
        <pt x="525" y="577" on="1"/>
        <pt x="565" y="577" on="1"/>
        <pt x="565" y="0" on="1"/>
        <pt x="525" y="0" on="1"/>
        <pt x="525" y="278" on="1"/>
        <pt x="133" y="278" on="1"/>
        <pt x="133" y="0" on="1"/>
        <pt x="93" y="0" on="1"/>
      </contour>
      <contour>
        <pt x="194" y="676" on="1"/>
        <pt x="322" y="733" on="1"/>
        <pt x="450" y="676" on="1"/>
        <pt x="450" y="637" on="1"/>
        <pt x="322" y="693" on="1"/>
        <pt x="194" y="637" on="1"/>
      </contour>
    </TTGlyph>
    <TTGlyph name="Hdotbelow" xMin="99" yMin="-169" xMax="640" yMax="740">
      <contour>
        <pt x="99" y="740" on="1"/>
        <pt x="139" y="740" on="1"/>
        <pt x="139" y="398" on="1"/>
        <pt x="599" y="398" on="1"/>
        <pt x="599" y="740" on="1"/>
        <pt x="640" y="740" on="1"/>
        <pt x="640" y="0" on="1"/>
        <pt x="599" y="0" on="1"/>
        <pt x="599" y="360" on="1"/>
        <pt x="139" y="360" on="1"/>
        <pt x="139" y="0" on="1"/>
        <pt x="99" y="0" on="1"/>
      </contour>
      <contour>
        <pt x="380" y="-169" on="1"/>
        <pt x="363" y="-169" on="0"/>
        <pt x="342" y="-152" on="0"/>
        <pt x="342" y="-131" on="1"/>
        <pt x="342" y="-110" on="0"/>
        <pt x="363" y="-92" on="0"/>
        <pt x="380" y="-92" on="1"/>
        <pt x="397" y="-92" on="0"/>
        <pt x="419" y="-110" on="0"/>
        <pt x="419" y="-131" on="1"/>
        <pt x="419" y="-152" on="0"/>
        <pt x="397" y="-169" on="0"/>
      </contour>
    </TTGlyph>
    <TTGlyph name="Hdotbelow.sc" xMin="93" yMin="-135" xMax="565" yMax="577">
      <contour>
        <pt x="93" y="577" on="1"/>
        <pt x="133" y="577" on="1"/>
        <pt x="133" y="314" on="1"/>
        <pt x="525" y="314" on="1"/>
        <pt x="525" y="577" on="1"/>
        <pt x="565" y="577" on="1"/>
        <pt x="565" y="0" on="1"/>
        <pt x="525" y="0" on="1"/>
        <pt x="525" y="278" on="1"/>
        <pt x="133" y="278" on="1"/>
        <pt x="133" y="0" on="1"/>
        <pt x="93" y="0" on="1"/>
      </contour>
      <contour>
        <pt x="338" y="-135" on="1"/>
        <pt x="304" y="-135" on="0"/>
        <pt x="304" y="-103" on="1"/>
        <pt x="304" y="-70" on="0"/>
        <pt x="338" y="-70" on="1"/>
        <pt x="353" y="-70" on="0"/>
        <pt x="372" y="-85" on="0"/>
        <pt x="372" y="-103" on="1"/>
        <pt x="372" y="-120" on="0"/>
        <pt x="353" y="-135" on="0"/>
      </contour>
    </TTGlyph>
    <TTGlyph name="I" xMin="99" yMin="0" xMax="139" yMax="740">
      <contour>
        <pt x="99" y="740" on="1"/>
        <pt x="139" y="740" on="1"/>
        <pt x="139" y="0" on="1"/>
        <pt x="99" y="0" on="1"/>
      </contour>
    </TTGlyph>
    <TTGlyph name="I.sc" xMin="93" yMin="0" xMax="133" yMax="577">
      <contour>
        <pt x="93" y="577" on="1"/>
        <pt x="133" y="577" on="1"/>
        <pt x="133" y="0" on="1"/>
        <pt x="93" y="0" on="1"/>
      </contour>
    </TTGlyph>
    <TTGlyph name="IJ" xMin="99" yMin="-178" xMax="378" yMax="740">
      <contour>
        <pt x="99" y="740" on="1"/>
        <pt x="139" y="740" on="1"/>
        <pt x="139" y="0" on="1"/>
        <pt x="99" y="0" on="1"/>
      </contour>
      <contour>
        <pt x="257" y="-160" on="1"/>
        <pt x="280" y="-112" on="0"/>
        <pt x="311" y="-32" on="0"/>
        <pt x="330" y="47" on="0"/>
        <pt x="338" y="130" on="0"/>
        <pt x="338" y="181" on="1"/>
        <pt x="338" y="740" on="1"/>
        <pt x="378" y="740" on="1"/>
        <pt x="378" y="180" on="1"/>
        <pt x="378" y="131" on="0"/>
        <pt x="369" y="47" on="0"/>
        <pt x="348" y="-36" on="0"/>
        <pt x="314" y="-124" on="0"/>
        <pt x="289" y="-178" on="1"/>
      </contour>
    </TTGlyph>
    <TTGlyph name="Iacute" xMin="96" yMin="0" xMax="219" yMax="927">
      <contour>
        <pt x="99" y="740" on="1"/>
        <pt x="139" y="740" on="1"/>
        <pt x="139" y="0" on="1"/>
        <pt x="99" y="0" on="1"/>
      </contour>
      <contour>
        <pt x="96" y="805" on="1"/>
        <pt x="175" y="927" on="1"/>
        <pt x="219" y="927" on="1"/>
        <pt x="132" y="799" on="1"/>
      </contour>
    </TTGlyph>
    <TTGlyph name="Iacute.sc" xMin="91" yMin="0" xMax="201" yMax="728">
      <contour>
        <pt x="93" y="577" on="1"/>
        <pt x="133" y="577" on="1"/>
        <pt x="133" y="0" on="1"/>
        <pt x="93" y="0" on="1"/>
      </contour>
      <contour>
        <pt x="91" y="629" on="1"/>
        <pt x="158" y="728" on="1"/>
        <pt x="201" y="728" on="1"/>
        <pt x="126" y="624" on="1"/>
      </contour>
    </TTGlyph>
    <TTGlyph name="Ibreve" xMin="-41" yMin="0" xMax="280" yMax="950">
      <contour>
        <pt x="99" y="740" on="1"/>
        <pt x="139" y="740" on="1"/>
        <pt x="139" y="0" on="1"/>
        <pt x="99" y="0" on="1"/>
      </contour>
      <contour>
        <pt x="120" y="816" on="1"/>
        <pt x="44" y="816" on="0"/>
        <pt x="-41" y="887" on="0"/>
        <pt x="-41" y="950" on="1"/>
        <pt x="-3" y="950" on="1"/>
        <pt x="-3" y="904" on="0"/>
        <pt x="62" y="852" on="0"/>
        <pt x="120" y="852" on="1"/>
        <pt x="177" y="852" on="0"/>
        <pt x="242" y="904" on="0"/>
        <pt x="242" y="950" on="1"/>
        <pt x="280" y="950" on="1"/>
        <pt x="280" y="887" on="0"/>
        <pt x="195" y="816" on="0"/>
      </contour>
    </TTGlyph>
    <TTGlyph name="Ibreve.sc" xMin="-26" yMin="0" xMax="254" yMax="743">
      <contour>
        <pt x="93" y="577" on="1"/>
        <pt x="133" y="577" on="1"/>
        <pt x="133" y="0" on="1"/>
        <pt x="93" y="0" on="1"/>
      </contour>
      <contour>
        <pt x="114" y="635" on="1"/>
        <pt x="47" y="635" on="0"/>
        <pt x="-26" y="693" on="0"/>
        <pt x="-26" y="743" on="1"/>
        <pt x="9" y="743" on="1"/>
        <pt x="9" y="707" on="0"/>
        <pt x="64" y="667" on="0"/>
        <pt x="114" y="667" on="1"/>
        <pt x="164" y="667" on="0"/>
        <pt x="219" y="707" on="0"/>
        <pt x="219" y="743" on="1"/>
        <pt x="254" y="743" on="1"/>
        <pt x="254" y="693" on="0"/>
        <pt x="180" y="635" on="0"/>
      </contour>
    </TTGlyph>
    <TTGlyph name="Icircumflex" xMin="-26" yMin="0" xMax="266" yMax="935">
      <contour>
        <pt x="99" y="740" on="1"/>
        <pt x="139" y="740" on="1"/>
        <pt x="139" y="0" on="1"/>
        <pt x="99" y="0" on="1"/>
      </contour>
      <contour>
        <pt x="-26" y="862" on="1"/>
        <pt x="120" y="935" on="1"/>
        <pt x="266" y="862" on="1"/>
        <pt x="266" y="818" on="1"/>
        <pt x="120" y="890" on="1"/>
        <pt x="-26" y="818" on="1"/>
      </contour>
    </TTGlyph>
    <TTGlyph name="Icircumflex.sc" xMin="-13" yMin="0" xMax="242" yMax="733">
      <contour>
        <pt x="93" y="577" on="1"/>
        <pt x="133" y="577" on="1"/>
        <pt x="133" y="0" on="1"/>
        <pt x="93" y="0" on="1"/>
      </contour>
      <contour>
        <pt x="-13" y="676" on="1"/>
        <pt x="114" y="733" on="1"/>
        <pt x="242" y="676" on="1"/>
        <pt x="242" y="637" on="1"/>
        <pt x="115" y="693" on="1"/>
        <pt x="-13" y="637" on="1"/>
      </contour>
    </TTGlyph>
    <TTGlyph name="Idblgrave" xMin="-48" yMin="0" xMax="205" yMax="920">
      <contour>
        <pt x="99" y="740" on="1"/>
        <pt x="139" y="740" on="1"/>
        <pt x="139" y="0" on="1"/>
        <pt x="99" y="0" on="1"/>
      </contour>
      <contour>
        <pt x="39" y="792" on="1"/>
        <pt x="-48" y="920" on="1"/>
        <pt x="-4" y="920" on="1"/>
        <pt x="74" y="806" on="1"/>
      </contour>
      <contour>
        <pt x="169" y="792" on="1"/>
        <pt x="83" y="920" on="1"/>
        <pt x="127" y="920" on="1"/>
        <pt x="205" y="806" on="1"/>
      </contour>
    </TTGlyph>
    <TTGlyph name="Idblgrave.sc" xMin="-33" yMin="0" xMax="190" yMax="722">
      <contour>
        <pt x="93" y="577" on="1"/>
        <pt x="133" y="577" on="1"/>
        <pt x="133" y="0" on="1"/>
        <pt x="93" y="0" on="1"/>
      </contour>
      <contour>
        <pt x="42" y="618" on="1"/>
        <pt x="-33" y="722" on="1"/>
        <pt x="9" y="722" on="1"/>
        <pt x="76" y="629" on="1"/>
      </contour>
      <contour>
        <pt x="157" y="618" on="1"/>
        <pt x="82" y="722" on="1"/>
        <pt x="124" y="722" on="1"/>
        <pt x="190" y="629" on="1"/>
      </contour>
    </TTGlyph>
    <TTGlyph name="Idieresis" xMin="-37" yMin="0" xMax="277" yMax="897">
      <contour>
        <pt x="99" y="740" on="1"/>
        <pt x="139" y="740" on="1"/>
        <pt x="139" y="0" on="1"/>
        <pt x="99" y="0" on="1"/>
      </contour>
      <contour>
        <pt x="-2" y="828" on="1"/>
        <pt x="-17" y="828" on="0"/>
        <pt x="-37" y="844" on="0"/>
        <pt x="-37" y="863" on="1"/>
        <pt x="-37" y="881" on="0"/>
        <pt x="-17" y="897" on="0"/>
        <pt x="-2" y="897" on="1"/>
        <pt x="12" y="897" on="0"/>
        <pt x="34" y="881" on="0"/>
        <pt x="34" y="863" on="1"/>
        <pt x="34" y="844" on="0"/>
        <pt x="12" y="828" on="0"/>
      </contour>
      <contour>
        <pt x="241" y="828" on="1"/>
        <pt x="226" y="828" on="0"/>
        <pt x="206" y="844" on="0"/>
        <pt x="206" y="863" on="1"/>
        <pt x="206" y="881" on="0"/>
        <pt x="226" y="897" on="0"/>
        <pt x="241" y="897" on="1"/>
        <pt x="255" y="897" on="0"/>
        <pt x="277" y="881" on="0"/>
        <pt x="277" y="863" on="1"/>
        <pt x="277" y="844" on="0"/>
        <pt x="255" y="828" on="0"/>
      </contour>
    </TTGlyph>
    <TTGlyph name="Idieresis.sc" xMin="-25" yMin="0" xMax="253" yMax="707">
      <contour>
        <pt x="93" y="577" on="1"/>
        <pt x="133" y="577" on="1"/>
        <pt x="133" y="0" on="1"/>
        <pt x="93" y="0" on="1"/>
      </contour>
      <contour>
        <pt x="8" y="645" on="1"/>
        <pt x="-7" y="645" on="0"/>
        <pt x="-25" y="660" on="0"/>
        <pt x="-25" y="676" on="1"/>
        <pt x="-25" y="692" on="0"/>
        <pt x="-7" y="707" on="0"/>
        <pt x="8" y="707" on="1"/>
        <pt x="22" y="707" on="0"/>
        <pt x="40" y="693" on="0"/>
        <pt x="40" y="676" on="1"/>
        <pt x="40" y="659" on="0"/>
        <pt x="22" y="645" on="0"/>
      </contour>
      <contour>
        <pt x="220" y="645" on="1"/>
        <pt x="206" y="645" on="0"/>
        <pt x="188" y="660" on="0"/>
        <pt x="188" y="676" on="1"/>
        <pt x="188" y="692" on="0"/>
        <pt x="206" y="707" on="0"/>
        <pt x="220" y="707" on="1"/>
        <pt x="234" y="707" on="0"/>
        <pt x="253" y="693" on="0"/>
        <pt x="253" y="676" on="1"/>
        <pt x="253" y="659" on="0"/>
        <pt x="234" y="645" on="0"/>
      </contour>
    </TTGlyph>
    <TTGlyph name="Idotaccent" xMin="85" yMin="0" xMax="156" yMax="889">
      <contour>
        <pt x="99" y="740" on="1"/>
        <pt x="139" y="740" on="1"/>
        <pt x="139" y="0" on="1"/>
        <pt x="99" y="0" on="1"/>
      </contour>
      <contour>
        <pt x="120" y="820" on="1"/>
        <pt x="105" y="820" on="0"/>
        <pt x="85" y="836" on="0"/>
        <pt x="85" y="855" on="1"/>
        <pt x="85" y="873" on="0"/>
        <pt x="105" y="889" on="0"/>
        <pt x="120" y="889" on="1"/>
        <pt x="134" y="889" on="0"/>
        <pt x="156" y="873" on="0"/>
        <pt x="156" y="855" on="1"/>
        <pt x="156" y="836" on="0"/>
        <pt x="134" y="820" on="0"/>
      </contour>
    </TTGlyph>
    <TTGlyph name="Idotaccent.sc" xMin="82" yMin="0" xMax="147" yMax="701">
      <contour>
        <pt x="93" y="577" on="1"/>
        <pt x="133" y="577" on="1"/>
        <pt x="133" y="0" on="1"/>
        <pt x="93" y="0" on="1"/>
      </contour>
      <contour>
        <pt x="114" y="640" on="1"/>
        <pt x="99" y="640" on="0"/>
        <pt x="82" y="654" on="0"/>
        <pt x="82" y="671" on="1"/>
        <pt x="82" y="701" on="0"/>
        <pt x="114" y="701" on="1"/>
        <pt x="128" y="701" on="0"/>
        <pt x="147" y="687" on="0"/>
        <pt x="147" y="671" on="1"/>
        <pt x="147" y="654" on="0"/>
        <pt x="128" y="640" on="0"/>
      </contour>
    </TTGlyph>
    <TTGlyph name="Idotbelow" xMin="82" yMin="-169" xMax="159" yMax="740">
      <contour>
        <pt x="99" y="740" on="1"/>
        <pt x="139" y="740" on="1"/>
        <pt x="139" y="0" on="1"/>
        <pt x="99" y="0" on="1"/>
      </contour>
      <contour>
        <pt x="120" y="-169" on="1"/>
        <pt x="103" y="-169" on="0"/>
        <pt x="82" y="-152" on="0"/>
        <pt x="82" y="-131" on="1"/>
        <pt x="82" y="-110" on="0"/>
        <pt x="103" y="-92" on="0"/>
        <pt x="120" y="-92" on="1"/>
        <pt x="137" y="-92" on="0"/>
        <pt x="159" y="-110" on="0"/>
        <pt x="159" y="-131" on="1"/>
        <pt x="159" y="-152" on="0"/>
        <pt x="137" y="-169" on="0"/>
      </contour>
    </TTGlyph>
    <TTGlyph name="Idotbelow.sc" xMin="80" yMin="-135" xMax="149" yMax="577">
      <contour>
        <pt x="93" y="577" on="1"/>
        <pt x="133" y="577" on="1"/>
        <pt x="133" y="0" on="1"/>
        <pt x="93" y="0" on="1"/>
      </contour>
      <contour>
        <pt x="114" y="-135" on="1"/>
        <pt x="80" y="-135" on="0"/>
        <pt x="80" y="-103" on="1"/>
        <pt x="80" y="-70" on="0"/>
        <pt x="114" y="-70" on="1"/>
        <pt x="129" y="-70" on="0"/>
        <pt x="149" y="-85" on="0"/>
        <pt x="149" y="-103" on="1"/>
        <pt x="149" y="-120" on="0"/>
        <pt x="129" y="-135" on="0"/>
      </contour>
    </TTGlyph>
    <TTGlyph name="Igrave" xMin="18" yMin="0" xMax="140" yMax="927">
      <contour>
        <pt x="99" y="740" on="1"/>
        <pt x="139" y="740" on="1"/>
        <pt x="139" y="0" on="1"/>
        <pt x="99" y="0" on="1"/>
      </contour>
      <contour>
        <pt x="104" y="799" on="1"/>
        <pt x="18" y="927" on="1"/>
        <pt x="62" y="927" on="1"/>
        <pt x="140" y="813" on="1"/>
      </contour>
    </TTGlyph>
    <TTGlyph name="Igrave.sc" xMin="25" yMin="0" xMax="134" yMax="728">
      <contour>
        <pt x="93" y="577" on="1"/>
        <pt x="133" y="577" on="1"/>
        <pt x="133" y="0" on="1"/>
        <pt x="93" y="0" on="1"/>
      </contour>
      <contour>
        <pt x="99" y="624" on="1"/>
        <pt x="25" y="728" on="1"/>
        <pt x="67" y="728" on="1"/>
        <pt x="134" y="635" on="1"/>
      </contour>
    </TTGlyph>
    <TTGlyph name="Iinvertedbreve" xMin="-41" yMin="0" xMax="280" yMax="952">
      <contour>
        <pt x="99" y="740" on="1"/>
        <pt x="139" y="740" on="1"/>
        <pt x="139" y="0" on="1"/>
        <pt x="99" y="0" on="1"/>
      </contour>
      <contour>
        <pt x="242" y="818" on="1"/>
        <pt x="242" y="864" on="0"/>
        <pt x="177" y="916" on="0"/>
        <pt x="120" y="916" on="1"/>
        <pt x="62" y="916" on="0"/>
        <pt x="-3" y="864" on="0"/>
        <pt x="-3" y="818" on="1"/>
        <pt x="-41" y="818" on="1"/>
        <pt x="-41" y="881" on="0"/>
        <pt x="44" y="952" on="0"/>
        <pt x="120" y="952" on="1"/>
        <pt x="195" y="952" on="0"/>
        <pt x="280" y="881" on="0"/>
        <pt x="280" y="818" on="1"/>
      </contour>
    </TTGlyph>
    <TTGlyph name="Iinvertedbreve.sc" xMin="-26" yMin="0" xMax="254" yMax="745">
      <contour>
        <pt x="93" y="577" on="1"/>
        <pt x="133" y="577" on="1"/>
        <pt x="133" y="0" on="1"/>
        <pt x="93" y="0" on="1"/>
      </contour>
      <contour>
        <pt x="219" y="638" on="1"/>
        <pt x="219" y="674" on="0"/>
        <pt x="164" y="714" on="0"/>
        <pt x="114" y="714" on="1"/>
        <pt x="64" y="714" on="0"/>
        <pt x="9" y="674" on="0"/>
        <pt x="9" y="638" on="1"/>
        <pt x="-26" y="638" on="1"/>
        <pt x="-26" y="687" on="0"/>
        <pt x="47" y="745" on="0"/>
        <pt x="114" y="745" on="1"/>
        <pt x="180" y="745" on="0"/>
        <pt x="254" y="688" on="0"/>
        <pt x="254" y="638" on="1"/>
      </contour>
    </TTGlyph>
    <TTGlyph name="Imacron" xMin="-22" yMin="0" xMax="259" yMax="879">
      <contour>
        <pt x="99" y="740" on="1"/>
        <pt x="139" y="740" on="1"/>
        <pt x="139" y="0" on="1"/>
        <pt x="99" y="0" on="1"/>
      </contour>
      <contour>
        <pt x="-22" y="879" on="1"/>
        <pt x="259" y="879" on="1"/>
        <pt x="259" y="842" on="1"/>
        <pt x="-22" y="842" on="1"/>
      </contour>
    </TTGlyph>
    <TTGlyph name="Imacron.sc" xMin="-11" yMin="0" xMax="237" yMax="691">
      <contour>
        <pt x="93" y="577" on="1"/>
        <pt x="133" y="577" on="1"/>
        <pt x="133" y="0" on="1"/>
        <pt x="93" y="0" on="1"/>
      </contour>
      <contour>
        <pt x="-11" y="691" on="1"/>
        <pt x="237" y="691" on="1"/>
        <pt x="237" y="657" on="1"/>
        <pt x="-11" y="657" on="1"/>
      </contour>
    </TTGlyph>
    <TTGlyph name="Iogonek" xMin="-13" yMin="-220" xMax="139" yMax="740">
      <contour>
        <pt x="99" y="740" on="1"/>
        <pt x="139" y="740" on="1"/>
        <pt x="139" y="-22" on="1"/>
        <pt x="77" y="-52" on="0"/>
        <pt x="24" y="-108" on="0"/>
        <pt x="24" y="-143" on="1"/>
        <pt x="24" y="-166" on="0"/>
        <pt x="49" y="-187" on="0"/>
        <pt x="78" y="-187" on="1"/>
        <pt x="107" y="-187" on="0"/>
        <pt x="137" y="-177" on="1"/>
        <pt x="137" y="-208" on="1"/>
        <pt x="123" y="-213" on="0"/>
        <pt x="88" y="-220" on="0"/>
        <pt x="70" y="-220" on="1"/>
        <pt x="-13" y="-220" on="0"/>
        <pt x="-13" y="-144" on="1"/>
        <pt x="-13" y="-124" on="0"/>
        <pt x="-1" y="-89" on="0"/>
        <pt x="26" y="-55" on="0"/>
        <pt x="72" y="-20" on="0"/>
        <pt x="105" y="0" on="1"/>
        <pt x="99" y="0" on="1"/>
      </contour>
    </TTGlyph>
    <TTGlyph name="Iogonek.sc" xMin="-1" yMin="-172" xMax="133" yMax="577">
      <contour>
        <pt x="93" y="577" on="1"/>
        <pt x="133" y="577" on="1"/>
        <pt x="133" y="-16" on="1"/>
        <pt x="87" y="-36" on="0"/>
        <pt x="34" y="-80" on="0"/>
        <pt x="34" y="-109" on="1"/>
        <pt x="34" y="-128" on="0"/>
        <pt x="57" y="-142" on="0"/>
        <pt x="78" y="-142" on="1"/>
        <pt x="105" y="-142" on="0"/>
        <pt x="131" y="-134" on="1"/>
        <pt x="131" y="-162" on="1"/>
        <pt x="106" y="-172" on="0"/>
        <pt x="73" y="-172" on="1"/>
        <pt x="-1" y="-172" on="0"/>
        <pt x="-1" y="-111" on="1"/>
        <pt x="-1" y="-96" on="0"/>
        <pt x="8" y="-69" on="0"/>
        <pt x="31" y="-44" on="0"/>
        <pt x="69" y="-17" on="0"/>
        <pt x="98" y="0" on="1"/>
        <pt x="93" y="0" on="1"/>
      </contour>
    </TTGlyph>
    <TTGlyph name="Itilde" xMin="-56" yMin="0" xMax="315" yMax="913">
      <contour>
        <pt x="99" y="740" on="1"/>
        <pt x="139" y="740" on="1"/>
        <pt x="139" y="0" on="1"/>
        <pt x="99" y="0" on="1"/>
      </contour>
      <contour>
        <pt x="-56" y="863" on="1"/>
        <pt x="-31" y="887" on="0"/>
        <pt x="23" y="913" on="0"/>
        <pt x="52" y="913" on="1"/>
        <pt x="75" y="913" on="0"/>
        <pt x="113" y="900" on="0"/>
        <pt x="149" y="883" on="0"/>
        <pt x="184" y="870" on="0"/>
        <pt x="205" y="870" on="1"/>
        <pt x="251" y="870" on="0"/>
        <pt x="290" y="909" on="1"/>
        <pt x="315" y="885" on="1"/>
        <pt x="293" y="862" on="0"/>
        <pt x="234" y="834" on="0"/>
        <pt x="202" y="834" on="1"/>
        <pt x="182" y="834" on="0"/>
        <pt x="144" y="847" on="0"/>
        <pt x="107" y="863" on="0"/>
        <pt x="71" y="876" on="0"/>
        <pt x="52" y="876" on="1"/>
        <pt x="31" y="876" on="0"/>
        <pt x="-12" y="858" on="0"/>
        <pt x="-32" y="839" on="1"/>
      </contour>
    </TTGlyph>
    <TTGlyph name="Itilde.sc" xMin="-40" yMin="0" xMax="285" yMax="717">
      <contour>
        <pt x="93" y="577" on="1"/>
        <pt x="133" y="577" on="1"/>
        <pt x="133" y="0" on="1"/>
        <pt x="93" y="0" on="1"/>
      </contour>
      <contour>
        <pt x="-40" y="673" on="1"/>
        <pt x="7" y="717" on="0"/>
        <pt x="55" y="717" on="1"/>
        <pt x="75" y="717" on="0"/>
        <pt x="108" y="707" on="0"/>
        <pt x="140" y="694" on="0"/>
        <pt x="171" y="684" on="0"/>
        <pt x="189" y="684" on="1"/>
        <pt x="229" y="684" on="0"/>
        <pt x="264" y="713" on="1"/>
        <pt x="285" y="695" on="1"/>
        <pt x="265" y="674" on="0"/>
        <pt x="213" y="650" on="0"/>
        <pt x="185" y="650" on="1"/>
        <pt x="167" y="650" on="0"/>
        <pt x="134" y="660" on="0"/>
        <pt x="102" y="673" on="0"/>
        <pt x="70" y="683" on="0"/>
        <pt x="54" y="683" on="1"/>
        <pt x="15" y="683" on="0"/>
        <pt x="-20" y="654" on="1"/>
      </contour>
    </TTGlyph>
    <TTGlyph name="J" xMin="20" yMin="-178" xMax="141" yMax="740">
      <contour>
        <pt x="20" y="-160" on="1"/>
        <pt x="43" y="-112" on="0"/>
        <pt x="74" y="-32" on="0"/>
        <pt x="93" y="47" on="0"/>
        <pt x="101" y="130" on="0"/>
        <pt x="101" y="181" on="1"/>
        <pt x="101" y="740" on="1"/>
        <pt x="141" y="740" on="1"/>
        <pt x="141" y="180" on="1"/>
        <pt x="141" y="131" on="0"/>
        <pt x="132" y="47" on="0"/>
        <pt x="111" y="-36" on="0"/>
        <pt x="77" y="-124" on="0"/>
        <pt x="52" y="-178" on="1"/>
      </contour>
    </TTGlyph>
    <TTGlyph name="J.sc" xMin="27" yMin="-141" xMax="135" yMax="577">
      <contour>
        <pt x="27" y="-125" on="1"/>
        <pt x="47" y="-88" on="0"/>
        <pt x="73" y="-25" on="0"/>
        <pt x="89" y="37" on="0"/>
        <pt x="95" y="103" on="0"/>
        <pt x="95" y="142" on="1"/>
        <pt x="95" y="577" on="1"/>
        <pt x="135" y="577" on="1"/>
        <pt x="135" y="141" on="1"/>
        <pt x="135" y="102" on="0"/>
        <pt x="127" y="36" on="0"/>
        <pt x="109" y="-29" on="0"/>
        <pt x="79" y="-99" on="0"/>
        <pt x="57" y="-141" on="1"/>
      </contour>
    </TTGlyph>
    <TTGlyph name="Jcircumflex" xMin="-24" yMin="-178" xMax="268" yMax="935">
      <contour>
        <pt x="20" y="-160" on="1"/>
        <pt x="43" y="-112" on="0"/>
        <pt x="74" y="-32" on="0"/>
        <pt x="93" y="47" on="0"/>
        <pt x="101" y="130" on="0"/>
        <pt x="101" y="181" on="1"/>
        <pt x="101" y="740" on="1"/>
        <pt x="141" y="740" on="1"/>
        <pt x="141" y="180" on="1"/>
        <pt x="141" y="131" on="0"/>
        <pt x="132" y="47" on="0"/>
        <pt x="111" y="-36" on="0"/>
        <pt x="77" y="-124" on="0"/>
        <pt x="52" y="-178" on="1"/>
      </contour>
      <contour>
        <pt x="-24" y="862" on="1"/>
        <pt x="122" y="935" on="1"/>
        <pt x="268" y="862" on="1"/>
        <pt x="268" y="818" on="1"/>
        <pt x="122" y="890" on="1"/>
        <pt x="-24" y="818" on="1"/>
      </contour>
    </TTGlyph>
    <TTGlyph name="Jcircumflex.sc" xMin="-12" yMin="-141" xMax="243" yMax="733">
      <contour>
        <pt x="26" y="-125" on="1"/>
        <pt x="46" y="-88" on="0"/>
        <pt x="72" y="-25" on="0"/>
        <pt x="88" y="37" on="0"/>
        <pt x="94" y="103" on="0"/>
        <pt x="94" y="142" on="1"/>
        <pt x="94" y="577" on="1"/>
        <pt x="134" y="577" on="1"/>
        <pt x="134" y="141" on="1"/>
        <pt x="134" y="102" on="0"/>
        <pt x="127" y="36" on="0"/>
        <pt x="109" y="-29" on="0"/>
        <pt x="79" y="-99" on="0"/>
        <pt x="57" y="-141" on="1"/>
      </contour>
      <contour>
        <pt x="-12" y="676" on="1"/>
        <pt x="116" y="733" on="1"/>
        <pt x="243" y="676" on="1"/>
        <pt x="243" y="637" on="1"/>
        <pt x="116" y="693" on="1"/>
        <pt x="-12" y="637" on="1"/>
      </contour>
    </TTGlyph>
    <TTGlyph name="K" xMin="99" yMin="0" xMax="621" yMax="740">
      <contour>
        <pt x="99" y="740" on="1"/>
        <pt x="139" y="740" on="1"/>
        <pt x="139" y="397" on="1"/>
        <pt x="300" y="397" on="1"/>
        <pt x="553" y="740" on="1"/>
        <pt x="603" y="740" on="1"/>
        <pt x="356" y="406" on="1"/>
        <pt x="332" y="382" on="1"/>
        <pt x="332" y="376" on="1"/>
        <pt x="359" y="352" on="1"/>
        <pt x="621" y="0" on="1"/>
        <pt x="572" y="0" on="1"/>
        <pt x="306" y="359" on="1"/>
        <pt x="139" y="359" on="1"/>
        <pt x="139" y="0" on="1"/>
        <pt x="99" y="0" on="1"/>
      </contour>
    </TTGlyph>
    <TTGlyph name="K.sc" xMin="93" yMin="0" xMax="548" yMax="577">
      <contour>
        <pt x="93" y="577" on="1"/>
        <pt x="133" y="577" on="1"/>
        <pt x="133" y="313" on="1"/>
        <pt x="272" y="313" on="1"/>
        <pt x="484" y="577" on="1"/>
        <pt x="532" y="577" on="1"/>
        <pt x="325" y="317" on="1"/>
        <pt x="303" y="299" on="1"/>
        <pt x="303" y="294" on="1"/>
        <pt x="327" y="275" on="1"/>
        <pt x="548" y="0" on="1"/>
        <pt x="499" y="0" on="1"/>
        <pt x="277" y="276" on="1"/>
        <pt x="133" y="276" on="1"/>
        <pt x="133" y="0" on="1"/>
        <pt x="93" y="0" on="1"/>
      </contour>
    </TTGlyph>
    <TTGlyph name="Kcommaaccent" xMin="99" yMin="-220" xMax="621" yMax="740">
      <contour>
        <pt x="318" y="-69" on="1"/>
        <pt x="361" y="-69" on="1"/>
        <pt x="306" y="-220" on="1"/>
        <pt x="267" y="-220" on="1"/>
      </contour>
      <contour>
        <pt x="99" y="740" on="1"/>
        <pt x="139" y="740" on="1"/>
        <pt x="139" y="397" on="1"/>
        <pt x="300" y="397" on="1"/>
        <pt x="553" y="740" on="1"/>
        <pt x="603" y="740" on="1"/>
        <pt x="356" y="406" on="1"/>
        <pt x="332" y="382" on="1"/>
        <pt x="332" y="376" on="1"/>
        <pt x="359" y="352" on="1"/>
        <pt x="621" y="0" on="1"/>
        <pt x="572" y="0" on="1"/>
        <pt x="306" y="359" on="1"/>
        <pt x="139" y="359" on="1"/>
        <pt x="139" y="0" on="1"/>
        <pt x="99" y="0" on="1"/>
      </contour>
    </TTGlyph>
    <TTGlyph name="Kcommaaccent.sc" xMin="93" yMin="-172" xMax="548" yMax="577">
      <contour>
        <pt x="93" y="577" on="1"/>
        <pt x="133" y="577" on="1"/>
        <pt x="133" y="313" on="1"/>
        <pt x="272" y="313" on="1"/>
        <pt x="484" y="577" on="1"/>
        <pt x="532" y="577" on="1"/>
        <pt x="325" y="317" on="1"/>
        <pt x="303" y="299" on="1"/>
        <pt x="303" y="294" on="1"/>
        <pt x="327" y="275" on="1"/>
        <pt x="548" y="0" on="1"/>
        <pt x="499" y="0" on="1"/>
        <pt x="277" y="276" on="1"/>
        <pt x="133" y="276" on="1"/>
        <pt x="133" y="0" on="1"/>
        <pt x="93" y="0" on="1"/>
      </contour>
      <contour>
        <pt x="283" y="-54" on="1"/>
        <pt x="325" y="-54" on="1"/>
        <pt x="277" y="-172" on="1"/>
        <pt x="240" y="-172" on="1"/>
      </contour>
    </TTGlyph>
    <TTGlyph name="L" xMin="99" yMin="0" xMax="488" yMax="740">
      <contour>
        <pt x="99" y="740" on="1"/>
        <pt x="139" y="740" on="1"/>
        <pt x="139" y="38" on="1"/>
        <pt x="488" y="38" on="1"/>
        <pt x="488" y="0" on="1"/>
        <pt x="99" y="0" on="1"/>
      </contour>
    </TTGlyph>
    <TTGlyph name="L.sc" xMin="93" yMin="0" xMax="434" yMax="577">
      <contour>
        <pt x="93" y="577" on="1"/>
        <pt x="133" y="577" on="1"/>
        <pt x="133" y="36" on="1"/>
        <pt x="434" y="36" on="1"/>
        <pt x="434" y="0" on="1"/>
        <pt x="93" y="0" on="1"/>
      </contour>
    </TTGlyph>
    <TTGlyph name="Lacute" xMin="99" yMin="0" xMax="488" yMax="927">
      <contour>
        <pt x="100" y="805" on="1"/>
        <pt x="179" y="927" on="1"/>
        <pt x="223" y="927" on="1"/>
        <pt x="136" y="799" on="1"/>
      </contour>
      <contour>
        <pt x="99" y="740" on="1"/>
        <pt x="139" y="740" on="1"/>
        <pt x="139" y="38" on="1"/>
        <pt x="488" y="38" on="1"/>
        <pt x="488" y="0" on="1"/>
        <pt x="99" y="0" on="1"/>
      </contour>
    </TTGlyph>
    <TTGlyph name="Lacute.sc" xMin="93" yMin="0" xMax="435" yMax="728">
      <contour>
        <pt x="93" y="577" on="1"/>
        <pt x="133" y="577" on="1"/>
        <pt x="133" y="36" on="1"/>
        <pt x="435" y="36" on="1"/>
        <pt x="435" y="0" on="1"/>
        <pt x="93" y="0" on="1"/>
      </contour>
      <contour>
        <pt x="96" y="629" on="1"/>
        <pt x="162" y="728" on="1"/>
        <pt x="205" y="728" on="1"/>
        <pt x="130" y="624" on="1"/>
      </contour>
    </TTGlyph>
    <TTGlyph name="Lcaron" xMin="99" yMin="0" xMax="488" yMax="742">
      <contour>
        <pt x="385" y="742" on="1"/>
        <pt x="424" y="742" on="1"/>
        <pt x="403" y="514" on="1"/>
        <pt x="385" y="514" on="1"/>
      </contour>
      <contour>
        <pt x="99" y="740" on="1"/>
        <pt x="139" y="740" on="1"/>
        <pt x="139" y="38" on="1"/>
        <pt x="488" y="38" on="1"/>
        <pt x="488" y="0" on="1"/>
        <pt x="99" y="0" on="1"/>
      </contour>
    </TTGlyph>
    <TTGlyph name="Lcaron.sc" xMin="93" yMin="0" xMax="434" yMax="582">
      <contour>
        <pt x="93" y="577" on="1"/>
        <pt x="133" y="577" on="1"/>
        <pt x="133" y="36" on="1"/>
        <pt x="434" y="36" on="1"/>
        <pt x="434" y="0" on="1"/>
        <pt x="93" y="0" on="1"/>
      </contour>
      <contour>
        <pt x="343" y="582" on="1"/>
        <pt x="380" y="582" on="1"/>
        <pt x="361" y="404" on="1"/>
        <pt x="343" y="404" on="1"/>
      </contour>
    </TTGlyph>
    <TTGlyph name="Lcommaaccent" xMin="99" yMin="-220" xMax="488" yMax="740">
      <contour>
        <pt x="284" y="-69" on="1"/>
        <pt x="327" y="-69" on="1"/>
        <pt x="272" y="-220" on="1"/>
        <pt x="233" y="-220" on="1"/>
      </contour>
      <contour>
        <pt x="99" y="740" on="1"/>
        <pt x="139" y="740" on="1"/>
        <pt x="139" y="38" on="1"/>
        <pt x="488" y="38" on="1"/>
        <pt x="488" y="0" on="1"/>
        <pt x="99" y="0" on="1"/>
      </contour>
    </TTGlyph>
    <TTGlyph name="Lcommaaccent.sc" xMin="93" yMin="-172" xMax="434" yMax="577">
      <contour>
        <pt x="93" y="577" on="1"/>
        <pt x="133" y="577" on="1"/>
        <pt x="133" y="36" on="1"/>
        <pt x="434" y="36" on="1"/>
        <pt x="434" y="0" on="1"/>
        <pt x="93" y="0" on="1"/>
      </contour>
      <contour>
        <pt x="252" y="-54" on="1"/>
        <pt x="295" y="-54" on="1"/>
        <pt x="246" y="-172" on="1"/>
        <pt x="209" y="-172" on="1"/>
      </contour>
    </TTGlyph>
    <TTGlyph name="Ldot" xMin="99" yMin="0" xMax="488" yMax="740">
      <contour>
        <pt x="99" y="740" on="1"/>
        <pt x="139" y="740" on="1"/>
        <pt x="139" y="38" on="1"/>
        <pt x="488" y="38" on="1"/>
        <pt x="488" y="0" on="1"/>
        <pt x="99" y="0" on="1"/>
      </contour>
      <contour>
        <pt x="409" y="336" on="1"/>
        <pt x="393" y="336" on="0"/>
        <pt x="374" y="353" on="0"/>
        <pt x="374" y="371" on="1"/>
        <pt x="374" y="389" on="0"/>
        <pt x="393" y="406" on="0"/>
        <pt x="409" y="406" on="1"/>
        <pt x="423" y="406" on="0"/>
        <pt x="444" y="390" on="0"/>
        <pt x="444" y="371" on="1"/>
        <pt x="444" y="352" on="0"/>
        <pt x="423" y="336" on="0"/>
      </contour>
    </TTGlyph>
    <TTGlyph name="Ldot.sc" xMin="93" yMin="0" xMax="434" yMax="577">
      <contour>
        <pt x="93" y="577" on="1"/>
        <pt x="133" y="577" on="1"/>
        <pt x="133" y="36" on="1"/>
        <pt x="434" y="36" on="1"/>
        <pt x="434" y="0" on="1"/>
        <pt x="93" y="0" on="1"/>
      </contour>
      <contour>
        <pt x="367" y="260" on="1"/>
        <pt x="353" y="260" on="0"/>
        <pt x="335" y="274" on="0"/>
        <pt x="335" y="291" on="1"/>
        <pt x="335" y="307" on="0"/>
        <pt x="353" y="321" on="0"/>
        <pt x="367" y="321" on="1"/>
        <pt x="381" y="321" on="0"/>
        <pt x="400" y="307" on="0"/>
        <pt x="400" y="291" on="1"/>
        <pt x="400" y="274" on="0"/>
        <pt x="381" y="260" on="0"/>
      </contour>
    </TTGlyph>
    <TTGlyph name="Lslash" xMin="17" yMin="0" xMax="511" yMax="740">
      <contour>
        <pt x="17" y="269" on="1"/>
        <pt x="122" y="342" on="1"/>
        <pt x="122" y="740" on="1"/>
        <pt x="162" y="740" on="1"/>
        <pt x="162" y="370" on="1"/>
        <pt x="333" y="489" on="1"/>
        <pt x="333" y="444" on="1"/>
        <pt x="162" y="325" on="1"/>
        <pt x="162" y="38" on="1"/>
        <pt x="511" y="38" on="1"/>
        <pt x="511" y="0" on="1"/>
        <pt x="122" y="0" on="1"/>
        <pt x="122" y="297" on="1"/>
        <pt x="17" y="224" on="1"/>
      </contour>
    </TTGlyph>
    <TTGlyph name="Lslash.sc" xMin="24" yMin="0" xMax="454" yMax="577">
      <contour>
        <pt x="24" y="215" on="1"/>
        <pt x="113" y="270" on="1"/>
        <pt x="113" y="577" on="1"/>
        <pt x="152" y="577" on="1"/>
        <pt x="152" y="294" on="1"/>
        <pt x="302" y="385" on="1"/>
        <pt x="302" y="346" on="1"/>
        <pt x="152" y="255" on="1"/>
        <pt x="152" y="36" on="1"/>
        <pt x="454" y="36" on="1"/>
        <pt x="454" y="0" on="1"/>
        <pt x="113" y="0" on="1"/>
        <pt x="113" y="230" on="1"/>
        <pt x="24" y="175" on="1"/>
      </contour>
    </TTGlyph>
    <TTGlyph name="M" xMin="99" yMin="0" xMax="793" yMax="740">
      <contour>
        <pt x="99" y="740" on="1"/>
        <pt x="154" y="740" on="1"/>
        <pt x="374" y="233" on="1"/>
        <pt x="443" y="71" on="1"/>
        <pt x="447" y="71" on="1"/>
        <pt x="517" y="233" on="1"/>
        <pt x="737" y="740" on="1"/>
        <pt x="793" y="740" on="1"/>
        <pt x="793" y="0" on="1"/>
        <pt x="753" y="0" on="1"/>
        <pt x="753" y="674" on="1"/>
        <pt x="749" y="674" on="1"/>
        <pt x="657" y="462" on="1"/>
        <pt x="468" y="28" on="1"/>
        <pt x="423" y="28" on="1"/>
        <pt x="234" y="462" on="1"/>
        <pt x="142" y="674" on="1"/>
        <pt x="138" y="674" on="1"/>
        <pt x="138" y="0" on="1"/>
        <pt x="99" y="0" on="1"/>
      </contour>
    </TTGlyph>
    <TTGlyph name="M.sc" xMin="93" yMin="0" xMax="696" yMax="577">
      <contour>
        <pt x="93" y="577" on="1"/>
        <pt x="148" y="577" on="1"/>
        <pt x="332" y="194" on="1"/>
        <pt x="392" y="65" on="1"/>
        <pt x="397" y="65" on="1"/>
        <pt x="456" y="194" on="1"/>
        <pt x="642" y="577" on="1"/>
        <pt x="696" y="577" on="1"/>
        <pt x="696" y="0" on="1"/>
        <pt x="657" y="0" on="1"/>
        <pt x="657" y="519" on="1"/>
        <pt x="653" y="520" on="1"/>
        <pt x="573" y="348" on="1"/>
        <pt x="417" y="23" on="1"/>
        <pt x="372" y="23" on="1"/>
        <pt x="216" y="348" on="1"/>
        <pt x="136" y="520" on="1"/>
        <pt x="131" y="519" on="1"/>
        <pt x="131" y="0" on="1"/>
        <pt x="93" y="0" on="1"/>
      </contour>
    </TTGlyph>
    <TTGlyph name="N" xMin="99" yMin="0" xMax="662" yMax="740">
      <contour>
        <pt x="99" y="740" on="1"/>
        <pt x="139" y="740" on="1"/>
        <pt x="558" y="156" on="1"/>
        <pt x="619" y="66" on="1"/>
        <pt x="623" y="66" on="1"/>
        <pt x="623" y="740" on="1"/>
        <pt x="662" y="740" on="1"/>
        <pt x="662" y="0" on="1"/>
        <pt x="621" y="0" on="1"/>
        <pt x="198" y="588" on="1"/>
        <pt x="142" y="672" on="1"/>
        <pt x="138" y="672" on="1"/>
        <pt x="138" y="0" on="1"/>
        <pt x="99" y="0" on="1"/>
      </contour>
    </TTGlyph>
    <TTGlyph name="N.sc" xMin="93" yMin="0" xMax="582" yMax="577">
      <contour>
        <pt x="93" y="577" on="1"/>
        <pt x="131" y="577" on="1"/>
        <pt x="487" y="133" on="1"/>
        <pt x="539" y="63" on="1"/>
        <pt x="543" y="63" on="1"/>
        <pt x="543" y="577" on="1"/>
        <pt x="582" y="577" on="1"/>
        <pt x="582" y="0" on="1"/>
        <pt x="543" y="0" on="1"/>
        <pt x="184" y="447" on="1"/>
        <pt x="136" y="513" on="1"/>
        <pt x="131" y="513" on="1"/>
        <pt x="131" y="0" on="1"/>
        <pt x="93" y="0" on="1"/>
      </contour>
    </TTGlyph>
    <TTGlyph name="Nacute" xMin="99" yMin="0" xMax="662" yMax="927">
      <contour>
        <pt x="356" y="805" on="1"/>
        <pt x="435" y="927" on="1"/>
        <pt x="479" y="927" on="1"/>
        <pt x="392" y="799" on="1"/>
      </contour>
      <contour>
        <pt x="99" y="740" on="1"/>
        <pt x="139" y="740" on="1"/>
        <pt x="558" y="156" on="1"/>
        <pt x="619" y="66" on="1"/>
        <pt x="623" y="66" on="1"/>
        <pt x="623" y="740" on="1"/>
        <pt x="662" y="740" on="1"/>
        <pt x="662" y="0" on="1"/>
        <pt x="621" y="0" on="1"/>
        <pt x="198" y="588" on="1"/>
        <pt x="142" y="672" on="1"/>
        <pt x="138" y="672" on="1"/>
        <pt x="138" y="0" on="1"/>
        <pt x="99" y="0" on="1"/>
      </contour>
    </TTGlyph>
    <TTGlyph name="Nacute.sc" xMin="93" yMin="0" xMax="582" yMax="728">
      <contour>
        <pt x="93" y="577" on="1"/>
        <pt x="131" y="577" on="1"/>
        <pt x="487" y="133" on="1"/>
        <pt x="539" y="63" on="1"/>
        <pt x="543" y="63" on="1"/>
        <pt x="543" y="577" on="1"/>
        <pt x="582" y="577" on="1"/>
        <pt x="582" y="0" on="1"/>
        <pt x="543" y="0" on="1"/>
        <pt x="184" y="447" on="1"/>
        <pt x="136" y="513" on="1"/>
        <pt x="131" y="513" on="1"/>
        <pt x="131" y="0" on="1"/>
        <pt x="93" y="0" on="1"/>
      </contour>
      <contour>
        <pt x="314" y="629" on="1"/>
        <pt x="381" y="728" on="1"/>
        <pt x="423" y="728" on="1"/>
        <pt x="349" y="624" on="1"/>
      </contour>
    </TTGlyph>
    <TTGlyph name="Ncaron" xMin="99" yMin="0" xMax="662" yMax="930">
      <contour>
        <pt x="236" y="930" on="1"/>
        <pt x="382" y="858" on="1"/>
        <pt x="528" y="930" on="1"/>
        <pt x="528" y="886" on="1"/>
        <pt x="382" y="813" on="1"/>
        <pt x="236" y="886" on="1"/>
      </contour>
      <contour>
        <pt x="99" y="740" on="1"/>
        <pt x="139" y="740" on="1"/>
        <pt x="558" y="156" on="1"/>
        <pt x="619" y="66" on="1"/>
        <pt x="623" y="66" on="1"/>
        <pt x="623" y="740" on="1"/>
        <pt x="662" y="740" on="1"/>
        <pt x="662" y="0" on="1"/>
        <pt x="621" y="0" on="1"/>
        <pt x="198" y="588" on="1"/>
        <pt x="142" y="672" on="1"/>
        <pt x="138" y="672" on="1"/>
        <pt x="138" y="0" on="1"/>
        <pt x="99" y="0" on="1"/>
      </contour>
    </TTGlyph>
    <TTGlyph name="Ncaron.sc" xMin="93" yMin="0" xMax="582" yMax="730">
      <contour>
        <pt x="93" y="577" on="1"/>
        <pt x="131" y="577" on="1"/>
        <pt x="487" y="133" on="1"/>
        <pt x="539" y="63" on="1"/>
        <pt x="543" y="63" on="1"/>
        <pt x="543" y="577" on="1"/>
        <pt x="582" y="577" on="1"/>
        <pt x="582" y="0" on="1"/>
        <pt x="543" y="0" on="1"/>
        <pt x="184" y="447" on="1"/>
        <pt x="136" y="513" on="1"/>
        <pt x="131" y="513" on="1"/>
        <pt x="131" y="0" on="1"/>
        <pt x="93" y="0" on="1"/>
      </contour>
      <contour>
        <pt x="211" y="691" on="1"/>
        <pt x="211" y="730" on="1"/>
        <pt x="339" y="673" on="1"/>
        <pt x="466" y="730" on="1"/>
        <pt x="466" y="691" on="1"/>
        <pt x="339" y="634" on="1"/>
      </contour>
    </TTGlyph>
    <TTGlyph name="Ncommaaccent" xMin="99" yMin="-220" xMax="662" yMax="740">
      <contour>
        <pt x="379" y="-69" on="1"/>
        <pt x="422" y="-69" on="1"/>
        <pt x="367" y="-220" on="1"/>
        <pt x="328" y="-220" on="1"/>
      </contour>
      <contour>
        <pt x="99" y="740" on="1"/>
        <pt x="139" y="740" on="1"/>
        <pt x="558" y="156" on="1"/>
        <pt x="619" y="66" on="1"/>
        <pt x="623" y="66" on="1"/>
        <pt x="623" y="740" on="1"/>
        <pt x="662" y="740" on="1"/>
        <pt x="662" y="0" on="1"/>
        <pt x="621" y="0" on="1"/>
        <pt x="198" y="588" on="1"/>
        <pt x="142" y="672" on="1"/>
        <pt x="138" y="672" on="1"/>
        <pt x="138" y="0" on="1"/>
        <pt x="99" y="0" on="1"/>
      </contour>
    </TTGlyph>
    <TTGlyph name="Ncommaaccent.sc" xMin="93" yMin="-172" xMax="582" yMax="577">
      <contour>
        <pt x="93" y="577" on="1"/>
        <pt x="131" y="577" on="1"/>
        <pt x="487" y="133" on="1"/>
        <pt x="539" y="63" on="1"/>
        <pt x="543" y="63" on="1"/>
        <pt x="543" y="577" on="1"/>
        <pt x="582" y="577" on="1"/>
        <pt x="582" y="0" on="1"/>
        <pt x="543" y="0" on="1"/>
        <pt x="184" y="447" on="1"/>
        <pt x="136" y="513" on="1"/>
        <pt x="131" y="513" on="1"/>
        <pt x="131" y="0" on="1"/>
        <pt x="93" y="0" on="1"/>
      </contour>
      <contour>
        <pt x="332" y="-54" on="1"/>
        <pt x="375" y="-54" on="1"/>
        <pt x="326" y="-172" on="1"/>
        <pt x="289" y="-172" on="1"/>
      </contour>
    </TTGlyph>
    <TTGlyph name="Ndotaccent" xMin="99" yMin="0" xMax="662" yMax="889">
      <contour>
        <pt x="381" y="820" on="1"/>
        <pt x="366" y="820" on="0"/>
        <pt x="346" y="836" on="0"/>
        <pt x="346" y="855" on="1"/>
        <pt x="346" y="873" on="0"/>
        <pt x="366" y="889" on="0"/>
        <pt x="381" y="889" on="1"/>
        <pt x="395" y="889" on="0"/>
        <pt x="417" y="873" on="0"/>
        <pt x="417" y="855" on="1"/>
        <pt x="417" y="836" on="0"/>
        <pt x="395" y="820" on="0"/>
      </contour>
      <contour>
        <pt x="99" y="740" on="1"/>
        <pt x="139" y="740" on="1"/>
        <pt x="558" y="156" on="1"/>
        <pt x="619" y="66" on="1"/>
        <pt x="623" y="66" on="1"/>
        <pt x="623" y="740" on="1"/>
        <pt x="662" y="740" on="1"/>
        <pt x="662" y="0" on="1"/>
        <pt x="621" y="0" on="1"/>
        <pt x="198" y="588" on="1"/>
        <pt x="142" y="672" on="1"/>
        <pt x="138" y="672" on="1"/>
        <pt x="138" y="0" on="1"/>
        <pt x="99" y="0" on="1"/>
      </contour>
    </TTGlyph>
    <TTGlyph name="Ndotaccent.sc" xMin="93" yMin="0" xMax="582" yMax="701">
      <contour>
        <pt x="93" y="577" on="1"/>
        <pt x="131" y="577" on="1"/>
        <pt x="487" y="133" on="1"/>
        <pt x="539" y="63" on="1"/>
        <pt x="543" y="63" on="1"/>
        <pt x="543" y="577" on="1"/>
        <pt x="582" y="577" on="1"/>
        <pt x="582" y="0" on="1"/>
        <pt x="543" y="0" on="1"/>
        <pt x="184" y="447" on="1"/>
        <pt x="136" y="513" on="1"/>
        <pt x="131" y="513" on="1"/>
        <pt x="131" y="0" on="1"/>
        <pt x="93" y="0" on="1"/>
      </contour>
      <contour>
        <pt x="338" y="640" on="1"/>
        <pt x="323" y="640" on="0"/>
        <pt x="306" y="654" on="0"/>
        <pt x="306" y="671" on="1"/>
        <pt x="306" y="701" on="0"/>
        <pt x="338" y="701" on="1"/>
        <pt x="352" y="701" on="0"/>
        <pt x="371" y="687" on="0"/>
        <pt x="371" y="671" on="1"/>
        <pt x="371" y="654" on="0"/>
        <pt x="352" y="640" on="0"/>
      </contour>
    </TTGlyph>
    <TTGlyph name="Ntilde" xMin="99" yMin="0" xMax="662" yMax="913">
      <contour>
        <pt x="206" y="863" on="1"/>
        <pt x="231" y="887" on="0"/>
        <pt x="285" y="913" on="0"/>
        <pt x="314" y="913" on="1"/>
        <pt x="337" y="913" on="0"/>
        <pt x="375" y="900" on="0"/>
        <pt x="411" y="883" on="0"/>
        <pt x="446" y="870" on="0"/>
        <pt x="467" y="870" on="1"/>
        <pt x="513" y="870" on="0"/>
        <pt x="552" y="909" on="1"/>
        <pt x="577" y="885" on="1"/>
        <pt x="555" y="862" on="0"/>
        <pt x="496" y="834" on="0"/>
        <pt x="464" y="834" on="1"/>
        <pt x="444" y="834" on="0"/>
        <pt x="406" y="847" on="0"/>
        <pt x="369" y="863" on="0"/>
        <pt x="333" y="876" on="0"/>
        <pt x="314" y="876" on="1"/>
        <pt x="293" y="876" on="0"/>
        <pt x="250" y="858" on="0"/>
        <pt x="230" y="839" on="1"/>
      </contour>
      <contour>
        <pt x="99" y="740" on="1"/>
        <pt x="139" y="740" on="1"/>
        <pt x="558" y="156" on="1"/>
        <pt x="619" y="66" on="1"/>
        <pt x="623" y="66" on="1"/>
        <pt x="623" y="740" on="1"/>
        <pt x="662" y="740" on="1"/>
        <pt x="662" y="0" on="1"/>
        <pt x="621" y="0" on="1"/>
        <pt x="198" y="588" on="1"/>
        <pt x="142" y="672" on="1"/>
        <pt x="138" y="672" on="1"/>
        <pt x="138" y="0" on="1"/>
        <pt x="99" y="0" on="1"/>
      </contour>
    </TTGlyph>
    <TTGlyph name="Ntilde.sc" xMin="93" yMin="0" xMax="582" yMax="717">
      <contour>
        <pt x="184" y="673" on="1"/>
        <pt x="206" y="694" on="0"/>
        <pt x="254" y="717" on="0"/>
        <pt x="279" y="717" on="1"/>
        <pt x="299" y="717" on="0"/>
        <pt x="332" y="707" on="0"/>
        <pt x="364" y="694" on="0"/>
        <pt x="395" y="684" on="0"/>
        <pt x="413" y="684" on="1"/>
        <pt x="453" y="684" on="0"/>
        <pt x="488" y="713" on="1"/>
        <pt x="509" y="695" on="1"/>
        <pt x="489" y="674" on="0"/>
        <pt x="437" y="650" on="0"/>
        <pt x="409" y="650" on="1"/>
        <pt x="391" y="650" on="0"/>
        <pt x="358" y="660" on="0"/>
        <pt x="326" y="673" on="0"/>
        <pt x="294" y="683" on="0"/>
        <pt x="278" y="683" on="1"/>
        <pt x="239" y="683" on="0"/>
        <pt x="204" y="654" on="1"/>
      </contour>
      <contour>
        <pt x="93" y="577" on="1"/>
        <pt x="131" y="577" on="1"/>
        <pt x="487" y="133" on="1"/>
        <pt x="539" y="63" on="1"/>
        <pt x="543" y="63" on="1"/>
        <pt x="543" y="577" on="1"/>
        <pt x="582" y="577" on="1"/>
        <pt x="582" y="0" on="1"/>
        <pt x="543" y="0" on="1"/>
        <pt x="184" y="447" on="1"/>
        <pt x="136" y="513" on="1"/>
        <pt x="131" y="513" on="1"/>
        <pt x="131" y="0" on="1"/>
        <pt x="93" y="0" on="1"/>
      </contour>
    </TTGlyph>
    <TTGlyph name="O" xMin="59" yMin="-10" xMax="661" yMax="750">
      <contour>
        <pt x="360" y="-10" on="1"/>
        <pt x="216" y="-10" on="0"/>
        <pt x="59" y="181" on="0"/>
        <pt x="59" y="369" on="1"/>
        <pt x="59" y="557" on="0"/>
        <pt x="216" y="750" on="0"/>
        <pt x="360" y="750" on="1"/>
        <pt x="504" y="750" on="0"/>
        <pt x="661" y="557" on="0"/>
        <pt x="661" y="369" on="1"/>
        <pt x="661" y="182" on="0"/>
        <pt x="504" y="-10" on="0"/>
      </contour>
      <contour>
        <pt x="360" y="29" on="1"/>
        <pt x="486" y="29" on="0"/>
        <pt x="621" y="204" on="0"/>
        <pt x="621" y="369" on="1"/>
        <pt x="621" y="537" on="0"/>
        <pt x="487" y="711" on="0"/>
        <pt x="360" y="711" on="1"/>
        <pt x="232" y="711" on="0"/>
        <pt x="99" y="537" on="0"/>
        <pt x="99" y="369" on="1"/>
        <pt x="99" y="202" on="0"/>
        <pt x="233" y="29" on="0"/>
      </contour>
    </TTGlyph>
    <TTGlyph name="O.sc" xMin="58" yMin="-8" xMax="582" yMax="585">
      <contour>
        <pt x="321" y="-8" on="1"/>
        <pt x="195" y="-8" on="0"/>
        <pt x="58" y="142" on="0"/>
        <pt x="58" y="288" on="1"/>
        <pt x="58" y="434" on="0"/>
        <pt x="195" y="585" on="0"/>
        <pt x="321" y="585" on="1"/>
        <pt x="446" y="585" on="0"/>
        <pt x="582" y="434" on="0"/>
        <pt x="582" y="288" on="1"/>
        <pt x="582" y="142" on="0"/>
        <pt x="446" y="-8" on="0"/>
      </contour>
      <contour>
        <pt x="321" y="29" on="1"/>
        <pt x="428" y="29" on="0"/>
        <pt x="542" y="162" on="0"/>
        <pt x="542" y="288" on="1"/>
        <pt x="542" y="416" on="0"/>
        <pt x="429" y="548" on="0"/>
        <pt x="321" y="548" on="1"/>
        <pt x="212" y="548" on="0"/>
        <pt x="98" y="416" on="0"/>
        <pt x="98" y="288" on="1"/>
        <pt x="98" y="161" on="0"/>
        <pt x="212" y="29" on="0"/>
      </contour>
    </TTGlyph>
</ttFont>
